<svg width="163" height="185" viewBox="0 0 163 185" fill="none" xmlns="http://www.w3.org/2000/svg">
<g opacity="0.3">
<circle cx="3.18878" cy="3.18878" r="3.18878" fill="#87C1E6"/>
<circle cx="3.18878" cy="25.5101" r="3.18878" fill="#87C1E6"/>
<circle cx="3.18878" cy="47.8318" r="3.18878" fill="#87C1E6"/>
<circle cx="3.18878" cy="70.1531" r="3.18878" fill="#87C1E6"/>
<circle cx="3.18878" cy="92.4749" r="3.18878" fill="#87C1E6"/>
<circle cx="3.18878" cy="114.796" r="3.18878" fill="#87C1E6"/>
<circle cx="3.18878" cy="137.117" r="3.18878" fill="#87C1E6"/>
<circle cx="3.18878" cy="159.439" r="3.18878" fill="#87C1E6"/>
<circle cx="3.18878" cy="181.761" r="3.18878" fill="#87C1E6"/>
<circle cx="25.5103" cy="3.18878" r="3.18878" fill="#87C1E6"/>
<circle cx="25.5103" cy="25.5101" r="3.18878" fill="#87C1E6"/>
<circle cx="25.5103" cy="47.8318" r="3.18878" fill="#87C1E6"/>
<circle cx="25.5103" cy="70.1531" r="3.18878" fill="#87C1E6"/>
<circle cx="25.5103" cy="92.4749" r="3.18878" fill="#87C1E6"/>
<circle cx="25.5103" cy="114.796" r="3.18878" fill="#87C1E6"/>
<circle cx="25.5103" cy="137.117" r="3.18878" fill="#87C1E6"/>
<circle cx="25.5103" cy="159.439" r="3.18878" fill="#87C1E6"/>
<circle cx="25.5103" cy="181.761" r="3.18878" fill="#87C1E6"/>
<circle cx="47.8314" cy="3.18878" r="3.18878" fill="#87C1E6"/>
<circle cx="47.8314" cy="25.5101" r="3.18878" fill="#87C1E6"/>
<circle cx="47.8314" cy="47.8318" r="3.18878" fill="#87C1E6"/>
<circle cx="47.8314" cy="70.1531" r="3.18878" fill="#87C1E6"/>
<circle cx="47.8314" cy="92.4749" r="3.18878" fill="#87C1E6"/>
<circle cx="47.8314" cy="114.796" r="3.18878" fill="#87C1E6"/>
<circle cx="47.8314" cy="137.117" r="3.18878" fill="#87C1E6"/>
<circle cx="47.8314" cy="159.439" r="3.18878" fill="#87C1E6"/>
<circle cx="47.8314" cy="181.761" r="3.18878" fill="#87C1E6"/>
<circle cx="70.1536" cy="3.18878" r="3.18878" fill="#87C1E6"/>
<circle cx="70.1536" cy="25.5101" r="3.18878" fill="#87C1E6"/>
<circle cx="70.1536" cy="47.8318" r="3.18878" fill="#87C1E6"/>
<circle cx="70.1536" cy="70.1531" r="3.18878" fill="#87C1E6"/>
<circle cx="70.1536" cy="92.4749" r="3.18878" fill="#87C1E6"/>
<circle cx="70.1536" cy="114.796" r="3.18878" fill="#87C1E6"/>
<circle cx="70.1536" cy="137.117" r="3.18878" fill="#87C1E6"/>
<circle cx="70.1536" cy="159.439" r="3.18878" fill="#87C1E6"/>
<circle cx="70.1536" cy="181.761" r="3.18878" fill="#87C1E6"/>
<circle cx="92.4747" cy="3.18878" r="3.18878" fill="#87C1E6"/>
<circle cx="92.4747" cy="25.5101" r="3.18878" fill="#87C1E6"/>
<circle cx="92.4747" cy="47.8318" r="3.18878" fill="#87C1E6"/>
<circle cx="92.4747" cy="70.1531" r="3.18878" fill="#87C1E6"/>
<circle cx="92.4747" cy="92.4749" r="3.18878" fill="#87C1E6"/>
<circle cx="92.4747" cy="114.796" r="3.18878" fill="#87C1E6"/>
<circle cx="92.4747" cy="137.117" r="3.18878" fill="#87C1E6"/>
<circle cx="92.4747" cy="159.439" r="3.18878" fill="#87C1E6"/>
<circle cx="92.4747" cy="181.761" r="3.18878" fill="#87C1E6"/>
<circle cx="114.796" cy="3.18878" r="3.18878" fill="#87C1E6"/>
<circle cx="114.796" cy="25.5101" r="3.18878" fill="#87C1E6"/>
<circle cx="114.796" cy="47.8318" r="3.18878" fill="#87C1E6"/>
<circle cx="114.796" cy="70.1531" r="3.18878" fill="#87C1E6"/>
<circle cx="114.796" cy="92.4749" r="3.18878" fill="#87C1E6"/>
<circle cx="114.796" cy="114.796" r="3.18878" fill="#87C1E6"/>
<circle cx="114.796" cy="137.117" r="3.18878" fill="#87C1E6"/>
<circle cx="114.796" cy="159.439" r="3.18878" fill="#87C1E6"/>
<circle cx="114.796" cy="181.761" r="3.18878" fill="#87C1E6"/>
<circle cx="137.118" cy="3.18878" r="3.18878" fill="#87C1E6"/>
<circle cx="137.118" cy="25.5101" r="3.18878" fill="#87C1E6"/>
<circle cx="137.118" cy="47.8318" r="3.18878" fill="#87C1E6"/>
<circle cx="137.118" cy="70.1531" r="3.18878" fill="#87C1E6"/>
<circle cx="137.118" cy="92.4749" r="3.18878" fill="#87C1E6"/>
<circle cx="137.118" cy="114.796" r="3.18878" fill="#87C1E6"/>
<circle cx="137.118" cy="137.117" r="3.18878" fill="#87C1E6"/>
<circle cx="137.118" cy="159.439" r="3.18878" fill="#87C1E6"/>
<circle cx="137.118" cy="181.761" r="3.18878" fill="#87C1E6"/>
<circle cx="159.439" cy="3.18878" r="3.18878" fill="#87C1E6"/>
<circle cx="159.439" cy="25.5101" r="3.18878" fill="#87C1E6"/>
<circle cx="159.439" cy="47.8318" r="3.18878" fill="#87C1E6"/>
<circle cx="159.439" cy="70.1531" r="3.18878" fill="#87C1E6"/>
<circle cx="159.439" cy="92.4749" r="3.18878" fill="#87C1E6"/>
<circle cx="159.439" cy="114.796" r="3.18878" fill="#87C1E6"/>
<circle cx="159.439" cy="137.117" r="3.18878" fill="#87C1E6"/>
<circle cx="159.439" cy="159.439" r="3.18878" fill="#87C1E6"/>
<circle cx="159.439" cy="181.761" r="3.18878" fill="#87C1E6"/>
</g>
</svg>
