<svg xmlns="http://www.w3.org/2000/svg" width="163" height="185" fill="none"><g fill="#87C1E6" opacity=".3"><circle cx="3.189" cy="3.189" r="3.189"/><circle cx="3.189" cy="25.51" r="3.189"/><circle cx="3.189" cy="47.832" r="3.189"/><circle cx="3.189" cy="70.153" r="3.189"/><circle cx="3.189" cy="92.475" r="3.189"/><circle cx="3.189" cy="114.796" r="3.189"/><circle cx="3.189" cy="137.117" r="3.189"/><circle cx="3.189" cy="159.439" r="3.189"/><circle cx="3.189" cy="181.761" r="3.189"/><circle cx="25.51" cy="3.189" r="3.189"/><circle cx="25.51" cy="25.51" r="3.189"/><circle cx="25.51" cy="47.832" r="3.189"/><circle cx="25.51" cy="70.153" r="3.189"/><circle cx="25.51" cy="92.475" r="3.189"/><circle cx="25.51" cy="114.796" r="3.189"/><circle cx="25.51" cy="137.117" r="3.189"/><circle cx="25.51" cy="159.439" r="3.189"/><circle cx="25.51" cy="181.761" r="3.189"/><circle cx="47.831" cy="3.189" r="3.189"/><circle cx="47.831" cy="25.51" r="3.189"/><circle cx="47.831" cy="47.832" r="3.189"/><circle cx="47.831" cy="70.153" r="3.189"/><circle cx="47.831" cy="92.475" r="3.189"/><circle cx="47.831" cy="114.796" r="3.189"/><circle cx="47.831" cy="137.117" r="3.189"/><circle cx="47.831" cy="159.439" r="3.189"/><circle cx="47.831" cy="181.761" r="3.189"/><circle cx="70.154" cy="3.189" r="3.189"/><circle cx="70.154" cy="25.51" r="3.189"/><circle cx="70.154" cy="47.832" r="3.189"/><circle cx="70.154" cy="70.153" r="3.189"/><circle cx="70.154" cy="92.475" r="3.189"/><circle cx="70.154" cy="114.796" r="3.189"/><circle cx="70.154" cy="137.117" r="3.189"/><circle cx="70.154" cy="159.439" r="3.189"/><circle cx="70.154" cy="181.761" r="3.189"/><circle cx="92.475" cy="3.189" r="3.189"/><circle cx="92.475" cy="25.51" r="3.189"/><circle cx="92.475" cy="47.832" r="3.189"/><circle cx="92.475" cy="70.153" r="3.189"/><circle cx="92.475" cy="92.475" r="3.189"/><circle cx="92.475" cy="114.796" r="3.189"/><circle cx="92.475" cy="137.117" r="3.189"/><circle cx="92.475" cy="159.439" r="3.189"/><circle cx="92.475" cy="181.761" r="3.189"/><circle cx="114.796" cy="3.189" r="3.189"/><circle cx="114.796" cy="25.51" r="3.189"/><circle cx="114.796" cy="47.832" r="3.189"/><circle cx="114.796" cy="70.153" r="3.189"/><circle cx="114.796" cy="92.475" r="3.189"/><circle cx="114.796" cy="114.796" r="3.189"/><circle cx="114.796" cy="137.117" r="3.189"/><circle cx="114.796" cy="159.439" r="3.189"/><circle cx="114.796" cy="181.761" r="3.189"/><circle cx="137.118" cy="3.189" r="3.189"/><circle cx="137.118" cy="25.51" r="3.189"/><circle cx="137.118" cy="47.832" r="3.189"/><circle cx="137.118" cy="70.153" r="3.189"/><circle cx="137.118" cy="92.475" r="3.189"/><circle cx="137.118" cy="114.796" r="3.189"/><circle cx="137.118" cy="137.117" r="3.189"/><circle cx="137.118" cy="159.439" r="3.189"/><circle cx="137.118" cy="181.761" r="3.189"/><circle cx="159.439" cy="3.189" r="3.189"/><circle cx="159.439" cy="25.51" r="3.189"/><circle cx="159.439" cy="47.832" r="3.189"/><circle cx="159.439" cy="70.153" r="3.189"/><circle cx="159.439" cy="92.475" r="3.189"/><circle cx="159.439" cy="114.796" r="3.189"/><circle cx="159.439" cy="137.117" r="3.189"/><circle cx="159.439" cy="159.439" r="3.189"/><circle cx="159.439" cy="181.761" r="3.189"/></g></svg>