<svg width="152" height="166" viewBox="0 0 152 166" fill="none" xmlns="http://www.w3.org/2000/svg">
<path d="M4.90323 2.82491C4.90323 4.16501 3.8056 5.25138 2.45161 5.25138C1.09762 5.25138 0 4.16501 0 2.82491C0 1.48481 1.09762 0.398438 2.45161 0.398438C3.8056 0.398438 4.90323 1.48481 4.90323 2.82491Z" fill="url(#paint0_linear_916_6652)"/>
<path d="M19.6129 2.82491C19.6129 4.16501 18.5153 5.25138 17.1613 5.25138C15.8073 5.25138 14.7097 4.16501 14.7097 2.82491C14.7097 1.48481 15.8073 0.398438 17.1613 0.398438C18.5153 0.398438 19.6129 1.48481 19.6129 2.82491Z" fill="url(#paint1_linear_916_6652)"/>
<path d="M34.3226 2.82491C34.3226 4.16501 33.225 5.25138 31.871 5.25138C30.517 5.25138 29.4194 4.16501 29.4194 2.82491C29.4194 1.48481 30.517 0.398438 31.871 0.398438C33.225 0.398438 34.3226 1.48481 34.3226 2.82491Z" fill="url(#paint2_linear_916_6652)"/>
<path d="M49.0323 2.82491C49.0323 4.16501 47.9346 5.25138 46.5806 5.25138C45.2267 5.25138 44.129 4.16501 44.129 2.82491C44.129 1.48481 45.2267 0.398438 46.5806 0.398438C47.9346 0.398438 49.0323 1.48481 49.0323 2.82491Z" fill="url(#paint3_linear_916_6652)"/>
<path d="M63.7419 2.82491C63.7419 4.16501 62.6443 5.25138 61.2903 5.25138C59.9363 5.25138 58.8387 4.16501 58.8387 2.82491C58.8387 1.48481 59.9363 0.398438 61.2903 0.398438C62.6443 0.398438 63.7419 1.48481 63.7419 2.82491Z" fill="url(#paint4_linear_916_6652)"/>
<path d="M78.4516 2.82491C78.4516 4.16501 77.354 5.25138 76 5.25138C74.646 5.25138 73.5484 4.16501 73.5484 2.82491C73.5484 1.48481 74.646 0.398438 76 0.398438C77.354 0.398438 78.4516 1.48481 78.4516 2.82491Z" fill="url(#paint5_linear_916_6652)"/>
<path d="M93.1613 2.82491C93.1613 4.16501 92.0637 5.25138 90.7097 5.25138C89.3557 5.25138 88.2581 4.16501 88.2581 2.82491C88.2581 1.48481 89.3557 0.398438 90.7097 0.398438C92.0637 0.398438 93.1613 1.48481 93.1613 2.82491Z" fill="url(#paint6_linear_916_6652)"/>
<path d="M107.871 2.82491C107.871 4.16501 106.773 5.25138 105.419 5.25138C104.065 5.25138 102.968 4.16501 102.968 2.82491C102.968 1.48481 104.065 0.398438 105.419 0.398438C106.773 0.398438 107.871 1.48481 107.871 2.82491Z" fill="url(#paint7_linear_916_6652)"/>
<path d="M122.581 2.82491C122.581 4.16501 121.483 5.25138 120.129 5.25138C118.775 5.25138 117.677 4.16501 117.677 2.82491C117.677 1.48481 118.775 0.398438 120.129 0.398438C121.483 0.398438 122.581 1.48481 122.581 2.82491Z" fill="url(#paint8_linear_916_6652)"/>
<path d="M137.29 2.82491C137.29 4.16501 136.193 5.25138 134.839 5.25138C133.485 5.25138 132.387 4.16501 132.387 2.82491C132.387 1.48481 133.485 0.398438 134.839 0.398438C136.193 0.398438 137.29 1.48481 137.29 2.82491Z" fill="url(#paint9_linear_916_6652)"/>
<path d="M152 2.82491C152 4.16501 150.902 5.25138 149.548 5.25138C148.194 5.25138 147.097 4.16501 147.097 2.82491C147.097 1.48481 148.194 0.398438 149.548 0.398438C150.902 0.398438 152 1.48481 152 2.82491Z" fill="url(#paint10_linear_916_6652)"/>
<path d="M4.90323 17.3837C4.90323 18.7238 3.8056 19.8102 2.45161 19.8102C1.09762 19.8102 0 18.7238 0 17.3837C0 16.0436 1.09762 14.9573 2.45161 14.9573C3.8056 14.9573 4.90323 16.0436 4.90323 17.3837Z" fill="url(#paint11_linear_916_6652)"/>
<path d="M19.6129 17.3837C19.6129 18.7238 18.5153 19.8102 17.1613 19.8102C15.8073 19.8102 14.7097 18.7238 14.7097 17.3837C14.7097 16.0436 15.8073 14.9573 17.1613 14.9573C18.5153 14.9573 19.6129 16.0436 19.6129 17.3837Z" fill="url(#paint12_linear_916_6652)"/>
<path d="M34.3226 17.3837C34.3226 18.7238 33.225 19.8102 31.871 19.8102C30.517 19.8102 29.4194 18.7238 29.4194 17.3837C29.4194 16.0436 30.517 14.9573 31.871 14.9573C33.225 14.9573 34.3226 16.0436 34.3226 17.3837Z" fill="url(#paint13_linear_916_6652)"/>
<path d="M49.0323 17.3837C49.0323 18.7238 47.9346 19.8102 46.5806 19.8102C45.2267 19.8102 44.129 18.7238 44.129 17.3837C44.129 16.0436 45.2267 14.9573 46.5806 14.9573C47.9346 14.9573 49.0323 16.0436 49.0323 17.3837Z" fill="url(#paint14_linear_916_6652)"/>
<path d="M63.7419 17.3837C63.7419 18.7238 62.6443 19.8102 61.2903 19.8102C59.9363 19.8102 58.8387 18.7238 58.8387 17.3837C58.8387 16.0436 59.9363 14.9573 61.2903 14.9573C62.6443 14.9573 63.7419 16.0436 63.7419 17.3837Z" fill="url(#paint15_linear_916_6652)"/>
<path d="M78.4516 17.3837C78.4516 18.7238 77.354 19.8102 76 19.8102C74.646 19.8102 73.5484 18.7238 73.5484 17.3837C73.5484 16.0436 74.646 14.9573 76 14.9573C77.354 14.9573 78.4516 16.0436 78.4516 17.3837Z" fill="url(#paint16_linear_916_6652)"/>
<path d="M93.1613 17.3837C93.1613 18.7238 92.0637 19.8102 90.7097 19.8102C89.3557 19.8102 88.2581 18.7238 88.2581 17.3837C88.2581 16.0436 89.3557 14.9573 90.7097 14.9573C92.0637 14.9573 93.1613 16.0436 93.1613 17.3837Z" fill="url(#paint17_linear_916_6652)"/>
<path d="M107.871 17.3837C107.871 18.7238 106.773 19.8102 105.419 19.8102C104.065 19.8102 102.968 18.7238 102.968 17.3837C102.968 16.0436 104.065 14.9573 105.419 14.9573C106.773 14.9573 107.871 16.0436 107.871 17.3837Z" fill="url(#paint18_linear_916_6652)"/>
<path d="M122.581 17.3837C122.581 18.7238 121.483 19.8102 120.129 19.8102C118.775 19.8102 117.677 18.7238 117.677 17.3837C117.677 16.0436 118.775 14.9573 120.129 14.9573C121.483 14.9573 122.581 16.0436 122.581 17.3837Z" fill="url(#paint19_linear_916_6652)"/>
<path d="M137.29 17.3837C137.29 18.7238 136.193 19.8102 134.839 19.8102C133.485 19.8102 132.387 18.7238 132.387 17.3837C132.387 16.0436 133.485 14.9573 134.839 14.9573C136.193 14.9573 137.29 16.0436 137.29 17.3837Z" fill="url(#paint20_linear_916_6652)"/>
<path d="M152 17.3837C152 18.7238 150.902 19.8102 149.548 19.8102C148.194 19.8102 147.097 18.7238 147.097 17.3837C147.097 16.0436 148.194 14.9573 149.548 14.9573C150.902 14.9573 152 16.0436 152 17.3837Z" fill="url(#paint21_linear_916_6652)"/>
<path d="M4.90323 31.9426C4.90323 33.2827 3.8056 34.369 2.45161 34.369C1.09762 34.369 0 33.2827 0 31.9426C0 30.6025 1.09762 29.5161 2.45161 29.5161C3.8056 29.5161 4.90323 30.6025 4.90323 31.9426Z" fill="url(#paint22_linear_916_6652)"/>
<path d="M19.6129 31.9426C19.6129 33.2827 18.5153 34.369 17.1613 34.369C15.8073 34.369 14.7097 33.2827 14.7097 31.9426C14.7097 30.6025 15.8073 29.5161 17.1613 29.5161C18.5153 29.5161 19.6129 30.6025 19.6129 31.9426Z" fill="url(#paint23_linear_916_6652)"/>
<path d="M34.3226 31.9426C34.3226 33.2827 33.225 34.369 31.871 34.369C30.517 34.369 29.4194 33.2827 29.4194 31.9426C29.4194 30.6025 30.517 29.5161 31.871 29.5161C33.225 29.5161 34.3226 30.6025 34.3226 31.9426Z" fill="url(#paint24_linear_916_6652)"/>
<path d="M49.0323 31.9426C49.0323 33.2827 47.9346 34.369 46.5806 34.369C45.2267 34.369 44.129 33.2827 44.129 31.9426C44.129 30.6025 45.2267 29.5161 46.5806 29.5161C47.9346 29.5161 49.0323 30.6025 49.0323 31.9426Z" fill="url(#paint25_linear_916_6652)"/>
<path d="M63.7419 31.9426C63.7419 33.2827 62.6443 34.369 61.2903 34.369C59.9363 34.369 58.8387 33.2827 58.8387 31.9426C58.8387 30.6025 59.9363 29.5161 61.2903 29.5161C62.6443 29.5161 63.7419 30.6025 63.7419 31.9426Z" fill="url(#paint26_linear_916_6652)"/>
<path d="M78.4516 31.9426C78.4516 33.2827 77.354 34.369 76 34.369C74.646 34.369 73.5484 33.2827 73.5484 31.9426C73.5484 30.6025 74.646 29.5161 76 29.5161C77.354 29.5161 78.4516 30.6025 78.4516 31.9426Z" fill="url(#paint27_linear_916_6652)"/>
<path d="M93.1613 31.9426C93.1613 33.2827 92.0637 34.369 90.7097 34.369C89.3557 34.369 88.2581 33.2827 88.2581 31.9426C88.2581 30.6025 89.3557 29.5161 90.7097 29.5161C92.0637 29.5161 93.1613 30.6025 93.1613 31.9426Z" fill="url(#paint28_linear_916_6652)"/>
<path d="M107.871 31.9426C107.871 33.2827 106.773 34.369 105.419 34.369C104.065 34.369 102.968 33.2827 102.968 31.9426C102.968 30.6025 104.065 29.5161 105.419 29.5161C106.773 29.5161 107.871 30.6025 107.871 31.9426Z" fill="url(#paint29_linear_916_6652)"/>
<path d="M122.581 31.9426C122.581 33.2827 121.483 34.369 120.129 34.369C118.775 34.369 117.677 33.2827 117.677 31.9426C117.677 30.6025 118.775 29.5161 120.129 29.5161C121.483 29.5161 122.581 30.6025 122.581 31.9426Z" fill="url(#paint30_linear_916_6652)"/>
<path d="M137.29 31.9426C137.29 33.2827 136.193 34.369 134.839 34.369C133.485 34.369 132.387 33.2827 132.387 31.9426C132.387 30.6025 133.485 29.5161 134.839 29.5161C136.193 29.5161 137.29 30.6025 137.29 31.9426Z" fill="url(#paint31_linear_916_6652)"/>
<path d="M152 31.9426C152 33.2827 150.902 34.369 149.548 34.369C148.194 34.369 147.097 33.2827 147.097 31.9426C147.097 30.6025 148.194 29.5161 149.548 29.5161C150.902 29.5161 152 30.6025 152 31.9426Z" fill="url(#paint32_linear_916_6652)"/>
<path d="M4.90323 46.5014C4.90323 47.8415 3.8056 48.9278 2.45161 48.9278C1.09762 48.9278 0 47.8415 0 46.5014C0 45.1613 1.09762 44.0749 2.45161 44.0749C3.8056 44.0749 4.90323 45.1613 4.90323 46.5014Z" fill="url(#paint33_linear_916_6652)"/>
<path d="M19.6129 46.5014C19.6129 47.8415 18.5153 48.9278 17.1613 48.9278C15.8073 48.9278 14.7097 47.8415 14.7097 46.5014C14.7097 45.1613 15.8073 44.0749 17.1613 44.0749C18.5153 44.0749 19.6129 45.1613 19.6129 46.5014Z" fill="url(#paint34_linear_916_6652)"/>
<path d="M34.3226 46.5014C34.3226 47.8415 33.225 48.9278 31.871 48.9278C30.517 48.9278 29.4194 47.8415 29.4194 46.5014C29.4194 45.1613 30.517 44.0749 31.871 44.0749C33.225 44.0749 34.3226 45.1613 34.3226 46.5014Z" fill="url(#paint35_linear_916_6652)"/>
<path d="M49.0323 46.5014C49.0323 47.8415 47.9346 48.9278 46.5806 48.9278C45.2267 48.9278 44.129 47.8415 44.129 46.5014C44.129 45.1613 45.2267 44.0749 46.5806 44.0749C47.9346 44.0749 49.0323 45.1613 49.0323 46.5014Z" fill="url(#paint36_linear_916_6652)"/>
<path d="M63.7419 46.5014C63.7419 47.8415 62.6443 48.9278 61.2903 48.9278C59.9363 48.9278 58.8387 47.8415 58.8387 46.5014C58.8387 45.1613 59.9363 44.0749 61.2903 44.0749C62.6443 44.0749 63.7419 45.1613 63.7419 46.5014Z" fill="url(#paint37_linear_916_6652)"/>
<path d="M78.4516 46.5014C78.4516 47.8415 77.354 48.9278 76 48.9278C74.646 48.9278 73.5484 47.8415 73.5484 46.5014C73.5484 45.1613 74.646 44.0749 76 44.0749C77.354 44.0749 78.4516 45.1613 78.4516 46.5014Z" fill="url(#paint38_linear_916_6652)"/>
<path d="M93.1613 46.5014C93.1613 47.8415 92.0637 48.9278 90.7097 48.9278C89.3557 48.9278 88.2581 47.8415 88.2581 46.5014C88.2581 45.1613 89.3557 44.0749 90.7097 44.0749C92.0637 44.0749 93.1613 45.1613 93.1613 46.5014Z" fill="url(#paint39_linear_916_6652)"/>
<path d="M107.871 46.5014C107.871 47.8415 106.773 48.9278 105.419 48.9278C104.065 48.9278 102.968 47.8415 102.968 46.5014C102.968 45.1613 104.065 44.0749 105.419 44.0749C106.773 44.0749 107.871 45.1613 107.871 46.5014Z" fill="url(#paint40_linear_916_6652)"/>
<path d="M122.581 46.5014C122.581 47.8415 121.483 48.9278 120.129 48.9278C118.775 48.9278 117.677 47.8415 117.677 46.5014C117.677 45.1613 118.775 44.0749 120.129 44.0749C121.483 44.0749 122.581 45.1613 122.581 46.5014Z" fill="url(#paint41_linear_916_6652)"/>
<path d="M137.29 46.5014C137.29 47.8415 136.193 48.9278 134.839 48.9278C133.485 48.9278 132.387 47.8415 132.387 46.5014C132.387 45.1613 133.485 44.0749 134.839 44.0749C136.193 44.0749 137.29 45.1613 137.29 46.5014Z" fill="url(#paint42_linear_916_6652)"/>
<path d="M152 46.5014C152 47.8415 150.902 48.9278 149.548 48.9278C148.194 48.9278 147.097 47.8415 147.097 46.5014C147.097 45.1613 148.194 44.0749 149.548 44.0749C150.902 44.0749 152 45.1613 152 46.5014Z" fill="url(#paint43_linear_916_6652)"/>
<path d="M4.90323 61.0602C4.90323 62.4003 3.8056 63.4867 2.45161 63.4867C1.09762 63.4867 0 62.4003 0 61.0602C0 59.7201 1.09762 58.6337 2.45161 58.6337C3.8056 58.6337 4.90323 59.7201 4.90323 61.0602Z" fill="url(#paint44_linear_916_6652)"/>
<path d="M19.6129 61.0602C19.6129 62.4003 18.5153 63.4867 17.1613 63.4867C15.8073 63.4867 14.7097 62.4003 14.7097 61.0602C14.7097 59.7201 15.8073 58.6337 17.1613 58.6337C18.5153 58.6337 19.6129 59.7201 19.6129 61.0602Z" fill="url(#paint45_linear_916_6652)"/>
<path d="M34.3226 61.0602C34.3226 62.4003 33.225 63.4867 31.871 63.4867C30.517 63.4867 29.4194 62.4003 29.4194 61.0602C29.4194 59.7201 30.517 58.6337 31.871 58.6337C33.225 58.6337 34.3226 59.7201 34.3226 61.0602Z" fill="url(#paint46_linear_916_6652)"/>
<path d="M49.0323 61.0602C49.0323 62.4003 47.9346 63.4867 46.5806 63.4867C45.2267 63.4867 44.129 62.4003 44.129 61.0602C44.129 59.7201 45.2267 58.6337 46.5806 58.6337C47.9346 58.6337 49.0323 59.7201 49.0323 61.0602Z" fill="url(#paint47_linear_916_6652)"/>
<path d="M63.7419 61.0602C63.7419 62.4003 62.6443 63.4867 61.2903 63.4867C59.9363 63.4867 58.8387 62.4003 58.8387 61.0602C58.8387 59.7201 59.9363 58.6337 61.2903 58.6337C62.6443 58.6337 63.7419 59.7201 63.7419 61.0602Z" fill="url(#paint48_linear_916_6652)"/>
<path d="M78.4516 61.0602C78.4516 62.4003 77.354 63.4867 76 63.4867C74.646 63.4867 73.5484 62.4003 73.5484 61.0602C73.5484 59.7201 74.646 58.6337 76 58.6337C77.354 58.6337 78.4516 59.7201 78.4516 61.0602Z" fill="url(#paint49_linear_916_6652)"/>
<path d="M93.1613 61.0602C93.1613 62.4003 92.0637 63.4867 90.7097 63.4867C89.3557 63.4867 88.2581 62.4003 88.2581 61.0602C88.2581 59.7201 89.3557 58.6337 90.7097 58.6337C92.0637 58.6337 93.1613 59.7201 93.1613 61.0602Z" fill="url(#paint50_linear_916_6652)"/>
<path d="M107.871 61.0602C107.871 62.4003 106.773 63.4867 105.419 63.4867C104.065 63.4867 102.968 62.4003 102.968 61.0602C102.968 59.7201 104.065 58.6337 105.419 58.6337C106.773 58.6337 107.871 59.7201 107.871 61.0602Z" fill="url(#paint51_linear_916_6652)"/>
<path d="M122.581 61.0602C122.581 62.4003 121.483 63.4867 120.129 63.4867C118.775 63.4867 117.677 62.4003 117.677 61.0602C117.677 59.7201 118.775 58.6337 120.129 58.6337C121.483 58.6337 122.581 59.7201 122.581 61.0602Z" fill="url(#paint52_linear_916_6652)"/>
<path d="M137.29 61.0602C137.29 62.4003 136.193 63.4867 134.839 63.4867C133.485 63.4867 132.387 62.4003 132.387 61.0602C132.387 59.7201 133.485 58.6337 134.839 58.6337C136.193 58.6337 137.29 59.7201 137.29 61.0602Z" fill="url(#paint53_linear_916_6652)"/>
<path d="M152 61.0602C152 62.4003 150.902 63.4867 149.548 63.4867C148.194 63.4867 147.097 62.4003 147.097 61.0602C147.097 59.7201 148.194 58.6337 149.548 58.6337C150.902 58.6337 152 59.7201 152 61.0602Z" fill="url(#paint54_linear_916_6652)"/>
<path d="M4.90323 75.619C4.90323 76.9591 3.8056 78.0455 2.45161 78.0455C1.09762 78.0455 0 76.9591 0 75.619C0 74.2789 1.09762 73.1926 2.45161 73.1926C3.8056 73.1926 4.90323 74.2789 4.90323 75.619Z" fill="url(#paint55_linear_916_6652)"/>
<path d="M19.6129 75.619C19.6129 76.9591 18.5153 78.0455 17.1613 78.0455C15.8073 78.0455 14.7097 76.9591 14.7097 75.619C14.7097 74.2789 15.8073 73.1926 17.1613 73.1926C18.5153 73.1926 19.6129 74.2789 19.6129 75.619Z" fill="url(#paint56_linear_916_6652)"/>
<path d="M34.3226 75.619C34.3226 76.9591 33.225 78.0455 31.871 78.0455C30.517 78.0455 29.4194 76.9591 29.4194 75.619C29.4194 74.2789 30.517 73.1926 31.871 73.1926C33.225 73.1926 34.3226 74.2789 34.3226 75.619Z" fill="url(#paint57_linear_916_6652)"/>
<path d="M49.0323 75.619C49.0323 76.9591 47.9346 78.0455 46.5806 78.0455C45.2267 78.0455 44.129 76.9591 44.129 75.619C44.129 74.2789 45.2267 73.1926 46.5806 73.1926C47.9346 73.1926 49.0323 74.2789 49.0323 75.619Z" fill="url(#paint58_linear_916_6652)"/>
<path d="M63.7419 75.619C63.7419 76.9591 62.6443 78.0455 61.2903 78.0455C59.9363 78.0455 58.8387 76.9591 58.8387 75.619C58.8387 74.2789 59.9363 73.1926 61.2903 73.1926C62.6443 73.1926 63.7419 74.2789 63.7419 75.619Z" fill="url(#paint59_linear_916_6652)"/>
<path d="M78.4516 75.619C78.4516 76.9591 77.354 78.0455 76 78.0455C74.646 78.0455 73.5484 76.9591 73.5484 75.619C73.5484 74.2789 74.646 73.1926 76 73.1926C77.354 73.1926 78.4516 74.2789 78.4516 75.619Z" fill="url(#paint60_linear_916_6652)"/>
<path d="M93.1613 75.619C93.1613 76.9591 92.0637 78.0455 90.7097 78.0455C89.3557 78.0455 88.2581 76.9591 88.2581 75.619C88.2581 74.2789 89.3557 73.1926 90.7097 73.1926C92.0637 73.1926 93.1613 74.2789 93.1613 75.619Z" fill="url(#paint61_linear_916_6652)"/>
<path d="M107.871 75.619C107.871 76.9591 106.773 78.0455 105.419 78.0455C104.065 78.0455 102.968 76.9591 102.968 75.619C102.968 74.2789 104.065 73.1926 105.419 73.1926C106.773 73.1926 107.871 74.2789 107.871 75.619Z" fill="url(#paint62_linear_916_6652)"/>
<path d="M122.581 75.619C122.581 76.9591 121.483 78.0455 120.129 78.0455C118.775 78.0455 117.677 76.9591 117.677 75.619C117.677 74.2789 118.775 73.1926 120.129 73.1926C121.483 73.1926 122.581 74.2789 122.581 75.619Z" fill="url(#paint63_linear_916_6652)"/>
<path d="M137.29 75.619C137.29 76.9591 136.193 78.0455 134.839 78.0455C133.485 78.0455 132.387 76.9591 132.387 75.619C132.387 74.2789 133.485 73.1926 134.839 73.1926C136.193 73.1926 137.29 74.2789 137.29 75.619Z" fill="url(#paint64_linear_916_6652)"/>
<path d="M152 75.619C152 76.9591 150.902 78.0455 149.548 78.0455C148.194 78.0455 147.097 76.9591 147.097 75.619C147.097 74.2789 148.194 73.1926 149.548 73.1926C150.902 73.1926 152 74.2789 152 75.619Z" fill="url(#paint65_linear_916_6652)"/>
<path d="M4.90323 90.1778C4.90323 91.518 3.8056 92.6043 2.45161 92.6043C1.09762 92.6043 0 91.518 0 90.1778C0 88.8377 1.09762 87.7514 2.45161 87.7514C3.8056 87.7514 4.90323 88.8377 4.90323 90.1778Z" fill="url(#paint66_linear_916_6652)"/>
<path d="M19.6129 90.1778C19.6129 91.518 18.5153 92.6043 17.1613 92.6043C15.8073 92.6043 14.7097 91.518 14.7097 90.1778C14.7097 88.8377 15.8073 87.7514 17.1613 87.7514C18.5153 87.7514 19.6129 88.8377 19.6129 90.1778Z" fill="url(#paint67_linear_916_6652)"/>
<path d="M34.3226 90.1778C34.3226 91.518 33.225 92.6043 31.871 92.6043C30.517 92.6043 29.4194 91.518 29.4194 90.1778C29.4194 88.8377 30.517 87.7514 31.871 87.7514C33.225 87.7514 34.3226 88.8377 34.3226 90.1778Z" fill="url(#paint68_linear_916_6652)"/>
<path d="M49.0323 90.1778C49.0323 91.518 47.9346 92.6043 46.5806 92.6043C45.2267 92.6043 44.129 91.518 44.129 90.1778C44.129 88.8377 45.2267 87.7514 46.5806 87.7514C47.9346 87.7514 49.0323 88.8377 49.0323 90.1778Z" fill="url(#paint69_linear_916_6652)"/>
<path d="M63.7419 90.1778C63.7419 91.518 62.6443 92.6043 61.2903 92.6043C59.9363 92.6043 58.8387 91.518 58.8387 90.1778C58.8387 88.8377 59.9363 87.7514 61.2903 87.7514C62.6443 87.7514 63.7419 88.8377 63.7419 90.1778Z" fill="url(#paint70_linear_916_6652)"/>
<path d="M78.4516 90.1778C78.4516 91.518 77.354 92.6043 76 92.6043C74.646 92.6043 73.5484 91.518 73.5484 90.1778C73.5484 88.8377 74.646 87.7514 76 87.7514C77.354 87.7514 78.4516 88.8377 78.4516 90.1778Z" fill="url(#paint71_linear_916_6652)"/>
<path d="M93.1613 90.1778C93.1613 91.518 92.0637 92.6043 90.7097 92.6043C89.3557 92.6043 88.2581 91.518 88.2581 90.1778C88.2581 88.8377 89.3557 87.7514 90.7097 87.7514C92.0637 87.7514 93.1613 88.8377 93.1613 90.1778Z" fill="url(#paint72_linear_916_6652)"/>
<path d="M107.871 90.1778C107.871 91.518 106.773 92.6043 105.419 92.6043C104.065 92.6043 102.968 91.518 102.968 90.1778C102.968 88.8377 104.065 87.7514 105.419 87.7514C106.773 87.7514 107.871 88.8377 107.871 90.1778Z" fill="url(#paint73_linear_916_6652)"/>
<path d="M122.581 90.1778C122.581 91.518 121.483 92.6043 120.129 92.6043C118.775 92.6043 117.677 91.518 117.677 90.1778C117.677 88.8377 118.775 87.7514 120.129 87.7514C121.483 87.7514 122.581 88.8377 122.581 90.1778Z" fill="url(#paint74_linear_916_6652)"/>
<path d="M137.29 90.1778C137.29 91.518 136.193 92.6043 134.839 92.6043C133.485 92.6043 132.387 91.518 132.387 90.1778C132.387 88.8377 133.485 87.7514 134.839 87.7514C136.193 87.7514 137.29 88.8377 137.29 90.1778Z" fill="url(#paint75_linear_916_6652)"/>
<path d="M152 90.1778C152 91.518 150.902 92.6043 149.548 92.6043C148.194 92.6043 147.097 91.518 147.097 90.1778C147.097 88.8377 148.194 87.7514 149.548 87.7514C150.902 87.7514 152 88.8377 152 90.1778Z" fill="url(#paint76_linear_916_6652)"/>
<path d="M4.90323 104.737C4.90323 106.077 3.8056 107.163 2.45161 107.163C1.09762 107.163 0 106.077 0 104.737C0 103.397 1.09762 102.31 2.45161 102.31C3.8056 102.31 4.90323 103.397 4.90323 104.737Z" fill="url(#paint77_linear_916_6652)"/>
<path d="M19.6129 104.737C19.6129 106.077 18.5153 107.163 17.1613 107.163C15.8073 107.163 14.7097 106.077 14.7097 104.737C14.7097 103.397 15.8073 102.31 17.1613 102.31C18.5153 102.31 19.6129 103.397 19.6129 104.737Z" fill="url(#paint78_linear_916_6652)"/>
<path d="M34.3226 104.737C34.3226 106.077 33.225 107.163 31.871 107.163C30.517 107.163 29.4194 106.077 29.4194 104.737C29.4194 103.397 30.517 102.31 31.871 102.31C33.225 102.31 34.3226 103.397 34.3226 104.737Z" fill="url(#paint79_linear_916_6652)"/>
<path d="M49.0323 104.737C49.0323 106.077 47.9346 107.163 46.5806 107.163C45.2267 107.163 44.129 106.077 44.129 104.737C44.129 103.397 45.2267 102.31 46.5806 102.31C47.9346 102.31 49.0323 103.397 49.0323 104.737Z" fill="url(#paint80_linear_916_6652)"/>
<path d="M63.7419 104.737C63.7419 106.077 62.6443 107.163 61.2903 107.163C59.9363 107.163 58.8387 106.077 58.8387 104.737C58.8387 103.397 59.9363 102.31 61.2903 102.31C62.6443 102.31 63.7419 103.397 63.7419 104.737Z" fill="url(#paint81_linear_916_6652)"/>
<path d="M78.4516 104.737C78.4516 106.077 77.354 107.163 76 107.163C74.646 107.163 73.5484 106.077 73.5484 104.737C73.5484 103.397 74.646 102.31 76 102.31C77.354 102.31 78.4516 103.397 78.4516 104.737Z" fill="url(#paint82_linear_916_6652)"/>
<path d="M93.1613 104.737C93.1613 106.077 92.0637 107.163 90.7097 107.163C89.3557 107.163 88.2581 106.077 88.2581 104.737C88.2581 103.397 89.3557 102.31 90.7097 102.31C92.0637 102.31 93.1613 103.397 93.1613 104.737Z" fill="url(#paint83_linear_916_6652)"/>
<path d="M107.871 104.737C107.871 106.077 106.773 107.163 105.419 107.163C104.065 107.163 102.968 106.077 102.968 104.737C102.968 103.397 104.065 102.31 105.419 102.31C106.773 102.31 107.871 103.397 107.871 104.737Z" fill="url(#paint84_linear_916_6652)"/>
<path d="M122.581 104.737C122.581 106.077 121.483 107.163 120.129 107.163C118.775 107.163 117.677 106.077 117.677 104.737C117.677 103.397 118.775 102.31 120.129 102.31C121.483 102.31 122.581 103.397 122.581 104.737Z" fill="url(#paint85_linear_916_6652)"/>
<path d="M137.29 104.737C137.29 106.077 136.193 107.163 134.839 107.163C133.485 107.163 132.387 106.077 132.387 104.737C132.387 103.397 133.485 102.31 134.839 102.31C136.193 102.31 137.29 103.397 137.29 104.737Z" fill="url(#paint86_linear_916_6652)"/>
<path d="M152 104.737C152 106.077 150.902 107.163 149.548 107.163C148.194 107.163 147.097 106.077 147.097 104.737C147.097 103.397 148.194 102.31 149.548 102.31C150.902 102.31 152 103.397 152 104.737Z" fill="url(#paint87_linear_916_6652)"/>
<path d="M4.90323 119.295C4.90323 120.636 3.8056 121.722 2.45161 121.722C1.09762 121.722 0 120.636 0 119.295C0 117.955 1.09762 116.869 2.45161 116.869C3.8056 116.869 4.90323 117.955 4.90323 119.295Z" fill="url(#paint88_linear_916_6652)"/>
<path d="M19.6129 119.295C19.6129 120.636 18.5153 121.722 17.1613 121.722C15.8073 121.722 14.7097 120.636 14.7097 119.295C14.7097 117.955 15.8073 116.869 17.1613 116.869C18.5153 116.869 19.6129 117.955 19.6129 119.295Z" fill="url(#paint89_linear_916_6652)"/>
<path d="M34.3226 119.295C34.3226 120.636 33.225 121.722 31.871 121.722C30.517 121.722 29.4194 120.636 29.4194 119.295C29.4194 117.955 30.517 116.869 31.871 116.869C33.225 116.869 34.3226 117.955 34.3226 119.295Z" fill="url(#paint90_linear_916_6652)"/>
<path d="M49.0323 119.295C49.0323 120.636 47.9346 121.722 46.5806 121.722C45.2267 121.722 44.129 120.636 44.129 119.295C44.129 117.955 45.2267 116.869 46.5806 116.869C47.9346 116.869 49.0323 117.955 49.0323 119.295Z" fill="url(#paint91_linear_916_6652)"/>
<path d="M63.7419 119.295C63.7419 120.636 62.6443 121.722 61.2903 121.722C59.9363 121.722 58.8387 120.636 58.8387 119.295C58.8387 117.955 59.9363 116.869 61.2903 116.869C62.6443 116.869 63.7419 117.955 63.7419 119.295Z" fill="url(#paint92_linear_916_6652)"/>
<path d="M78.4516 119.295C78.4516 120.636 77.354 121.722 76 121.722C74.646 121.722 73.5484 120.636 73.5484 119.295C73.5484 117.955 74.646 116.869 76 116.869C77.354 116.869 78.4516 117.955 78.4516 119.295Z" fill="url(#paint93_linear_916_6652)"/>
<path d="M93.1613 119.295C93.1613 120.636 92.0637 121.722 90.7097 121.722C89.3557 121.722 88.2581 120.636 88.2581 119.295C88.2581 117.955 89.3557 116.869 90.7097 116.869C92.0637 116.869 93.1613 117.955 93.1613 119.295Z" fill="url(#paint94_linear_916_6652)"/>
<path d="M107.871 119.295C107.871 120.636 106.773 121.722 105.419 121.722C104.065 121.722 102.968 120.636 102.968 119.295C102.968 117.955 104.065 116.869 105.419 116.869C106.773 116.869 107.871 117.955 107.871 119.295Z" fill="url(#paint95_linear_916_6652)"/>
<path d="M122.581 119.295C122.581 120.636 121.483 121.722 120.129 121.722C118.775 121.722 117.677 120.636 117.677 119.295C117.677 117.955 118.775 116.869 120.129 116.869C121.483 116.869 122.581 117.955 122.581 119.295Z" fill="url(#paint96_linear_916_6652)"/>
<path d="M137.29 119.295C137.29 120.636 136.193 121.722 134.839 121.722C133.485 121.722 132.387 120.636 132.387 119.295C132.387 117.955 133.485 116.869 134.839 116.869C136.193 116.869 137.29 117.955 137.29 119.295Z" fill="url(#paint97_linear_916_6652)"/>
<path d="M152 119.295C152 120.636 150.902 121.722 149.548 121.722C148.194 121.722 147.097 120.636 147.097 119.295C147.097 117.955 148.194 116.869 149.548 116.869C150.902 116.869 152 117.955 152 119.295Z" fill="url(#paint98_linear_916_6652)"/>
<path d="M4.90323 133.854C4.90323 135.194 3.8056 136.281 2.45161 136.281C1.09762 136.281 0 135.194 0 133.854C0 132.514 1.09762 131.428 2.45161 131.428C3.8056 131.428 4.90323 132.514 4.90323 133.854Z" fill="url(#paint99_linear_916_6652)"/>
<path d="M19.6129 133.854C19.6129 135.194 18.5153 136.281 17.1613 136.281C15.8073 136.281 14.7097 135.194 14.7097 133.854C14.7097 132.514 15.8073 131.428 17.1613 131.428C18.5153 131.428 19.6129 132.514 19.6129 133.854Z" fill="url(#paint100_linear_916_6652)"/>
<path d="M34.3226 133.854C34.3226 135.194 33.225 136.281 31.871 136.281C30.517 136.281 29.4194 135.194 29.4194 133.854C29.4194 132.514 30.517 131.428 31.871 131.428C33.225 131.428 34.3226 132.514 34.3226 133.854Z" fill="url(#paint101_linear_916_6652)"/>
<path d="M49.0323 133.854C49.0323 135.194 47.9346 136.281 46.5806 136.281C45.2267 136.281 44.129 135.194 44.129 133.854C44.129 132.514 45.2267 131.428 46.5806 131.428C47.9346 131.428 49.0323 132.514 49.0323 133.854Z" fill="url(#paint102_linear_916_6652)"/>
<path d="M63.7419 133.854C63.7419 135.194 62.6443 136.281 61.2903 136.281C59.9363 136.281 58.8387 135.194 58.8387 133.854C58.8387 132.514 59.9363 131.428 61.2903 131.428C62.6443 131.428 63.7419 132.514 63.7419 133.854Z" fill="url(#paint103_linear_916_6652)"/>
<path d="M78.4516 133.854C78.4516 135.194 77.354 136.281 76 136.281C74.646 136.281 73.5484 135.194 73.5484 133.854C73.5484 132.514 74.646 131.428 76 131.428C77.354 131.428 78.4516 132.514 78.4516 133.854Z" fill="url(#paint104_linear_916_6652)"/>
<path d="M93.1613 133.854C93.1613 135.194 92.0637 136.281 90.7097 136.281C89.3557 136.281 88.2581 135.194 88.2581 133.854C88.2581 132.514 89.3557 131.428 90.7097 131.428C92.0637 131.428 93.1613 132.514 93.1613 133.854Z" fill="url(#paint105_linear_916_6652)"/>
<path d="M107.871 133.854C107.871 135.194 106.773 136.281 105.419 136.281C104.065 136.281 102.968 135.194 102.968 133.854C102.968 132.514 104.065 131.428 105.419 131.428C106.773 131.428 107.871 132.514 107.871 133.854Z" fill="url(#paint106_linear_916_6652)"/>
<path d="M122.581 133.854C122.581 135.194 121.483 136.281 120.129 136.281C118.775 136.281 117.677 135.194 117.677 133.854C117.677 132.514 118.775 131.428 120.129 131.428C121.483 131.428 122.581 132.514 122.581 133.854Z" fill="url(#paint107_linear_916_6652)"/>
<path d="M137.29 133.854C137.29 135.194 136.193 136.281 134.839 136.281C133.485 136.281 132.387 135.194 132.387 133.854C132.387 132.514 133.485 131.428 134.839 131.428C136.193 131.428 137.29 132.514 137.29 133.854Z" fill="url(#paint108_linear_916_6652)"/>
<path d="M152 133.854C152 135.194 150.902 136.281 149.548 136.281C148.194 136.281 147.097 135.194 147.097 133.854C147.097 132.514 148.194 131.428 149.548 131.428C150.902 131.428 152 132.514 152 133.854Z" fill="url(#paint109_linear_916_6652)"/>
<path d="M4.90323 148.413C4.90323 149.753 3.8056 150.84 2.45161 150.84C1.09762 150.84 0 149.753 0 148.413C0 147.073 1.09762 145.987 2.45161 145.987C3.8056 145.987 4.90323 147.073 4.90323 148.413Z" fill="url(#paint110_linear_916_6652)"/>
<path d="M19.6129 148.413C19.6129 149.753 18.5153 150.84 17.1613 150.84C15.8073 150.84 14.7097 149.753 14.7097 148.413C14.7097 147.073 15.8073 145.987 17.1613 145.987C18.5153 145.987 19.6129 147.073 19.6129 148.413Z" fill="url(#paint111_linear_916_6652)"/>
<path d="M34.3226 148.413C34.3226 149.753 33.225 150.84 31.871 150.84C30.517 150.84 29.4194 149.753 29.4194 148.413C29.4194 147.073 30.517 145.987 31.871 145.987C33.225 145.987 34.3226 147.073 34.3226 148.413Z" fill="url(#paint112_linear_916_6652)"/>
<path d="M49.0323 148.413C49.0323 149.753 47.9346 150.84 46.5806 150.84C45.2267 150.84 44.129 149.753 44.129 148.413C44.129 147.073 45.2267 145.987 46.5806 145.987C47.9346 145.987 49.0323 147.073 49.0323 148.413Z" fill="url(#paint113_linear_916_6652)"/>
<path d="M63.7419 148.413C63.7419 149.753 62.6443 150.84 61.2903 150.84C59.9363 150.84 58.8387 149.753 58.8387 148.413C58.8387 147.073 59.9363 145.987 61.2903 145.987C62.6443 145.987 63.7419 147.073 63.7419 148.413Z" fill="url(#paint114_linear_916_6652)"/>
<path d="M78.4516 148.413C78.4516 149.753 77.354 150.84 76 150.84C74.646 150.84 73.5484 149.753 73.5484 148.413C73.5484 147.073 74.646 145.987 76 145.987C77.354 145.987 78.4516 147.073 78.4516 148.413Z" fill="url(#paint115_linear_916_6652)"/>
<path d="M93.1613 148.413C93.1613 149.753 92.0637 150.84 90.7097 150.84C89.3557 150.84 88.2581 149.753 88.2581 148.413C88.2581 147.073 89.3557 145.987 90.7097 145.987C92.0637 145.987 93.1613 147.073 93.1613 148.413Z" fill="url(#paint116_linear_916_6652)"/>
<path d="M107.871 148.413C107.871 149.753 106.773 150.84 105.419 150.84C104.065 150.84 102.968 149.753 102.968 148.413C102.968 147.073 104.065 145.987 105.419 145.987C106.773 145.987 107.871 147.073 107.871 148.413Z" fill="url(#paint117_linear_916_6652)"/>
<path d="M122.581 148.413C122.581 149.753 121.483 150.84 120.129 150.84C118.775 150.84 117.677 149.753 117.677 148.413C117.677 147.073 118.775 145.987 120.129 145.987C121.483 145.987 122.581 147.073 122.581 148.413Z" fill="url(#paint118_linear_916_6652)"/>
<path d="M137.29 148.413C137.29 149.753 136.193 150.84 134.839 150.84C133.485 150.84 132.387 149.753 132.387 148.413C132.387 147.073 133.485 145.987 134.839 145.987C136.193 145.987 137.29 147.073 137.29 148.413Z" fill="url(#paint119_linear_916_6652)"/>
<path d="M152 148.413C152 149.753 150.902 150.84 149.548 150.84C148.194 150.84 147.097 149.753 147.097 148.413C147.097 147.073 148.194 145.987 149.548 145.987C150.902 145.987 152 147.073 152 148.413Z" fill="url(#paint120_linear_916_6652)"/>
<path d="M4.90323 162.972C4.90323 164.312 3.8056 165.398 2.45161 165.398C1.09762 165.398 0 164.312 0 162.972C0 161.632 1.09762 160.546 2.45161 160.546C3.8056 160.546 4.90323 161.632 4.90323 162.972Z" fill="url(#paint121_linear_916_6652)"/>
<path d="M19.6129 162.972C19.6129 164.312 18.5153 165.398 17.1613 165.398C15.8073 165.398 14.7097 164.312 14.7097 162.972C14.7097 161.632 15.8073 160.546 17.1613 160.546C18.5153 160.546 19.6129 161.632 19.6129 162.972Z" fill="url(#paint122_linear_916_6652)"/>
<path d="M34.3226 162.972C34.3226 164.312 33.225 165.398 31.871 165.398C30.517 165.398 29.4194 164.312 29.4194 162.972C29.4194 161.632 30.517 160.546 31.871 160.546C33.225 160.546 34.3226 161.632 34.3226 162.972Z" fill="url(#paint123_linear_916_6652)"/>
<path d="M49.0323 162.972C49.0323 164.312 47.9346 165.398 46.5806 165.398C45.2267 165.398 44.129 164.312 44.129 162.972C44.129 161.632 45.2267 160.546 46.5806 160.546C47.9346 160.546 49.0323 161.632 49.0323 162.972Z" fill="url(#paint124_linear_916_6652)"/>
<path d="M63.7419 162.972C63.7419 164.312 62.6443 165.398 61.2903 165.398C59.9363 165.398 58.8387 164.312 58.8387 162.972C58.8387 161.632 59.9363 160.546 61.2903 160.546C62.6443 160.546 63.7419 161.632 63.7419 162.972Z" fill="url(#paint125_linear_916_6652)"/>
<path d="M78.4516 162.972C78.4516 164.312 77.354 165.398 76 165.398C74.646 165.398 73.5484 164.312 73.5484 162.972C73.5484 161.632 74.646 160.546 76 160.546C77.354 160.546 78.4516 161.632 78.4516 162.972Z" fill="url(#paint126_linear_916_6652)"/>
<path d="M93.1613 162.972C93.1613 164.312 92.0637 165.398 90.7097 165.398C89.3557 165.398 88.2581 164.312 88.2581 162.972C88.2581 161.632 89.3557 160.546 90.7097 160.546C92.0637 160.546 93.1613 161.632 93.1613 162.972Z" fill="url(#paint127_linear_916_6652)"/>
<path d="M107.871 162.972C107.871 164.312 106.773 165.398 105.419 165.398C104.065 165.398 102.968 164.312 102.968 162.972C102.968 161.632 104.065 160.546 105.419 160.546C106.773 160.546 107.871 161.632 107.871 162.972Z" fill="url(#paint128_linear_916_6652)"/>
<path d="M122.581 162.972C122.581 164.312 121.483 165.398 120.129 165.398C118.775 165.398 117.677 164.312 117.677 162.972C117.677 161.632 118.775 160.546 120.129 160.546C121.483 160.546 122.581 161.632 122.581 162.972Z" fill="url(#paint129_linear_916_6652)"/>
<path d="M137.29 162.972C137.29 164.312 136.193 165.398 134.839 165.398C133.485 165.398 132.387 164.312 132.387 162.972C132.387 161.632 133.485 160.546 134.839 160.546C136.193 160.546 137.29 161.632 137.29 162.972Z" fill="url(#paint130_linear_916_6652)"/>
<path d="M152 162.972C152 164.312 150.902 165.398 149.548 165.398C148.194 165.398 147.097 164.312 147.097 162.972C147.097 161.632 148.194 160.546 149.548 160.546C150.902 160.546 152 161.632 152 162.972Z" fill="url(#paint131_linear_916_6652)"/>
<defs>
<linearGradient id="paint0_linear_916_6652" x1="76" y1="0.398438" x2="76" y2="165.398" gradientUnits="userSpaceOnUse">
<stop stop-color="#3797D5"/>
<stop offset="1" stop-color="#87C1E6"/>
</linearGradient>
<linearGradient id="paint1_linear_916_6652" x1="76" y1="0.398438" x2="76" y2="165.398" gradientUnits="userSpaceOnUse">
<stop stop-color="#3797D5"/>
<stop offset="1" stop-color="#87C1E6"/>
</linearGradient>
<linearGradient id="paint2_linear_916_6652" x1="76" y1="0.398438" x2="76" y2="165.398" gradientUnits="userSpaceOnUse">
<stop stop-color="#3797D5"/>
<stop offset="1" stop-color="#87C1E6"/>
</linearGradient>
<linearGradient id="paint3_linear_916_6652" x1="76" y1="0.398438" x2="76" y2="165.398" gradientUnits="userSpaceOnUse">
<stop stop-color="#3797D5"/>
<stop offset="1" stop-color="#87C1E6"/>
</linearGradient>
<linearGradient id="paint4_linear_916_6652" x1="76" y1="0.398438" x2="76" y2="165.398" gradientUnits="userSpaceOnUse">
<stop stop-color="#3797D5"/>
<stop offset="1" stop-color="#87C1E6"/>
</linearGradient>
<linearGradient id="paint5_linear_916_6652" x1="76" y1="0.398438" x2="76" y2="165.398" gradientUnits="userSpaceOnUse">
<stop stop-color="#3797D5"/>
<stop offset="1" stop-color="#87C1E6"/>
</linearGradient>
<linearGradient id="paint6_linear_916_6652" x1="76" y1="0.398438" x2="76" y2="165.398" gradientUnits="userSpaceOnUse">
<stop stop-color="#3797D5"/>
<stop offset="1" stop-color="#87C1E6"/>
</linearGradient>
<linearGradient id="paint7_linear_916_6652" x1="76" y1="0.398438" x2="76" y2="165.398" gradientUnits="userSpaceOnUse">
<stop stop-color="#3797D5"/>
<stop offset="1" stop-color="#87C1E6"/>
</linearGradient>
<linearGradient id="paint8_linear_916_6652" x1="76" y1="0.398438" x2="76" y2="165.398" gradientUnits="userSpaceOnUse">
<stop stop-color="#3797D5"/>
<stop offset="1" stop-color="#87C1E6"/>
</linearGradient>
<linearGradient id="paint9_linear_916_6652" x1="76" y1="0.398438" x2="76" y2="165.398" gradientUnits="userSpaceOnUse">
<stop stop-color="#3797D5"/>
<stop offset="1" stop-color="#87C1E6"/>
</linearGradient>
<linearGradient id="paint10_linear_916_6652" x1="76" y1="0.398438" x2="76" y2="165.398" gradientUnits="userSpaceOnUse">
<stop stop-color="#3797D5"/>
<stop offset="1" stop-color="#87C1E6"/>
</linearGradient>
<linearGradient id="paint11_linear_916_6652" x1="76" y1="0.398438" x2="76" y2="165.398" gradientUnits="userSpaceOnUse">
<stop stop-color="#3797D5"/>
<stop offset="1" stop-color="#87C1E6"/>
</linearGradient>
<linearGradient id="paint12_linear_916_6652" x1="76" y1="0.398438" x2="76" y2="165.398" gradientUnits="userSpaceOnUse">
<stop stop-color="#3797D5"/>
<stop offset="1" stop-color="#87C1E6"/>
</linearGradient>
<linearGradient id="paint13_linear_916_6652" x1="76" y1="0.398438" x2="76" y2="165.398" gradientUnits="userSpaceOnUse">
<stop stop-color="#3797D5"/>
<stop offset="1" stop-color="#87C1E6"/>
</linearGradient>
<linearGradient id="paint14_linear_916_6652" x1="76" y1="0.398438" x2="76" y2="165.398" gradientUnits="userSpaceOnUse">
<stop stop-color="#3797D5"/>
<stop offset="1" stop-color="#87C1E6"/>
</linearGradient>
<linearGradient id="paint15_linear_916_6652" x1="76" y1="0.398438" x2="76" y2="165.398" gradientUnits="userSpaceOnUse">
<stop stop-color="#3797D5"/>
<stop offset="1" stop-color="#87C1E6"/>
</linearGradient>
<linearGradient id="paint16_linear_916_6652" x1="76" y1="0.398438" x2="76" y2="165.398" gradientUnits="userSpaceOnUse">
<stop stop-color="#3797D5"/>
<stop offset="1" stop-color="#87C1E6"/>
</linearGradient>
<linearGradient id="paint17_linear_916_6652" x1="76" y1="0.398438" x2="76" y2="165.398" gradientUnits="userSpaceOnUse">
<stop stop-color="#3797D5"/>
<stop offset="1" stop-color="#87C1E6"/>
</linearGradient>
<linearGradient id="paint18_linear_916_6652" x1="76" y1="0.398438" x2="76" y2="165.398" gradientUnits="userSpaceOnUse">
<stop stop-color="#3797D5"/>
<stop offset="1" stop-color="#87C1E6"/>
</linearGradient>
<linearGradient id="paint19_linear_916_6652" x1="76" y1="0.398438" x2="76" y2="165.398" gradientUnits="userSpaceOnUse">
<stop stop-color="#3797D5"/>
<stop offset="1" stop-color="#87C1E6"/>
</linearGradient>
<linearGradient id="paint20_linear_916_6652" x1="76" y1="0.398438" x2="76" y2="165.398" gradientUnits="userSpaceOnUse">
<stop stop-color="#3797D5"/>
<stop offset="1" stop-color="#87C1E6"/>
</linearGradient>
<linearGradient id="paint21_linear_916_6652" x1="76" y1="0.398438" x2="76" y2="165.398" gradientUnits="userSpaceOnUse">
<stop stop-color="#3797D5"/>
<stop offset="1" stop-color="#87C1E6"/>
</linearGradient>
<linearGradient id="paint22_linear_916_6652" x1="76" y1="0.398438" x2="76" y2="165.398" gradientUnits="userSpaceOnUse">
<stop stop-color="#3797D5"/>
<stop offset="1" stop-color="#87C1E6"/>
</linearGradient>
<linearGradient id="paint23_linear_916_6652" x1="76" y1="0.398438" x2="76" y2="165.398" gradientUnits="userSpaceOnUse">
<stop stop-color="#3797D5"/>
<stop offset="1" stop-color="#87C1E6"/>
</linearGradient>
<linearGradient id="paint24_linear_916_6652" x1="76" y1="0.398438" x2="76" y2="165.398" gradientUnits="userSpaceOnUse">
<stop stop-color="#3797D5"/>
<stop offset="1" stop-color="#87C1E6"/>
</linearGradient>
<linearGradient id="paint25_linear_916_6652" x1="76" y1="0.398438" x2="76" y2="165.398" gradientUnits="userSpaceOnUse">
<stop stop-color="#3797D5"/>
<stop offset="1" stop-color="#87C1E6"/>
</linearGradient>
<linearGradient id="paint26_linear_916_6652" x1="76" y1="0.398438" x2="76" y2="165.398" gradientUnits="userSpaceOnUse">
<stop stop-color="#3797D5"/>
<stop offset="1" stop-color="#87C1E6"/>
</linearGradient>
<linearGradient id="paint27_linear_916_6652" x1="76" y1="0.398438" x2="76" y2="165.398" gradientUnits="userSpaceOnUse">
<stop stop-color="#3797D5"/>
<stop offset="1" stop-color="#87C1E6"/>
</linearGradient>
<linearGradient id="paint28_linear_916_6652" x1="76" y1="0.398438" x2="76" y2="165.398" gradientUnits="userSpaceOnUse">
<stop stop-color="#3797D5"/>
<stop offset="1" stop-color="#87C1E6"/>
</linearGradient>
<linearGradient id="paint29_linear_916_6652" x1="76" y1="0.398438" x2="76" y2="165.398" gradientUnits="userSpaceOnUse">
<stop stop-color="#3797D5"/>
<stop offset="1" stop-color="#87C1E6"/>
</linearGradient>
<linearGradient id="paint30_linear_916_6652" x1="76" y1="0.398438" x2="76" y2="165.398" gradientUnits="userSpaceOnUse">
<stop stop-color="#3797D5"/>
<stop offset="1" stop-color="#87C1E6"/>
</linearGradient>
<linearGradient id="paint31_linear_916_6652" x1="76" y1="0.398438" x2="76" y2="165.398" gradientUnits="userSpaceOnUse">
<stop stop-color="#3797D5"/>
<stop offset="1" stop-color="#87C1E6"/>
</linearGradient>
<linearGradient id="paint32_linear_916_6652" x1="76" y1="0.398438" x2="76" y2="165.398" gradientUnits="userSpaceOnUse">
<stop stop-color="#3797D5"/>
<stop offset="1" stop-color="#87C1E6"/>
</linearGradient>
<linearGradient id="paint33_linear_916_6652" x1="76" y1="0.398438" x2="76" y2="165.398" gradientUnits="userSpaceOnUse">
<stop stop-color="#3797D5"/>
<stop offset="1" stop-color="#87C1E6"/>
</linearGradient>
<linearGradient id="paint34_linear_916_6652" x1="76" y1="0.398438" x2="76" y2="165.398" gradientUnits="userSpaceOnUse">
<stop stop-color="#3797D5"/>
<stop offset="1" stop-color="#87C1E6"/>
</linearGradient>
<linearGradient id="paint35_linear_916_6652" x1="76" y1="0.398438" x2="76" y2="165.398" gradientUnits="userSpaceOnUse">
<stop stop-color="#3797D5"/>
<stop offset="1" stop-color="#87C1E6"/>
</linearGradient>
<linearGradient id="paint36_linear_916_6652" x1="76" y1="0.398438" x2="76" y2="165.398" gradientUnits="userSpaceOnUse">
<stop stop-color="#3797D5"/>
<stop offset="1" stop-color="#87C1E6"/>
</linearGradient>
<linearGradient id="paint37_linear_916_6652" x1="76" y1="0.398438" x2="76" y2="165.398" gradientUnits="userSpaceOnUse">
<stop stop-color="#3797D5"/>
<stop offset="1" stop-color="#87C1E6"/>
</linearGradient>
<linearGradient id="paint38_linear_916_6652" x1="76" y1="0.398438" x2="76" y2="165.398" gradientUnits="userSpaceOnUse">
<stop stop-color="#3797D5"/>
<stop offset="1" stop-color="#87C1E6"/>
</linearGradient>
<linearGradient id="paint39_linear_916_6652" x1="76" y1="0.398438" x2="76" y2="165.398" gradientUnits="userSpaceOnUse">
<stop stop-color="#3797D5"/>
<stop offset="1" stop-color="#87C1E6"/>
</linearGradient>
<linearGradient id="paint40_linear_916_6652" x1="76" y1="0.398438" x2="76" y2="165.398" gradientUnits="userSpaceOnUse">
<stop stop-color="#3797D5"/>
<stop offset="1" stop-color="#87C1E6"/>
</linearGradient>
<linearGradient id="paint41_linear_916_6652" x1="76" y1="0.398438" x2="76" y2="165.398" gradientUnits="userSpaceOnUse">
<stop stop-color="#3797D5"/>
<stop offset="1" stop-color="#87C1E6"/>
</linearGradient>
<linearGradient id="paint42_linear_916_6652" x1="76" y1="0.398438" x2="76" y2="165.398" gradientUnits="userSpaceOnUse">
<stop stop-color="#3797D5"/>
<stop offset="1" stop-color="#87C1E6"/>
</linearGradient>
<linearGradient id="paint43_linear_916_6652" x1="76" y1="0.398438" x2="76" y2="165.398" gradientUnits="userSpaceOnUse">
<stop stop-color="#3797D5"/>
<stop offset="1" stop-color="#87C1E6"/>
</linearGradient>
<linearGradient id="paint44_linear_916_6652" x1="76" y1="0.398438" x2="76" y2="165.398" gradientUnits="userSpaceOnUse">
<stop stop-color="#3797D5"/>
<stop offset="1" stop-color="#87C1E6"/>
</linearGradient>
<linearGradient id="paint45_linear_916_6652" x1="76" y1="0.398438" x2="76" y2="165.398" gradientUnits="userSpaceOnUse">
<stop stop-color="#3797D5"/>
<stop offset="1" stop-color="#87C1E6"/>
</linearGradient>
<linearGradient id="paint46_linear_916_6652" x1="76" y1="0.398438" x2="76" y2="165.398" gradientUnits="userSpaceOnUse">
<stop stop-color="#3797D5"/>
<stop offset="1" stop-color="#87C1E6"/>
</linearGradient>
<linearGradient id="paint47_linear_916_6652" x1="76" y1="0.398438" x2="76" y2="165.398" gradientUnits="userSpaceOnUse">
<stop stop-color="#3797D5"/>
<stop offset="1" stop-color="#87C1E6"/>
</linearGradient>
<linearGradient id="paint48_linear_916_6652" x1="76" y1="0.398438" x2="76" y2="165.398" gradientUnits="userSpaceOnUse">
<stop stop-color="#3797D5"/>
<stop offset="1" stop-color="#87C1E6"/>
</linearGradient>
<linearGradient id="paint49_linear_916_6652" x1="76" y1="0.398438" x2="76" y2="165.398" gradientUnits="userSpaceOnUse">
<stop stop-color="#3797D5"/>
<stop offset="1" stop-color="#87C1E6"/>
</linearGradient>
<linearGradient id="paint50_linear_916_6652" x1="76" y1="0.398438" x2="76" y2="165.398" gradientUnits="userSpaceOnUse">
<stop stop-color="#3797D5"/>
<stop offset="1" stop-color="#87C1E6"/>
</linearGradient>
<linearGradient id="paint51_linear_916_6652" x1="76" y1="0.398438" x2="76" y2="165.398" gradientUnits="userSpaceOnUse">
<stop stop-color="#3797D5"/>
<stop offset="1" stop-color="#87C1E6"/>
</linearGradient>
<linearGradient id="paint52_linear_916_6652" x1="76" y1="0.398438" x2="76" y2="165.398" gradientUnits="userSpaceOnUse">
<stop stop-color="#3797D5"/>
<stop offset="1" stop-color="#87C1E6"/>
</linearGradient>
<linearGradient id="paint53_linear_916_6652" x1="76" y1="0.398438" x2="76" y2="165.398" gradientUnits="userSpaceOnUse">
<stop stop-color="#3797D5"/>
<stop offset="1" stop-color="#87C1E6"/>
</linearGradient>
<linearGradient id="paint54_linear_916_6652" x1="76" y1="0.398438" x2="76" y2="165.398" gradientUnits="userSpaceOnUse">
<stop stop-color="#3797D5"/>
<stop offset="1" stop-color="#87C1E6"/>
</linearGradient>
<linearGradient id="paint55_linear_916_6652" x1="76" y1="0.398438" x2="76" y2="165.398" gradientUnits="userSpaceOnUse">
<stop stop-color="#3797D5"/>
<stop offset="1" stop-color="#87C1E6"/>
</linearGradient>
<linearGradient id="paint56_linear_916_6652" x1="76" y1="0.398438" x2="76" y2="165.398" gradientUnits="userSpaceOnUse">
<stop stop-color="#3797D5"/>
<stop offset="1" stop-color="#87C1E6"/>
</linearGradient>
<linearGradient id="paint57_linear_916_6652" x1="76" y1="0.398438" x2="76" y2="165.398" gradientUnits="userSpaceOnUse">
<stop stop-color="#3797D5"/>
<stop offset="1" stop-color="#87C1E6"/>
</linearGradient>
<linearGradient id="paint58_linear_916_6652" x1="76" y1="0.398438" x2="76" y2="165.398" gradientUnits="userSpaceOnUse">
<stop stop-color="#3797D5"/>
<stop offset="1" stop-color="#87C1E6"/>
</linearGradient>
<linearGradient id="paint59_linear_916_6652" x1="76" y1="0.398438" x2="76" y2="165.398" gradientUnits="userSpaceOnUse">
<stop stop-color="#3797D5"/>
<stop offset="1" stop-color="#87C1E6"/>
</linearGradient>
<linearGradient id="paint60_linear_916_6652" x1="76" y1="0.398438" x2="76" y2="165.398" gradientUnits="userSpaceOnUse">
<stop stop-color="#3797D5"/>
<stop offset="1" stop-color="#87C1E6"/>
</linearGradient>
<linearGradient id="paint61_linear_916_6652" x1="76" y1="0.398438" x2="76" y2="165.398" gradientUnits="userSpaceOnUse">
<stop stop-color="#3797D5"/>
<stop offset="1" stop-color="#87C1E6"/>
</linearGradient>
<linearGradient id="paint62_linear_916_6652" x1="76" y1="0.398438" x2="76" y2="165.398" gradientUnits="userSpaceOnUse">
<stop stop-color="#3797D5"/>
<stop offset="1" stop-color="#87C1E6"/>
</linearGradient>
<linearGradient id="paint63_linear_916_6652" x1="76" y1="0.398438" x2="76" y2="165.398" gradientUnits="userSpaceOnUse">
<stop stop-color="#3797D5"/>
<stop offset="1" stop-color="#87C1E6"/>
</linearGradient>
<linearGradient id="paint64_linear_916_6652" x1="76" y1="0.398438" x2="76" y2="165.398" gradientUnits="userSpaceOnUse">
<stop stop-color="#3797D5"/>
<stop offset="1" stop-color="#87C1E6"/>
</linearGradient>
<linearGradient id="paint65_linear_916_6652" x1="76" y1="0.398438" x2="76" y2="165.398" gradientUnits="userSpaceOnUse">
<stop stop-color="#3797D5"/>
<stop offset="1" stop-color="#87C1E6"/>
</linearGradient>
<linearGradient id="paint66_linear_916_6652" x1="76" y1="0.398438" x2="76" y2="165.398" gradientUnits="userSpaceOnUse">
<stop stop-color="#3797D5"/>
<stop offset="1" stop-color="#87C1E6"/>
</linearGradient>
<linearGradient id="paint67_linear_916_6652" x1="76" y1="0.398438" x2="76" y2="165.398" gradientUnits="userSpaceOnUse">
<stop stop-color="#3797D5"/>
<stop offset="1" stop-color="#87C1E6"/>
</linearGradient>
<linearGradient id="paint68_linear_916_6652" x1="76" y1="0.398438" x2="76" y2="165.398" gradientUnits="userSpaceOnUse">
<stop stop-color="#3797D5"/>
<stop offset="1" stop-color="#87C1E6"/>
</linearGradient>
<linearGradient id="paint69_linear_916_6652" x1="76" y1="0.398438" x2="76" y2="165.398" gradientUnits="userSpaceOnUse">
<stop stop-color="#3797D5"/>
<stop offset="1" stop-color="#87C1E6"/>
</linearGradient>
<linearGradient id="paint70_linear_916_6652" x1="76" y1="0.398438" x2="76" y2="165.398" gradientUnits="userSpaceOnUse">
<stop stop-color="#3797D5"/>
<stop offset="1" stop-color="#87C1E6"/>
</linearGradient>
<linearGradient id="paint71_linear_916_6652" x1="76" y1="0.398438" x2="76" y2="165.398" gradientUnits="userSpaceOnUse">
<stop stop-color="#3797D5"/>
<stop offset="1" stop-color="#87C1E6"/>
</linearGradient>
<linearGradient id="paint72_linear_916_6652" x1="76" y1="0.398438" x2="76" y2="165.398" gradientUnits="userSpaceOnUse">
<stop stop-color="#3797D5"/>
<stop offset="1" stop-color="#87C1E6"/>
</linearGradient>
<linearGradient id="paint73_linear_916_6652" x1="76" y1="0.398438" x2="76" y2="165.398" gradientUnits="userSpaceOnUse">
<stop stop-color="#3797D5"/>
<stop offset="1" stop-color="#87C1E6"/>
</linearGradient>
<linearGradient id="paint74_linear_916_6652" x1="76" y1="0.398438" x2="76" y2="165.398" gradientUnits="userSpaceOnUse">
<stop stop-color="#3797D5"/>
<stop offset="1" stop-color="#87C1E6"/>
</linearGradient>
<linearGradient id="paint75_linear_916_6652" x1="76" y1="0.398438" x2="76" y2="165.398" gradientUnits="userSpaceOnUse">
<stop stop-color="#3797D5"/>
<stop offset="1" stop-color="#87C1E6"/>
</linearGradient>
<linearGradient id="paint76_linear_916_6652" x1="76" y1="0.398438" x2="76" y2="165.398" gradientUnits="userSpaceOnUse">
<stop stop-color="#3797D5"/>
<stop offset="1" stop-color="#87C1E6"/>
</linearGradient>
<linearGradient id="paint77_linear_916_6652" x1="76" y1="0.398438" x2="76" y2="165.398" gradientUnits="userSpaceOnUse">
<stop stop-color="#3797D5"/>
<stop offset="1" stop-color="#87C1E6"/>
</linearGradient>
<linearGradient id="paint78_linear_916_6652" x1="76" y1="0.398438" x2="76" y2="165.398" gradientUnits="userSpaceOnUse">
<stop stop-color="#3797D5"/>
<stop offset="1" stop-color="#87C1E6"/>
</linearGradient>
<linearGradient id="paint79_linear_916_6652" x1="76" y1="0.398438" x2="76" y2="165.398" gradientUnits="userSpaceOnUse">
<stop stop-color="#3797D5"/>
<stop offset="1" stop-color="#87C1E6"/>
</linearGradient>
<linearGradient id="paint80_linear_916_6652" x1="76" y1="0.398438" x2="76" y2="165.398" gradientUnits="userSpaceOnUse">
<stop stop-color="#3797D5"/>
<stop offset="1" stop-color="#87C1E6"/>
</linearGradient>
<linearGradient id="paint81_linear_916_6652" x1="76" y1="0.398438" x2="76" y2="165.398" gradientUnits="userSpaceOnUse">
<stop stop-color="#3797D5"/>
<stop offset="1" stop-color="#87C1E6"/>
</linearGradient>
<linearGradient id="paint82_linear_916_6652" x1="76" y1="0.398438" x2="76" y2="165.398" gradientUnits="userSpaceOnUse">
<stop stop-color="#3797D5"/>
<stop offset="1" stop-color="#87C1E6"/>
</linearGradient>
<linearGradient id="paint83_linear_916_6652" x1="76" y1="0.398438" x2="76" y2="165.398" gradientUnits="userSpaceOnUse">
<stop stop-color="#3797D5"/>
<stop offset="1" stop-color="#87C1E6"/>
</linearGradient>
<linearGradient id="paint84_linear_916_6652" x1="76" y1="0.398438" x2="76" y2="165.398" gradientUnits="userSpaceOnUse">
<stop stop-color="#3797D5"/>
<stop offset="1" stop-color="#87C1E6"/>
</linearGradient>
<linearGradient id="paint85_linear_916_6652" x1="76" y1="0.398438" x2="76" y2="165.398" gradientUnits="userSpaceOnUse">
<stop stop-color="#3797D5"/>
<stop offset="1" stop-color="#87C1E6"/>
</linearGradient>
<linearGradient id="paint86_linear_916_6652" x1="76" y1="0.398438" x2="76" y2="165.398" gradientUnits="userSpaceOnUse">
<stop stop-color="#3797D5"/>
<stop offset="1" stop-color="#87C1E6"/>
</linearGradient>
<linearGradient id="paint87_linear_916_6652" x1="76" y1="0.398438" x2="76" y2="165.398" gradientUnits="userSpaceOnUse">
<stop stop-color="#3797D5"/>
<stop offset="1" stop-color="#87C1E6"/>
</linearGradient>
<linearGradient id="paint88_linear_916_6652" x1="76" y1="0.398438" x2="76" y2="165.398" gradientUnits="userSpaceOnUse">
<stop stop-color="#3797D5"/>
<stop offset="1" stop-color="#87C1E6"/>
</linearGradient>
<linearGradient id="paint89_linear_916_6652" x1="76" y1="0.398438" x2="76" y2="165.398" gradientUnits="userSpaceOnUse">
<stop stop-color="#3797D5"/>
<stop offset="1" stop-color="#87C1E6"/>
</linearGradient>
<linearGradient id="paint90_linear_916_6652" x1="76" y1="0.398438" x2="76" y2="165.398" gradientUnits="userSpaceOnUse">
<stop stop-color="#3797D5"/>
<stop offset="1" stop-color="#87C1E6"/>
</linearGradient>
<linearGradient id="paint91_linear_916_6652" x1="76" y1="0.398438" x2="76" y2="165.398" gradientUnits="userSpaceOnUse">
<stop stop-color="#3797D5"/>
<stop offset="1" stop-color="#87C1E6"/>
</linearGradient>
<linearGradient id="paint92_linear_916_6652" x1="76" y1="0.398438" x2="76" y2="165.398" gradientUnits="userSpaceOnUse">
<stop stop-color="#3797D5"/>
<stop offset="1" stop-color="#87C1E6"/>
</linearGradient>
<linearGradient id="paint93_linear_916_6652" x1="76" y1="0.398438" x2="76" y2="165.398" gradientUnits="userSpaceOnUse">
<stop stop-color="#3797D5"/>
<stop offset="1" stop-color="#87C1E6"/>
</linearGradient>
<linearGradient id="paint94_linear_916_6652" x1="76" y1="0.398438" x2="76" y2="165.398" gradientUnits="userSpaceOnUse">
<stop stop-color="#3797D5"/>
<stop offset="1" stop-color="#87C1E6"/>
</linearGradient>
<linearGradient id="paint95_linear_916_6652" x1="76" y1="0.398438" x2="76" y2="165.398" gradientUnits="userSpaceOnUse">
<stop stop-color="#3797D5"/>
<stop offset="1" stop-color="#87C1E6"/>
</linearGradient>
<linearGradient id="paint96_linear_916_6652" x1="76" y1="0.398438" x2="76" y2="165.398" gradientUnits="userSpaceOnUse">
<stop stop-color="#3797D5"/>
<stop offset="1" stop-color="#87C1E6"/>
</linearGradient>
<linearGradient id="paint97_linear_916_6652" x1="76" y1="0.398438" x2="76" y2="165.398" gradientUnits="userSpaceOnUse">
<stop stop-color="#3797D5"/>
<stop offset="1" stop-color="#87C1E6"/>
</linearGradient>
<linearGradient id="paint98_linear_916_6652" x1="76" y1="0.398438" x2="76" y2="165.398" gradientUnits="userSpaceOnUse">
<stop stop-color="#3797D5"/>
<stop offset="1" stop-color="#87C1E6"/>
</linearGradient>
<linearGradient id="paint99_linear_916_6652" x1="76" y1="0.398438" x2="76" y2="165.398" gradientUnits="userSpaceOnUse">
<stop stop-color="#3797D5"/>
<stop offset="1" stop-color="#87C1E6"/>
</linearGradient>
<linearGradient id="paint100_linear_916_6652" x1="76" y1="0.398438" x2="76" y2="165.398" gradientUnits="userSpaceOnUse">
<stop stop-color="#3797D5"/>
<stop offset="1" stop-color="#87C1E6"/>
</linearGradient>
<linearGradient id="paint101_linear_916_6652" x1="76" y1="0.398438" x2="76" y2="165.398" gradientUnits="userSpaceOnUse">
<stop stop-color="#3797D5"/>
<stop offset="1" stop-color="#87C1E6"/>
</linearGradient>
<linearGradient id="paint102_linear_916_6652" x1="76" y1="0.398438" x2="76" y2="165.398" gradientUnits="userSpaceOnUse">
<stop stop-color="#3797D5"/>
<stop offset="1" stop-color="#87C1E6"/>
</linearGradient>
<linearGradient id="paint103_linear_916_6652" x1="76" y1="0.398438" x2="76" y2="165.398" gradientUnits="userSpaceOnUse">
<stop stop-color="#3797D5"/>
<stop offset="1" stop-color="#87C1E6"/>
</linearGradient>
<linearGradient id="paint104_linear_916_6652" x1="76" y1="0.398438" x2="76" y2="165.398" gradientUnits="userSpaceOnUse">
<stop stop-color="#3797D5"/>
<stop offset="1" stop-color="#87C1E6"/>
</linearGradient>
<linearGradient id="paint105_linear_916_6652" x1="76" y1="0.398438" x2="76" y2="165.398" gradientUnits="userSpaceOnUse">
<stop stop-color="#3797D5"/>
<stop offset="1" stop-color="#87C1E6"/>
</linearGradient>
<linearGradient id="paint106_linear_916_6652" x1="76" y1="0.398438" x2="76" y2="165.398" gradientUnits="userSpaceOnUse">
<stop stop-color="#3797D5"/>
<stop offset="1" stop-color="#87C1E6"/>
</linearGradient>
<linearGradient id="paint107_linear_916_6652" x1="76" y1="0.398438" x2="76" y2="165.398" gradientUnits="userSpaceOnUse">
<stop stop-color="#3797D5"/>
<stop offset="1" stop-color="#87C1E6"/>
</linearGradient>
<linearGradient id="paint108_linear_916_6652" x1="76" y1="0.398438" x2="76" y2="165.398" gradientUnits="userSpaceOnUse">
<stop stop-color="#3797D5"/>
<stop offset="1" stop-color="#87C1E6"/>
</linearGradient>
<linearGradient id="paint109_linear_916_6652" x1="76" y1="0.398438" x2="76" y2="165.398" gradientUnits="userSpaceOnUse">
<stop stop-color="#3797D5"/>
<stop offset="1" stop-color="#87C1E6"/>
</linearGradient>
<linearGradient id="paint110_linear_916_6652" x1="76" y1="0.398438" x2="76" y2="165.398" gradientUnits="userSpaceOnUse">
<stop stop-color="#3797D5"/>
<stop offset="1" stop-color="#87C1E6"/>
</linearGradient>
<linearGradient id="paint111_linear_916_6652" x1="76" y1="0.398438" x2="76" y2="165.398" gradientUnits="userSpaceOnUse">
<stop stop-color="#3797D5"/>
<stop offset="1" stop-color="#87C1E6"/>
</linearGradient>
<linearGradient id="paint112_linear_916_6652" x1="76" y1="0.398438" x2="76" y2="165.398" gradientUnits="userSpaceOnUse">
<stop stop-color="#3797D5"/>
<stop offset="1" stop-color="#87C1E6"/>
</linearGradient>
<linearGradient id="paint113_linear_916_6652" x1="76" y1="0.398438" x2="76" y2="165.398" gradientUnits="userSpaceOnUse">
<stop stop-color="#3797D5"/>
<stop offset="1" stop-color="#87C1E6"/>
</linearGradient>
<linearGradient id="paint114_linear_916_6652" x1="76" y1="0.398438" x2="76" y2="165.398" gradientUnits="userSpaceOnUse">
<stop stop-color="#3797D5"/>
<stop offset="1" stop-color="#87C1E6"/>
</linearGradient>
<linearGradient id="paint115_linear_916_6652" x1="76" y1="0.398438" x2="76" y2="165.398" gradientUnits="userSpaceOnUse">
<stop stop-color="#3797D5"/>
<stop offset="1" stop-color="#87C1E6"/>
</linearGradient>
<linearGradient id="paint116_linear_916_6652" x1="76" y1="0.398438" x2="76" y2="165.398" gradientUnits="userSpaceOnUse">
<stop stop-color="#3797D5"/>
<stop offset="1" stop-color="#87C1E6"/>
</linearGradient>
<linearGradient id="paint117_linear_916_6652" x1="76" y1="0.398438" x2="76" y2="165.398" gradientUnits="userSpaceOnUse">
<stop stop-color="#3797D5"/>
<stop offset="1" stop-color="#87C1E6"/>
</linearGradient>
<linearGradient id="paint118_linear_916_6652" x1="76" y1="0.398438" x2="76" y2="165.398" gradientUnits="userSpaceOnUse">
<stop stop-color="#3797D5"/>
<stop offset="1" stop-color="#87C1E6"/>
</linearGradient>
<linearGradient id="paint119_linear_916_6652" x1="76" y1="0.398438" x2="76" y2="165.398" gradientUnits="userSpaceOnUse">
<stop stop-color="#3797D5"/>
<stop offset="1" stop-color="#87C1E6"/>
</linearGradient>
<linearGradient id="paint120_linear_916_6652" x1="76" y1="0.398438" x2="76" y2="165.398" gradientUnits="userSpaceOnUse">
<stop stop-color="#3797D5"/>
<stop offset="1" stop-color="#87C1E6"/>
</linearGradient>
<linearGradient id="paint121_linear_916_6652" x1="76" y1="0.398438" x2="76" y2="165.398" gradientUnits="userSpaceOnUse">
<stop stop-color="#3797D5"/>
<stop offset="1" stop-color="#87C1E6"/>
</linearGradient>
<linearGradient id="paint122_linear_916_6652" x1="76" y1="0.398438" x2="76" y2="165.398" gradientUnits="userSpaceOnUse">
<stop stop-color="#3797D5"/>
<stop offset="1" stop-color="#87C1E6"/>
</linearGradient>
<linearGradient id="paint123_linear_916_6652" x1="76" y1="0.398438" x2="76" y2="165.398" gradientUnits="userSpaceOnUse">
<stop stop-color="#3797D5"/>
<stop offset="1" stop-color="#87C1E6"/>
</linearGradient>
<linearGradient id="paint124_linear_916_6652" x1="76" y1="0.398438" x2="76" y2="165.398" gradientUnits="userSpaceOnUse">
<stop stop-color="#3797D5"/>
<stop offset="1" stop-color="#87C1E6"/>
</linearGradient>
<linearGradient id="paint125_linear_916_6652" x1="76" y1="0.398438" x2="76" y2="165.398" gradientUnits="userSpaceOnUse">
<stop stop-color="#3797D5"/>
<stop offset="1" stop-color="#87C1E6"/>
</linearGradient>
<linearGradient id="paint126_linear_916_6652" x1="76" y1="0.398438" x2="76" y2="165.398" gradientUnits="userSpaceOnUse">
<stop stop-color="#3797D5"/>
<stop offset="1" stop-color="#87C1E6"/>
</linearGradient>
<linearGradient id="paint127_linear_916_6652" x1="76" y1="0.398438" x2="76" y2="165.398" gradientUnits="userSpaceOnUse">
<stop stop-color="#3797D5"/>
<stop offset="1" stop-color="#87C1E6"/>
</linearGradient>
<linearGradient id="paint128_linear_916_6652" x1="76" y1="0.398438" x2="76" y2="165.398" gradientUnits="userSpaceOnUse">
<stop stop-color="#3797D5"/>
<stop offset="1" stop-color="#87C1E6"/>
</linearGradient>
<linearGradient id="paint129_linear_916_6652" x1="76" y1="0.398438" x2="76" y2="165.398" gradientUnits="userSpaceOnUse">
<stop stop-color="#3797D5"/>
<stop offset="1" stop-color="#87C1E6"/>
</linearGradient>
<linearGradient id="paint130_linear_916_6652" x1="76" y1="0.398438" x2="76" y2="165.398" gradientUnits="userSpaceOnUse">
<stop stop-color="#3797D5"/>
<stop offset="1" stop-color="#87C1E6"/>
</linearGradient>
<linearGradient id="paint131_linear_916_6652" x1="76" y1="0.398438" x2="76" y2="165.398" gradientUnits="userSpaceOnUse">
<stop stop-color="#3797D5"/>
<stop offset="1" stop-color="#87C1E6"/>
</linearGradient>
</defs>
</svg>
