<svg xmlns="http://www.w3.org/2000/svg" width="152" height="166" fill="none"><path fill="url(#a)" d="M4.903 2.825c0 1.34-1.097 2.426-2.451 2.426S0 4.165 0 2.825 1.098.398 2.452.398s2.451 1.087 2.451 2.427"/><path fill="url(#b)" d="M19.613 2.825c0 1.34-1.098 2.426-2.452 2.426S14.71 4.165 14.71 2.825 15.807.398 17.16.398s2.452 1.087 2.452 2.427"/><path fill="url(#c)" d="M34.323 2.825c0 1.34-1.098 2.426-2.452 2.426s-2.452-1.086-2.452-2.426S30.517.398 31.871.398s2.452 1.087 2.452 2.427"/><path fill="url(#d)" d="M49.032 2.825c0 1.34-1.097 2.426-2.451 2.426s-2.452-1.086-2.452-2.426S45.227.398 46.581.398s2.451 1.087 2.451 2.427"/><path fill="url(#e)" d="M63.742 2.825c0 1.34-1.098 2.426-2.452 2.426S58.84 4.165 58.84 2.825 59.936.398 61.29.398s2.452 1.087 2.452 2.427"/><path fill="url(#f)" d="M78.452 2.825c0 1.34-1.098 2.426-2.452 2.426s-2.452-1.086-2.452-2.426S74.646.398 76 .398s2.452 1.087 2.452 2.427"/><path fill="url(#g)" d="M93.161 2.825c0 1.34-1.097 2.426-2.451 2.426s-2.452-1.086-2.452-2.426S89.356.398 90.71.398s2.451 1.087 2.451 2.427"/><path fill="url(#h)" d="M107.871 2.825c0 1.34-1.098 2.426-2.452 2.426s-2.451-1.086-2.451-2.426 1.097-2.427 2.451-2.427 2.452 1.087 2.452 2.427"/><path fill="url(#i)" d="M122.581 2.825c0 1.34-1.098 2.426-2.452 2.426s-2.452-1.086-2.452-2.426 1.098-2.427 2.452-2.427 2.452 1.087 2.452 2.427"/><path fill="url(#j)" d="M137.29 2.825c0 1.34-1.097 2.426-2.451 2.426s-2.452-1.086-2.452-2.426 1.098-2.427 2.452-2.427 2.451 1.087 2.451 2.427"/><path fill="url(#k)" d="M152 2.825c0 1.34-1.098 2.426-2.452 2.426s-2.451-1.086-2.451-2.426 1.097-2.427 2.451-2.427S152 1.485 152 2.825"/><path fill="url(#l)" d="M4.903 17.384c0 1.34-1.097 2.426-2.451 2.426S0 18.724 0 17.384s1.098-2.427 2.452-2.427 2.451 1.087 2.451 2.427"/><path fill="url(#m)" d="M19.613 17.384c0 1.34-1.098 2.426-2.452 2.426s-2.451-1.086-2.451-2.426 1.097-2.427 2.451-2.427 2.452 1.087 2.452 2.427"/><path fill="url(#n)" d="M34.323 17.384c0 1.34-1.098 2.426-2.452 2.426s-2.452-1.086-2.452-2.426 1.098-2.427 2.452-2.427 2.452 1.087 2.452 2.427"/><path fill="url(#o)" d="M49.032 17.384c0 1.34-1.097 2.426-2.451 2.426s-2.452-1.086-2.452-2.426 1.098-2.427 2.452-2.427 2.451 1.087 2.451 2.427"/><path fill="url(#p)" d="M63.742 17.384c0 1.34-1.098 2.426-2.452 2.426s-2.451-1.086-2.451-2.426 1.097-2.427 2.451-2.427 2.452 1.087 2.452 2.427"/><path fill="url(#q)" d="M78.452 17.384c0 1.34-1.098 2.426-2.452 2.426s-2.452-1.086-2.452-2.426 1.098-2.427 2.452-2.427 2.452 1.087 2.452 2.427"/><path fill="url(#r)" d="M93.161 17.384c0 1.34-1.097 2.426-2.451 2.426s-2.452-1.086-2.452-2.426 1.098-2.427 2.452-2.427 2.451 1.087 2.451 2.427"/><path fill="url(#s)" d="M107.871 17.384c0 1.34-1.098 2.426-2.452 2.426s-2.451-1.086-2.451-2.426 1.097-2.427 2.451-2.427 2.452 1.087 2.452 2.427"/><path fill="url(#t)" d="M122.581 17.384c0 1.34-1.098 2.426-2.452 2.426s-2.452-1.086-2.452-2.426 1.098-2.427 2.452-2.427 2.452 1.087 2.452 2.427"/><path fill="url(#u)" d="M137.29 17.384c0 1.34-1.097 2.426-2.451 2.426s-2.452-1.086-2.452-2.426 1.098-2.427 2.452-2.427 2.451 1.087 2.451 2.427"/><path fill="url(#v)" d="M152 17.384c0 1.34-1.098 2.426-2.452 2.426s-2.451-1.086-2.451-2.426 1.097-2.427 2.451-2.427S152 16.044 152 17.384"/><path fill="url(#w)" d="M4.903 31.943c0 1.34-1.097 2.426-2.451 2.426S0 33.283 0 31.943s1.098-2.427 2.452-2.427 2.451 1.087 2.451 2.427"/><path fill="url(#x)" d="M19.613 31.943c0 1.34-1.098 2.426-2.452 2.426s-2.451-1.086-2.451-2.426 1.097-2.427 2.451-2.427 2.452 1.087 2.452 2.427"/><path fill="url(#y)" d="M34.323 31.943c0 1.34-1.098 2.426-2.452 2.426s-2.452-1.086-2.452-2.426 1.098-2.427 2.452-2.427 2.452 1.087 2.452 2.427"/><path fill="url(#z)" d="M49.032 31.943c0 1.34-1.097 2.426-2.451 2.426s-2.452-1.086-2.452-2.426 1.098-2.427 2.452-2.427 2.451 1.087 2.451 2.427"/><path fill="url(#A)" d="M63.742 31.943c0 1.34-1.098 2.426-2.452 2.426s-2.451-1.086-2.451-2.426 1.097-2.427 2.451-2.427 2.452 1.087 2.452 2.427"/><path fill="url(#B)" d="M78.452 31.943c0 1.34-1.098 2.426-2.452 2.426s-2.452-1.086-2.452-2.426 1.098-2.427 2.452-2.427 2.452 1.087 2.452 2.427"/><path fill="url(#C)" d="M93.161 31.943c0 1.34-1.097 2.426-2.451 2.426s-2.452-1.086-2.452-2.426 1.098-2.427 2.452-2.427 2.451 1.087 2.451 2.427"/><path fill="url(#D)" d="M107.871 31.943c0 1.34-1.098 2.426-2.452 2.426s-2.451-1.086-2.451-2.426 1.097-2.427 2.451-2.427 2.452 1.087 2.452 2.427"/><path fill="url(#E)" d="M122.581 31.943c0 1.34-1.098 2.426-2.452 2.426s-2.452-1.086-2.452-2.426 1.098-2.427 2.452-2.427 2.452 1.087 2.452 2.427"/><path fill="url(#F)" d="M137.29 31.943c0 1.34-1.097 2.426-2.451 2.426s-2.452-1.086-2.452-2.426 1.098-2.427 2.452-2.427 2.451 1.087 2.451 2.427"/><path fill="url(#G)" d="M152 31.943c0 1.34-1.098 2.426-2.452 2.426s-2.451-1.086-2.451-2.426 1.097-2.427 2.451-2.427S152 30.603 152 31.943"/><path fill="url(#H)" d="M4.903 46.501c0 1.34-1.097 2.427-2.451 2.427S0 47.842 0 46.5s1.098-2.426 2.452-2.426S4.903 45.16 4.903 46.5"/><path fill="url(#I)" d="M19.613 46.501c0 1.34-1.098 2.427-2.452 2.427S14.71 47.842 14.71 46.5s1.097-2.426 2.451-2.426 2.452 1.086 2.452 2.426"/><path fill="url(#J)" d="M34.323 46.501c0 1.34-1.098 2.427-2.452 2.427s-2.452-1.086-2.452-2.427 1.098-2.426 2.452-2.426 2.452 1.086 2.452 2.426"/><path fill="url(#K)" d="M49.032 46.501c0 1.34-1.097 2.427-2.451 2.427s-2.452-1.086-2.452-2.427 1.098-2.426 2.452-2.426 2.451 1.086 2.451 2.426"/><path fill="url(#L)" d="M63.742 46.501c0 1.34-1.098 2.427-2.452 2.427S58.84 47.842 58.84 46.5s1.097-2.426 2.451-2.426 2.452 1.086 2.452 2.426"/><path fill="url(#M)" d="M78.452 46.501c0 1.34-1.098 2.427-2.452 2.427s-2.452-1.086-2.452-2.427 1.098-2.426 2.452-2.426 2.452 1.086 2.452 2.426"/><path fill="url(#N)" d="M93.161 46.501c0 1.34-1.097 2.427-2.451 2.427s-2.452-1.086-2.452-2.427 1.098-2.426 2.452-2.426S93.16 45.16 93.16 46.5"/><path fill="url(#O)" d="M107.871 46.501c0 1.34-1.098 2.427-2.452 2.427s-2.451-1.086-2.451-2.427 1.097-2.426 2.451-2.426 2.452 1.086 2.452 2.426"/><path fill="url(#P)" d="M122.581 46.501c0 1.34-1.098 2.427-2.452 2.427s-2.452-1.086-2.452-2.427 1.098-2.426 2.452-2.426 2.452 1.086 2.452 2.426"/><path fill="url(#Q)" d="M137.29 46.501c0 1.34-1.097 2.427-2.451 2.427s-2.452-1.086-2.452-2.427 1.098-2.426 2.452-2.426 2.451 1.086 2.451 2.426"/><path fill="url(#R)" d="M152 46.501c0 1.34-1.098 2.427-2.452 2.427s-2.451-1.086-2.451-2.427 1.097-2.426 2.451-2.426S152 45.16 152 46.5"/><path fill="url(#S)" d="M4.903 61.06c0 1.34-1.097 2.427-2.451 2.427S0 62.4 0 61.06s1.098-2.426 2.452-2.426 2.451 1.086 2.451 2.426"/><path fill="url(#T)" d="M19.613 61.06c0 1.34-1.098 2.427-2.452 2.427S14.71 62.4 14.71 61.06s1.097-2.426 2.451-2.426 2.452 1.086 2.452 2.426"/><path fill="url(#U)" d="M34.323 61.06c0 1.34-1.098 2.427-2.452 2.427s-2.452-1.087-2.452-2.427 1.098-2.426 2.452-2.426 2.452 1.086 2.452 2.426"/><path fill="url(#V)" d="M49.032 61.06c0 1.34-1.097 2.427-2.451 2.427s-2.452-1.087-2.452-2.427 1.098-2.426 2.452-2.426 2.451 1.086 2.451 2.426"/><path fill="url(#W)" d="M63.742 61.06c0 1.34-1.098 2.427-2.452 2.427S58.84 62.4 58.84 61.06s1.097-2.426 2.451-2.426 2.452 1.086 2.452 2.426"/><path fill="url(#X)" d="M78.452 61.06c0 1.34-1.098 2.427-2.452 2.427s-2.452-1.087-2.452-2.427 1.098-2.426 2.452-2.426 2.452 1.086 2.452 2.426"/><path fill="url(#Y)" d="M93.161 61.06c0 1.34-1.097 2.427-2.451 2.427s-2.452-1.087-2.452-2.427 1.098-2.426 2.452-2.426 2.451 1.086 2.451 2.426"/><path fill="url(#Z)" d="M107.871 61.06c0 1.34-1.098 2.427-2.452 2.427s-2.451-1.087-2.451-2.427 1.097-2.426 2.451-2.426 2.452 1.086 2.452 2.426"/><path fill="url(#aa)" d="M122.581 61.06c0 1.34-1.098 2.427-2.452 2.427s-2.452-1.087-2.452-2.427 1.098-2.426 2.452-2.426 2.452 1.086 2.452 2.426"/><path fill="url(#ab)" d="M137.29 61.06c0 1.34-1.097 2.427-2.451 2.427s-2.452-1.087-2.452-2.427 1.098-2.426 2.452-2.426 2.451 1.086 2.451 2.426"/><path fill="url(#ac)" d="M152 61.06c0 1.34-1.098 2.427-2.452 2.427s-2.451-1.087-2.451-2.427 1.097-2.426 2.451-2.426S152 59.72 152 61.06"/><path fill="url(#ad)" d="M4.903 75.619c0 1.34-1.097 2.427-2.451 2.427S0 76.959 0 75.619s1.098-2.426 2.452-2.426 2.451 1.086 2.451 2.426"/><path fill="url(#ae)" d="M19.613 75.619c0 1.34-1.098 2.427-2.452 2.427s-2.451-1.087-2.451-2.427 1.097-2.426 2.451-2.426 2.452 1.086 2.452 2.426"/><path fill="url(#af)" d="M34.323 75.619c0 1.34-1.098 2.427-2.452 2.427s-2.452-1.087-2.452-2.427 1.098-2.426 2.452-2.426 2.452 1.086 2.452 2.426"/><path fill="url(#ag)" d="M49.032 75.619c0 1.34-1.097 2.427-2.451 2.427s-2.452-1.087-2.452-2.427 1.098-2.426 2.452-2.426 2.451 1.086 2.451 2.426"/><path fill="url(#ah)" d="M63.742 75.619c0 1.34-1.098 2.427-2.452 2.427s-2.451-1.087-2.451-2.427 1.097-2.426 2.451-2.426 2.452 1.086 2.452 2.426"/><path fill="url(#ai)" d="M78.452 75.619c0 1.34-1.098 2.427-2.452 2.427s-2.452-1.087-2.452-2.427 1.098-2.426 2.452-2.426 2.452 1.086 2.452 2.426"/><path fill="url(#aj)" d="M93.161 75.619c0 1.34-1.097 2.427-2.451 2.427s-2.452-1.087-2.452-2.427 1.098-2.426 2.452-2.426 2.451 1.086 2.451 2.426"/><path fill="url(#ak)" d="M107.871 75.619c0 1.34-1.098 2.427-2.452 2.427s-2.451-1.087-2.451-2.427 1.097-2.426 2.451-2.426 2.452 1.086 2.452 2.426"/><path fill="url(#al)" d="M122.581 75.619c0 1.34-1.098 2.427-2.452 2.427s-2.452-1.087-2.452-2.427 1.098-2.426 2.452-2.426 2.452 1.086 2.452 2.426"/><path fill="url(#am)" d="M137.29 75.619c0 1.34-1.097 2.427-2.451 2.427s-2.452-1.087-2.452-2.427 1.098-2.426 2.452-2.426 2.451 1.086 2.451 2.426"/><path fill="url(#an)" d="M152 75.619c0 1.34-1.098 2.427-2.452 2.427s-2.451-1.087-2.451-2.427 1.097-2.426 2.451-2.426S152 74.279 152 75.619"/><path fill="url(#ao)" d="M4.903 90.178c0 1.34-1.097 2.426-2.451 2.426S0 91.518 0 90.178s1.098-2.427 2.452-2.427 2.451 1.087 2.451 2.427"/><path fill="url(#ap)" d="M19.613 90.178c0 1.34-1.098 2.426-2.452 2.426s-2.451-1.086-2.451-2.426 1.097-2.427 2.451-2.427 2.452 1.087 2.452 2.427"/><path fill="url(#aq)" d="M34.323 90.178c0 1.34-1.098 2.426-2.452 2.426s-2.452-1.086-2.452-2.426 1.098-2.427 2.452-2.427 2.452 1.087 2.452 2.427"/><path fill="url(#ar)" d="M49.032 90.178c0 1.34-1.097 2.426-2.451 2.426s-2.452-1.086-2.452-2.426 1.098-2.427 2.452-2.427 2.451 1.087 2.451 2.427"/><path fill="url(#as)" d="M63.742 90.178c0 1.34-1.098 2.426-2.452 2.426s-2.451-1.086-2.451-2.426 1.097-2.427 2.451-2.427 2.452 1.087 2.452 2.427"/><path fill="url(#at)" d="M78.452 90.178c0 1.34-1.098 2.426-2.452 2.426s-2.452-1.086-2.452-2.426S74.646 87.75 76 87.75s2.452 1.087 2.452 2.427"/><path fill="url(#au)" d="M93.161 90.178c0 1.34-1.097 2.426-2.451 2.426s-2.452-1.086-2.452-2.426 1.098-2.427 2.452-2.427 2.451 1.087 2.451 2.427"/><path fill="url(#av)" d="M107.871 90.178c0 1.34-1.098 2.426-2.452 2.426s-2.451-1.086-2.451-2.426 1.097-2.427 2.451-2.427 2.452 1.087 2.452 2.427"/><path fill="url(#aw)" d="M122.581 90.178c0 1.34-1.098 2.426-2.452 2.426s-2.452-1.086-2.452-2.426 1.098-2.427 2.452-2.427 2.452 1.087 2.452 2.427"/><path fill="url(#ax)" d="M137.29 90.178c0 1.34-1.097 2.426-2.451 2.426s-2.452-1.086-2.452-2.426 1.098-2.427 2.452-2.427 2.451 1.087 2.451 2.427"/><path fill="url(#ay)" d="M152 90.178c0 1.34-1.098 2.426-2.452 2.426s-2.451-1.086-2.451-2.426 1.097-2.427 2.451-2.427S152 88.838 152 90.178"/><path fill="url(#az)" d="M4.903 104.737c0 1.34-1.097 2.426-2.451 2.426S0 106.077 0 104.737s1.098-2.427 2.452-2.427 2.451 1.087 2.451 2.427"/><path fill="url(#aA)" d="M19.613 104.737c0 1.34-1.098 2.426-2.452 2.426s-2.451-1.086-2.451-2.426 1.097-2.427 2.451-2.427 2.452 1.087 2.452 2.427"/><path fill="url(#aB)" d="M34.323 104.737c0 1.34-1.098 2.426-2.452 2.426s-2.452-1.086-2.452-2.426 1.098-2.427 2.452-2.427 2.452 1.087 2.452 2.427"/><path fill="url(#aC)" d="M49.032 104.737c0 1.34-1.097 2.426-2.451 2.426s-2.452-1.086-2.452-2.426 1.098-2.427 2.452-2.427 2.451 1.087 2.451 2.427"/><path fill="url(#aD)" d="M63.742 104.737c0 1.34-1.098 2.426-2.452 2.426s-2.451-1.086-2.451-2.426 1.097-2.427 2.451-2.427 2.452 1.087 2.452 2.427"/><path fill="url(#aE)" d="M78.452 104.737c0 1.34-1.098 2.426-2.452 2.426s-2.452-1.086-2.452-2.426 1.098-2.427 2.452-2.427 2.452 1.087 2.452 2.427"/><path fill="url(#aF)" d="M93.161 104.737c0 1.34-1.097 2.426-2.451 2.426s-2.452-1.086-2.452-2.426 1.098-2.427 2.452-2.427 2.451 1.087 2.451 2.427"/><path fill="url(#aG)" d="M107.871 104.737c0 1.34-1.098 2.426-2.452 2.426s-2.451-1.086-2.451-2.426 1.097-2.427 2.451-2.427 2.452 1.087 2.452 2.427"/><path fill="url(#aH)" d="M122.581 104.737c0 1.34-1.098 2.426-2.452 2.426s-2.452-1.086-2.452-2.426 1.098-2.427 2.452-2.427 2.452 1.087 2.452 2.427"/><path fill="url(#aI)" d="M137.29 104.737c0 1.34-1.097 2.426-2.451 2.426s-2.452-1.086-2.452-2.426 1.098-2.427 2.452-2.427 2.451 1.087 2.451 2.427"/><path fill="url(#aJ)" d="M152 104.737c0 1.34-1.098 2.426-2.452 2.426s-2.451-1.086-2.451-2.426 1.097-2.427 2.451-2.427 2.452 1.087 2.452 2.427"/><path fill="url(#aK)" d="M4.903 119.295c0 1.341-1.097 2.427-2.451 2.427S0 120.636 0 119.295s1.098-2.426 2.452-2.426 2.451 1.086 2.451 2.426"/><path fill="url(#aL)" d="M19.613 119.295c0 1.341-1.098 2.427-2.452 2.427s-2.451-1.086-2.451-2.427 1.097-2.426 2.451-2.426 2.452 1.086 2.452 2.426"/><path fill="url(#aM)" d="M34.323 119.295c0 1.341-1.098 2.427-2.452 2.427s-2.452-1.086-2.452-2.427 1.098-2.426 2.452-2.426 2.452 1.086 2.452 2.426"/><path fill="url(#aN)" d="M49.032 119.295c0 1.341-1.097 2.427-2.451 2.427s-2.452-1.086-2.452-2.427 1.098-2.426 2.452-2.426 2.451 1.086 2.451 2.426"/><path fill="url(#aO)" d="M63.742 119.295c0 1.341-1.098 2.427-2.452 2.427s-2.451-1.086-2.451-2.427 1.097-2.426 2.451-2.426 2.452 1.086 2.452 2.426"/><path fill="url(#aP)" d="M78.452 119.295c0 1.341-1.098 2.427-2.452 2.427s-2.452-1.086-2.452-2.427 1.098-2.426 2.452-2.426 2.452 1.086 2.452 2.426"/><path fill="url(#aQ)" d="M93.161 119.295c0 1.341-1.097 2.427-2.451 2.427s-2.452-1.086-2.452-2.427 1.098-2.426 2.452-2.426 2.451 1.086 2.451 2.426"/><path fill="url(#aR)" d="M107.871 119.295c0 1.341-1.098 2.427-2.452 2.427s-2.451-1.086-2.451-2.427 1.097-2.426 2.451-2.426 2.452 1.086 2.452 2.426"/><path fill="url(#aS)" d="M122.581 119.295c0 1.341-1.098 2.427-2.452 2.427s-2.452-1.086-2.452-2.427 1.098-2.426 2.452-2.426 2.452 1.086 2.452 2.426"/><path fill="url(#aT)" d="M137.29 119.295c0 1.341-1.097 2.427-2.451 2.427s-2.452-1.086-2.452-2.427 1.098-2.426 2.452-2.426 2.451 1.086 2.451 2.426"/><path fill="url(#aU)" d="M152 119.295c0 1.341-1.098 2.427-2.452 2.427s-2.451-1.086-2.451-2.427 1.097-2.426 2.451-2.426 2.452 1.086 2.452 2.426"/><path fill="url(#aV)" d="M4.903 133.854c0 1.34-1.097 2.427-2.451 2.427S0 135.194 0 133.854s1.098-2.426 2.452-2.426 2.451 1.086 2.451 2.426"/><path fill="url(#aW)" d="M19.613 133.854c0 1.34-1.098 2.427-2.452 2.427s-2.451-1.087-2.451-2.427 1.097-2.426 2.451-2.426 2.452 1.086 2.452 2.426"/><path fill="url(#aX)" d="M34.323 133.854c0 1.34-1.098 2.427-2.452 2.427s-2.452-1.087-2.452-2.427 1.098-2.426 2.452-2.426 2.452 1.086 2.452 2.426"/><path fill="url(#aY)" d="M49.032 133.854c0 1.34-1.097 2.427-2.451 2.427s-2.452-1.087-2.452-2.427 1.098-2.426 2.452-2.426 2.451 1.086 2.451 2.426"/><path fill="url(#aZ)" d="M63.742 133.854c0 1.34-1.098 2.427-2.452 2.427s-2.451-1.087-2.451-2.427 1.097-2.426 2.451-2.426 2.452 1.086 2.452 2.426"/><path fill="url(#ba)" d="M78.452 133.854c0 1.34-1.098 2.427-2.452 2.427s-2.452-1.087-2.452-2.427 1.098-2.426 2.452-2.426 2.452 1.086 2.452 2.426"/><path fill="url(#bb)" d="M93.161 133.854c0 1.34-1.097 2.427-2.451 2.427s-2.452-1.087-2.452-2.427 1.098-2.426 2.452-2.426 2.451 1.086 2.451 2.426"/><path fill="url(#bc)" d="M107.871 133.854c0 1.34-1.098 2.427-2.452 2.427s-2.451-1.087-2.451-2.427 1.097-2.426 2.451-2.426 2.452 1.086 2.452 2.426"/><path fill="url(#bd)" d="M122.581 133.854c0 1.34-1.098 2.427-2.452 2.427s-2.452-1.087-2.452-2.427 1.098-2.426 2.452-2.426 2.452 1.086 2.452 2.426"/><path fill="url(#be)" d="M137.29 133.854c0 1.34-1.097 2.427-2.451 2.427s-2.452-1.087-2.452-2.427 1.098-2.426 2.452-2.426 2.451 1.086 2.451 2.426"/><path fill="url(#bf)" d="M152 133.854c0 1.34-1.098 2.427-2.452 2.427s-2.451-1.087-2.451-2.427 1.097-2.426 2.451-2.426 2.452 1.086 2.452 2.426"/><path fill="url(#bg)" d="M4.903 148.413c0 1.34-1.097 2.427-2.451 2.427S0 149.753 0 148.413s1.098-2.426 2.452-2.426 2.451 1.086 2.451 2.426"/><path fill="url(#bh)" d="M19.613 148.413c0 1.34-1.098 2.427-2.452 2.427s-2.451-1.087-2.451-2.427 1.097-2.426 2.451-2.426 2.452 1.086 2.452 2.426"/><path fill="url(#bi)" d="M34.323 148.413c0 1.34-1.098 2.427-2.452 2.427s-2.452-1.087-2.452-2.427 1.098-2.426 2.452-2.426 2.452 1.086 2.452 2.426"/><path fill="url(#bj)" d="M49.032 148.413c0 1.34-1.097 2.427-2.451 2.427s-2.452-1.087-2.452-2.427 1.098-2.426 2.452-2.426 2.451 1.086 2.451 2.426"/><path fill="url(#bk)" d="M63.742 148.413c0 1.34-1.098 2.427-2.452 2.427s-2.451-1.087-2.451-2.427 1.097-2.426 2.451-2.426 2.452 1.086 2.452 2.426"/><path fill="url(#bl)" d="M78.452 148.413c0 1.34-1.098 2.427-2.452 2.427s-2.452-1.087-2.452-2.427 1.098-2.426 2.452-2.426 2.452 1.086 2.452 2.426"/><path fill="url(#bm)" d="M93.161 148.413c0 1.34-1.097 2.427-2.451 2.427s-2.452-1.087-2.452-2.427 1.098-2.426 2.452-2.426 2.451 1.086 2.451 2.426"/><path fill="url(#bn)" d="M107.871 148.413c0 1.34-1.098 2.427-2.452 2.427s-2.451-1.087-2.451-2.427 1.097-2.426 2.451-2.426 2.452 1.086 2.452 2.426"/><path fill="url(#bo)" d="M122.581 148.413c0 1.34-1.098 2.427-2.452 2.427s-2.452-1.087-2.452-2.427 1.098-2.426 2.452-2.426 2.452 1.086 2.452 2.426"/><path fill="url(#bp)" d="M137.29 148.413c0 1.34-1.097 2.427-2.451 2.427s-2.452-1.087-2.452-2.427 1.098-2.426 2.452-2.426 2.451 1.086 2.451 2.426"/><path fill="url(#bq)" d="M152 148.413c0 1.34-1.098 2.427-2.452 2.427s-2.451-1.087-2.451-2.427 1.097-2.426 2.451-2.426 2.452 1.086 2.452 2.426"/><path fill="url(#br)" d="M4.903 162.972c0 1.34-1.097 2.426-2.451 2.426S0 164.312 0 162.972s1.098-2.426 2.452-2.426 2.451 1.086 2.451 2.426"/><path fill="url(#bs)" d="M19.613 162.972c0 1.34-1.098 2.426-2.452 2.426s-2.451-1.086-2.451-2.426 1.097-2.426 2.451-2.426 2.452 1.086 2.452 2.426"/><path fill="url(#bt)" d="M34.323 162.972c0 1.34-1.098 2.426-2.452 2.426s-2.452-1.086-2.452-2.426 1.098-2.426 2.452-2.426 2.452 1.086 2.452 2.426"/><path fill="url(#bu)" d="M49.032 162.972c0 1.34-1.097 2.426-2.451 2.426s-2.452-1.086-2.452-2.426 1.098-2.426 2.452-2.426 2.451 1.086 2.451 2.426"/><path fill="url(#bv)" d="M63.742 162.972c0 1.34-1.098 2.426-2.452 2.426s-2.451-1.086-2.451-2.426 1.097-2.426 2.451-2.426 2.452 1.086 2.452 2.426"/><path fill="url(#bw)" d="M78.452 162.972c0 1.34-1.098 2.426-2.452 2.426s-2.452-1.086-2.452-2.426 1.098-2.426 2.452-2.426 2.452 1.086 2.452 2.426"/><path fill="url(#bx)" d="M93.161 162.972c0 1.34-1.097 2.426-2.451 2.426s-2.452-1.086-2.452-2.426 1.098-2.426 2.452-2.426 2.451 1.086 2.451 2.426"/><path fill="url(#by)" d="M107.871 162.972c0 1.34-1.098 2.426-2.452 2.426s-2.451-1.086-2.451-2.426 1.097-2.426 2.451-2.426 2.452 1.086 2.452 2.426"/><path fill="url(#bz)" d="M122.581 162.972c0 1.34-1.098 2.426-2.452 2.426s-2.452-1.086-2.452-2.426 1.098-2.426 2.452-2.426 2.452 1.086 2.452 2.426"/><path fill="url(#bA)" d="M137.29 162.972c0 1.34-1.097 2.426-2.451 2.426s-2.452-1.086-2.452-2.426 1.098-2.426 2.452-2.426 2.451 1.086 2.451 2.426"/><path fill="url(#bB)" d="M152 162.972c0 1.34-1.098 2.426-2.452 2.426s-2.451-1.086-2.451-2.426 1.097-2.426 2.451-2.426 2.452 1.086 2.452 2.426"/><defs><linearGradient id="a" x1="76" x2="76" y1=".398" y2="165.398" gradientUnits="userSpaceOnUse"><stop stop-color="#3797D5"/><stop offset="1" stop-color="#87C1E6"/></linearGradient><linearGradient id="b" x1="76" x2="76" y1=".398" y2="165.398" gradientUnits="userSpaceOnUse"><stop stop-color="#3797D5"/><stop offset="1" stop-color="#87C1E6"/></linearGradient><linearGradient id="c" x1="76" x2="76" y1=".398" y2="165.398" gradientUnits="userSpaceOnUse"><stop stop-color="#3797D5"/><stop offset="1" stop-color="#87C1E6"/></linearGradient><linearGradient id="d" x1="76" x2="76" y1=".398" y2="165.398" gradientUnits="userSpaceOnUse"><stop stop-color="#3797D5"/><stop offset="1" stop-color="#87C1E6"/></linearGradient><linearGradient id="e" x1="76" x2="76" y1=".398" y2="165.398" gradientUnits="userSpaceOnUse"><stop stop-color="#3797D5"/><stop offset="1" stop-color="#87C1E6"/></linearGradient><linearGradient id="f" x1="76" x2="76" y1=".398" y2="165.398" gradientUnits="userSpaceOnUse"><stop stop-color="#3797D5"/><stop offset="1" stop-color="#87C1E6"/></linearGradient><linearGradient id="g" x1="76" x2="76" y1=".398" y2="165.398" gradientUnits="userSpaceOnUse"><stop stop-color="#3797D5"/><stop offset="1" stop-color="#87C1E6"/></linearGradient><linearGradient id="h" x1="76" x2="76" y1=".398" y2="165.398" gradientUnits="userSpaceOnUse"><stop stop-color="#3797D5"/><stop offset="1" stop-color="#87C1E6"/></linearGradient><linearGradient id="i" x1="76" x2="76" y1=".398" y2="165.398" gradientUnits="userSpaceOnUse"><stop stop-color="#3797D5"/><stop offset="1" stop-color="#87C1E6"/></linearGradient><linearGradient id="j" x1="76" x2="76" y1=".398" y2="165.398" gradientUnits="userSpaceOnUse"><stop stop-color="#3797D5"/><stop offset="1" stop-color="#87C1E6"/></linearGradient><linearGradient id="k" x1="76" x2="76" y1=".398" y2="165.398" gradientUnits="userSpaceOnUse"><stop stop-color="#3797D5"/><stop offset="1" stop-color="#87C1E6"/></linearGradient><linearGradient id="l" x1="76" x2="76" y1=".398" y2="165.398" gradientUnits="userSpaceOnUse"><stop stop-color="#3797D5"/><stop offset="1" stop-color="#87C1E6"/></linearGradient><linearGradient id="m" x1="76" x2="76" y1=".398" y2="165.398" gradientUnits="userSpaceOnUse"><stop stop-color="#3797D5"/><stop offset="1" stop-color="#87C1E6"/></linearGradient><linearGradient id="n" x1="76" x2="76" y1=".398" y2="165.398" gradientUnits="userSpaceOnUse"><stop stop-color="#3797D5"/><stop offset="1" stop-color="#87C1E6"/></linearGradient><linearGradient id="o" x1="76" x2="76" y1=".398" y2="165.398" gradientUnits="userSpaceOnUse"><stop stop-color="#3797D5"/><stop offset="1" stop-color="#87C1E6"/></linearGradient><linearGradient id="p" x1="76" x2="76" y1=".398" y2="165.398" gradientUnits="userSpaceOnUse"><stop stop-color="#3797D5"/><stop offset="1" stop-color="#87C1E6"/></linearGradient><linearGradient id="q" x1="76" x2="76" y1=".398" y2="165.398" gradientUnits="userSpaceOnUse"><stop stop-color="#3797D5"/><stop offset="1" stop-color="#87C1E6"/></linearGradient><linearGradient id="r" x1="76" x2="76" y1=".398" y2="165.398" gradientUnits="userSpaceOnUse"><stop stop-color="#3797D5"/><stop offset="1" stop-color="#87C1E6"/></linearGradient><linearGradient id="s" x1="76" x2="76" y1=".398" y2="165.398" gradientUnits="userSpaceOnUse"><stop stop-color="#3797D5"/><stop offset="1" stop-color="#87C1E6"/></linearGradient><linearGradient id="t" x1="76" x2="76" y1=".398" y2="165.398" gradientUnits="userSpaceOnUse"><stop stop-color="#3797D5"/><stop offset="1" stop-color="#87C1E6"/></linearGradient><linearGradient id="u" x1="76" x2="76" y1=".398" y2="165.398" gradientUnits="userSpaceOnUse"><stop stop-color="#3797D5"/><stop offset="1" stop-color="#87C1E6"/></linearGradient><linearGradient id="v" x1="76" x2="76" y1=".398" y2="165.398" gradientUnits="userSpaceOnUse"><stop stop-color="#3797D5"/><stop offset="1" stop-color="#87C1E6"/></linearGradient><linearGradient id="w" x1="76" x2="76" y1=".398" y2="165.398" gradientUnits="userSpaceOnUse"><stop stop-color="#3797D5"/><stop offset="1" stop-color="#87C1E6"/></linearGradient><linearGradient id="x" x1="76" x2="76" y1=".398" y2="165.398" gradientUnits="userSpaceOnUse"><stop stop-color="#3797D5"/><stop offset="1" stop-color="#87C1E6"/></linearGradient><linearGradient id="y" x1="76" x2="76" y1=".398" y2="165.398" gradientUnits="userSpaceOnUse"><stop stop-color="#3797D5"/><stop offset="1" stop-color="#87C1E6"/></linearGradient><linearGradient id="z" x1="76" x2="76" y1=".398" y2="165.398" gradientUnits="userSpaceOnUse"><stop stop-color="#3797D5"/><stop offset="1" stop-color="#87C1E6"/></linearGradient><linearGradient id="A" x1="76" x2="76" y1=".398" y2="165.398" gradientUnits="userSpaceOnUse"><stop stop-color="#3797D5"/><stop offset="1" stop-color="#87C1E6"/></linearGradient><linearGradient id="B" x1="76" x2="76" y1=".398" y2="165.398" gradientUnits="userSpaceOnUse"><stop stop-color="#3797D5"/><stop offset="1" stop-color="#87C1E6"/></linearGradient><linearGradient id="C" x1="76" x2="76" y1=".398" y2="165.398" gradientUnits="userSpaceOnUse"><stop stop-color="#3797D5"/><stop offset="1" stop-color="#87C1E6"/></linearGradient><linearGradient id="D" x1="76" x2="76" y1=".398" y2="165.398" gradientUnits="userSpaceOnUse"><stop stop-color="#3797D5"/><stop offset="1" stop-color="#87C1E6"/></linearGradient><linearGradient id="E" x1="76" x2="76" y1=".398" y2="165.398" gradientUnits="userSpaceOnUse"><stop stop-color="#3797D5"/><stop offset="1" stop-color="#87C1E6"/></linearGradient><linearGradient id="F" x1="76" x2="76" y1=".398" y2="165.398" gradientUnits="userSpaceOnUse"><stop stop-color="#3797D5"/><stop offset="1" stop-color="#87C1E6"/></linearGradient><linearGradient id="G" x1="76" x2="76" y1=".398" y2="165.398" gradientUnits="userSpaceOnUse"><stop stop-color="#3797D5"/><stop offset="1" stop-color="#87C1E6"/></linearGradient><linearGradient id="H" x1="76" x2="76" y1=".398" y2="165.398" gradientUnits="userSpaceOnUse"><stop stop-color="#3797D5"/><stop offset="1" stop-color="#87C1E6"/></linearGradient><linearGradient id="I" x1="76" x2="76" y1=".398" y2="165.398" gradientUnits="userSpaceOnUse"><stop stop-color="#3797D5"/><stop offset="1" stop-color="#87C1E6"/></linearGradient><linearGradient id="J" x1="76" x2="76" y1=".398" y2="165.398" gradientUnits="userSpaceOnUse"><stop stop-color="#3797D5"/><stop offset="1" stop-color="#87C1E6"/></linearGradient><linearGradient id="K" x1="76" x2="76" y1=".398" y2="165.398" gradientUnits="userSpaceOnUse"><stop stop-color="#3797D5"/><stop offset="1" stop-color="#87C1E6"/></linearGradient><linearGradient id="L" x1="76" x2="76" y1=".398" y2="165.398" gradientUnits="userSpaceOnUse"><stop stop-color="#3797D5"/><stop offset="1" stop-color="#87C1E6"/></linearGradient><linearGradient id="M" x1="76" x2="76" y1=".398" y2="165.398" gradientUnits="userSpaceOnUse"><stop stop-color="#3797D5"/><stop offset="1" stop-color="#87C1E6"/></linearGradient><linearGradient id="N" x1="76" x2="76" y1=".398" y2="165.398" gradientUnits="userSpaceOnUse"><stop stop-color="#3797D5"/><stop offset="1" stop-color="#87C1E6"/></linearGradient><linearGradient id="O" x1="76" x2="76" y1=".398" y2="165.398" gradientUnits="userSpaceOnUse"><stop stop-color="#3797D5"/><stop offset="1" stop-color="#87C1E6"/></linearGradient><linearGradient id="P" x1="76" x2="76" y1=".398" y2="165.398" gradientUnits="userSpaceOnUse"><stop stop-color="#3797D5"/><stop offset="1" stop-color="#87C1E6"/></linearGradient><linearGradient id="Q" x1="76" x2="76" y1=".398" y2="165.398" gradientUnits="userSpaceOnUse"><stop stop-color="#3797D5"/><stop offset="1" stop-color="#87C1E6"/></linearGradient><linearGradient id="R" x1="76" x2="76" y1=".398" y2="165.398" gradientUnits="userSpaceOnUse"><stop stop-color="#3797D5"/><stop offset="1" stop-color="#87C1E6"/></linearGradient><linearGradient id="S" x1="76" x2="76" y1=".398" y2="165.398" gradientUnits="userSpaceOnUse"><stop stop-color="#3797D5"/><stop offset="1" stop-color="#87C1E6"/></linearGradient><linearGradient id="T" x1="76" x2="76" y1=".398" y2="165.398" gradientUnits="userSpaceOnUse"><stop stop-color="#3797D5"/><stop offset="1" stop-color="#87C1E6"/></linearGradient><linearGradient id="U" x1="76" x2="76" y1=".398" y2="165.398" gradientUnits="userSpaceOnUse"><stop stop-color="#3797D5"/><stop offset="1" stop-color="#87C1E6"/></linearGradient><linearGradient id="V" x1="76" x2="76" y1=".398" y2="165.398" gradientUnits="userSpaceOnUse"><stop stop-color="#3797D5"/><stop offset="1" stop-color="#87C1E6"/></linearGradient><linearGradient id="W" x1="76" x2="76" y1=".398" y2="165.398" gradientUnits="userSpaceOnUse"><stop stop-color="#3797D5"/><stop offset="1" stop-color="#87C1E6"/></linearGradient><linearGradient id="X" x1="76" x2="76" y1=".398" y2="165.398" gradientUnits="userSpaceOnUse"><stop stop-color="#3797D5"/><stop offset="1" stop-color="#87C1E6"/></linearGradient><linearGradient id="Y" x1="76" x2="76" y1=".398" y2="165.398" gradientUnits="userSpaceOnUse"><stop stop-color="#3797D5"/><stop offset="1" stop-color="#87C1E6"/></linearGradient><linearGradient id="Z" x1="76" x2="76" y1=".398" y2="165.398" gradientUnits="userSpaceOnUse"><stop stop-color="#3797D5"/><stop offset="1" stop-color="#87C1E6"/></linearGradient><linearGradient id="aa" x1="76" x2="76" y1=".398" y2="165.398" gradientUnits="userSpaceOnUse"><stop stop-color="#3797D5"/><stop offset="1" stop-color="#87C1E6"/></linearGradient><linearGradient id="ab" x1="76" x2="76" y1=".398" y2="165.398" gradientUnits="userSpaceOnUse"><stop stop-color="#3797D5"/><stop offset="1" stop-color="#87C1E6"/></linearGradient><linearGradient id="ac" x1="76" x2="76" y1=".398" y2="165.398" gradientUnits="userSpaceOnUse"><stop stop-color="#3797D5"/><stop offset="1" stop-color="#87C1E6"/></linearGradient><linearGradient id="ad" x1="76" x2="76" y1=".398" y2="165.398" gradientUnits="userSpaceOnUse"><stop stop-color="#3797D5"/><stop offset="1" stop-color="#87C1E6"/></linearGradient><linearGradient id="ae" x1="76" x2="76" y1=".398" y2="165.398" gradientUnits="userSpaceOnUse"><stop stop-color="#3797D5"/><stop offset="1" stop-color="#87C1E6"/></linearGradient><linearGradient id="af" x1="76" x2="76" y1=".398" y2="165.398" gradientUnits="userSpaceOnUse"><stop stop-color="#3797D5"/><stop offset="1" stop-color="#87C1E6"/></linearGradient><linearGradient id="ag" x1="76" x2="76" y1=".398" y2="165.398" gradientUnits="userSpaceOnUse"><stop stop-color="#3797D5"/><stop offset="1" stop-color="#87C1E6"/></linearGradient><linearGradient id="ah" x1="76" x2="76" y1=".398" y2="165.398" gradientUnits="userSpaceOnUse"><stop stop-color="#3797D5"/><stop offset="1" stop-color="#87C1E6"/></linearGradient><linearGradient id="ai" x1="76" x2="76" y1=".398" y2="165.398" gradientUnits="userSpaceOnUse"><stop stop-color="#3797D5"/><stop offset="1" stop-color="#87C1E6"/></linearGradient><linearGradient id="aj" x1="76" x2="76" y1=".398" y2="165.398" gradientUnits="userSpaceOnUse"><stop stop-color="#3797D5"/><stop offset="1" stop-color="#87C1E6"/></linearGradient><linearGradient id="ak" x1="76" x2="76" y1=".398" y2="165.398" gradientUnits="userSpaceOnUse"><stop stop-color="#3797D5"/><stop offset="1" stop-color="#87C1E6"/></linearGradient><linearGradient id="al" x1="76" x2="76" y1=".398" y2="165.398" gradientUnits="userSpaceOnUse"><stop stop-color="#3797D5"/><stop offset="1" stop-color="#87C1E6"/></linearGradient><linearGradient id="am" x1="76" x2="76" y1=".398" y2="165.398" gradientUnits="userSpaceOnUse"><stop stop-color="#3797D5"/><stop offset="1" stop-color="#87C1E6"/></linearGradient><linearGradient id="an" x1="76" x2="76" y1=".398" y2="165.398" gradientUnits="userSpaceOnUse"><stop stop-color="#3797D5"/><stop offset="1" stop-color="#87C1E6"/></linearGradient><linearGradient id="ao" x1="76" x2="76" y1=".398" y2="165.398" gradientUnits="userSpaceOnUse"><stop stop-color="#3797D5"/><stop offset="1" stop-color="#87C1E6"/></linearGradient><linearGradient id="ap" x1="76" x2="76" y1=".398" y2="165.398" gradientUnits="userSpaceOnUse"><stop stop-color="#3797D5"/><stop offset="1" stop-color="#87C1E6"/></linearGradient><linearGradient id="aq" x1="76" x2="76" y1=".398" y2="165.398" gradientUnits="userSpaceOnUse"><stop stop-color="#3797D5"/><stop offset="1" stop-color="#87C1E6"/></linearGradient><linearGradient id="ar" x1="76" x2="76" y1=".398" y2="165.398" gradientUnits="userSpaceOnUse"><stop stop-color="#3797D5"/><stop offset="1" stop-color="#87C1E6"/></linearGradient><linearGradient id="as" x1="76" x2="76" y1=".398" y2="165.398" gradientUnits="userSpaceOnUse"><stop stop-color="#3797D5"/><stop offset="1" stop-color="#87C1E6"/></linearGradient><linearGradient id="at" x1="76" x2="76" y1=".398" y2="165.398" gradientUnits="userSpaceOnUse"><stop stop-color="#3797D5"/><stop offset="1" stop-color="#87C1E6"/></linearGradient><linearGradient id="au" x1="76" x2="76" y1=".398" y2="165.398" gradientUnits="userSpaceOnUse"><stop stop-color="#3797D5"/><stop offset="1" stop-color="#87C1E6"/></linearGradient><linearGradient id="av" x1="76" x2="76" y1=".398" y2="165.398" gradientUnits="userSpaceOnUse"><stop stop-color="#3797D5"/><stop offset="1" stop-color="#87C1E6"/></linearGradient><linearGradient id="aw" x1="76" x2="76" y1=".398" y2="165.398" gradientUnits="userSpaceOnUse"><stop stop-color="#3797D5"/><stop offset="1" stop-color="#87C1E6"/></linearGradient><linearGradient id="ax" x1="76" x2="76" y1=".398" y2="165.398" gradientUnits="userSpaceOnUse"><stop stop-color="#3797D5"/><stop offset="1" stop-color="#87C1E6"/></linearGradient><linearGradient id="ay" x1="76" x2="76" y1=".398" y2="165.398" gradientUnits="userSpaceOnUse"><stop stop-color="#3797D5"/><stop offset="1" stop-color="#87C1E6"/></linearGradient><linearGradient id="az" x1="76" x2="76" y1=".398" y2="165.398" gradientUnits="userSpaceOnUse"><stop stop-color="#3797D5"/><stop offset="1" stop-color="#87C1E6"/></linearGradient><linearGradient id="aA" x1="76" x2="76" y1=".398" y2="165.398" gradientUnits="userSpaceOnUse"><stop stop-color="#3797D5"/><stop offset="1" stop-color="#87C1E6"/></linearGradient><linearGradient id="aB" x1="76" x2="76" y1=".398" y2="165.398" gradientUnits="userSpaceOnUse"><stop stop-color="#3797D5"/><stop offset="1" stop-color="#87C1E6"/></linearGradient><linearGradient id="aC" x1="76" x2="76" y1=".398" y2="165.398" gradientUnits="userSpaceOnUse"><stop stop-color="#3797D5"/><stop offset="1" stop-color="#87C1E6"/></linearGradient><linearGradient id="aD" x1="76" x2="76" y1=".398" y2="165.398" gradientUnits="userSpaceOnUse"><stop stop-color="#3797D5"/><stop offset="1" stop-color="#87C1E6"/></linearGradient><linearGradient id="aE" x1="76" x2="76" y1=".398" y2="165.398" gradientUnits="userSpaceOnUse"><stop stop-color="#3797D5"/><stop offset="1" stop-color="#87C1E6"/></linearGradient><linearGradient id="aF" x1="76" x2="76" y1=".398" y2="165.398" gradientUnits="userSpaceOnUse"><stop stop-color="#3797D5"/><stop offset="1" stop-color="#87C1E6"/></linearGradient><linearGradient id="aG" x1="76" x2="76" y1=".398" y2="165.398" gradientUnits="userSpaceOnUse"><stop stop-color="#3797D5"/><stop offset="1" stop-color="#87C1E6"/></linearGradient><linearGradient id="aH" x1="76" x2="76" y1=".398" y2="165.398" gradientUnits="userSpaceOnUse"><stop stop-color="#3797D5"/><stop offset="1" stop-color="#87C1E6"/></linearGradient><linearGradient id="aI" x1="76" x2="76" y1=".398" y2="165.398" gradientUnits="userSpaceOnUse"><stop stop-color="#3797D5"/><stop offset="1" stop-color="#87C1E6"/></linearGradient><linearGradient id="aJ" x1="76" x2="76" y1=".398" y2="165.398" gradientUnits="userSpaceOnUse"><stop stop-color="#3797D5"/><stop offset="1" stop-color="#87C1E6"/></linearGradient><linearGradient id="aK" x1="76" x2="76" y1=".398" y2="165.398" gradientUnits="userSpaceOnUse"><stop stop-color="#3797D5"/><stop offset="1" stop-color="#87C1E6"/></linearGradient><linearGradient id="aL" x1="76" x2="76" y1=".398" y2="165.398" gradientUnits="userSpaceOnUse"><stop stop-color="#3797D5"/><stop offset="1" stop-color="#87C1E6"/></linearGradient><linearGradient id="aM" x1="76" x2="76" y1=".398" y2="165.398" gradientUnits="userSpaceOnUse"><stop stop-color="#3797D5"/><stop offset="1" stop-color="#87C1E6"/></linearGradient><linearGradient id="aN" x1="76" x2="76" y1=".398" y2="165.398" gradientUnits="userSpaceOnUse"><stop stop-color="#3797D5"/><stop offset="1" stop-color="#87C1E6"/></linearGradient><linearGradient id="aO" x1="76" x2="76" y1=".398" y2="165.398" gradientUnits="userSpaceOnUse"><stop stop-color="#3797D5"/><stop offset="1" stop-color="#87C1E6"/></linearGradient><linearGradient id="aP" x1="76" x2="76" y1=".398" y2="165.398" gradientUnits="userSpaceOnUse"><stop stop-color="#3797D5"/><stop offset="1" stop-color="#87C1E6"/></linearGradient><linearGradient id="aQ" x1="76" x2="76" y1=".398" y2="165.398" gradientUnits="userSpaceOnUse"><stop stop-color="#3797D5"/><stop offset="1" stop-color="#87C1E6"/></linearGradient><linearGradient id="aR" x1="76" x2="76" y1=".398" y2="165.398" gradientUnits="userSpaceOnUse"><stop stop-color="#3797D5"/><stop offset="1" stop-color="#87C1E6"/></linearGradient><linearGradient id="aS" x1="76" x2="76" y1=".398" y2="165.398" gradientUnits="userSpaceOnUse"><stop stop-color="#3797D5"/><stop offset="1" stop-color="#87C1E6"/></linearGradient><linearGradient id="aT" x1="76" x2="76" y1=".398" y2="165.398" gradientUnits="userSpaceOnUse"><stop stop-color="#3797D5"/><stop offset="1" stop-color="#87C1E6"/></linearGradient><linearGradient id="aU" x1="76" x2="76" y1=".398" y2="165.398" gradientUnits="userSpaceOnUse"><stop stop-color="#3797D5"/><stop offset="1" stop-color="#87C1E6"/></linearGradient><linearGradient id="aV" x1="76" x2="76" y1=".398" y2="165.398" gradientUnits="userSpaceOnUse"><stop stop-color="#3797D5"/><stop offset="1" stop-color="#87C1E6"/></linearGradient><linearGradient id="aW" x1="76" x2="76" y1=".398" y2="165.398" gradientUnits="userSpaceOnUse"><stop stop-color="#3797D5"/><stop offset="1" stop-color="#87C1E6"/></linearGradient><linearGradient id="aX" x1="76" x2="76" y1=".398" y2="165.398" gradientUnits="userSpaceOnUse"><stop stop-color="#3797D5"/><stop offset="1" stop-color="#87C1E6"/></linearGradient><linearGradient id="aY" x1="76" x2="76" y1=".398" y2="165.398" gradientUnits="userSpaceOnUse"><stop stop-color="#3797D5"/><stop offset="1" stop-color="#87C1E6"/></linearGradient><linearGradient id="aZ" x1="76" x2="76" y1=".398" y2="165.398" gradientUnits="userSpaceOnUse"><stop stop-color="#3797D5"/><stop offset="1" stop-color="#87C1E6"/></linearGradient><linearGradient id="ba" x1="76" x2="76" y1=".398" y2="165.398" gradientUnits="userSpaceOnUse"><stop stop-color="#3797D5"/><stop offset="1" stop-color="#87C1E6"/></linearGradient><linearGradient id="bb" x1="76" x2="76" y1=".398" y2="165.398" gradientUnits="userSpaceOnUse"><stop stop-color="#3797D5"/><stop offset="1" stop-color="#87C1E6"/></linearGradient><linearGradient id="bc" x1="76" x2="76" y1=".398" y2="165.398" gradientUnits="userSpaceOnUse"><stop stop-color="#3797D5"/><stop offset="1" stop-color="#87C1E6"/></linearGradient><linearGradient id="bd" x1="76" x2="76" y1=".398" y2="165.398" gradientUnits="userSpaceOnUse"><stop stop-color="#3797D5"/><stop offset="1" stop-color="#87C1E6"/></linearGradient><linearGradient id="be" x1="76" x2="76" y1=".398" y2="165.398" gradientUnits="userSpaceOnUse"><stop stop-color="#3797D5"/><stop offset="1" stop-color="#87C1E6"/></linearGradient><linearGradient id="bf" x1="76" x2="76" y1=".398" y2="165.398" gradientUnits="userSpaceOnUse"><stop stop-color="#3797D5"/><stop offset="1" stop-color="#87C1E6"/></linearGradient><linearGradient id="bg" x1="76" x2="76" y1=".398" y2="165.398" gradientUnits="userSpaceOnUse"><stop stop-color="#3797D5"/><stop offset="1" stop-color="#87C1E6"/></linearGradient><linearGradient id="bh" x1="76" x2="76" y1=".398" y2="165.398" gradientUnits="userSpaceOnUse"><stop stop-color="#3797D5"/><stop offset="1" stop-color="#87C1E6"/></linearGradient><linearGradient id="bi" x1="76" x2="76" y1=".398" y2="165.398" gradientUnits="userSpaceOnUse"><stop stop-color="#3797D5"/><stop offset="1" stop-color="#87C1E6"/></linearGradient><linearGradient id="bj" x1="76" x2="76" y1=".398" y2="165.398" gradientUnits="userSpaceOnUse"><stop stop-color="#3797D5"/><stop offset="1" stop-color="#87C1E6"/></linearGradient><linearGradient id="bk" x1="76" x2="76" y1=".398" y2="165.398" gradientUnits="userSpaceOnUse"><stop stop-color="#3797D5"/><stop offset="1" stop-color="#87C1E6"/></linearGradient><linearGradient id="bl" x1="76" x2="76" y1=".398" y2="165.398" gradientUnits="userSpaceOnUse"><stop stop-color="#3797D5"/><stop offset="1" stop-color="#87C1E6"/></linearGradient><linearGradient id="bm" x1="76" x2="76" y1=".398" y2="165.398" gradientUnits="userSpaceOnUse"><stop stop-color="#3797D5"/><stop offset="1" stop-color="#87C1E6"/></linearGradient><linearGradient id="bn" x1="76" x2="76" y1=".398" y2="165.398" gradientUnits="userSpaceOnUse"><stop stop-color="#3797D5"/><stop offset="1" stop-color="#87C1E6"/></linearGradient><linearGradient id="bo" x1="76" x2="76" y1=".398" y2="165.398" gradientUnits="userSpaceOnUse"><stop stop-color="#3797D5"/><stop offset="1" stop-color="#87C1E6"/></linearGradient><linearGradient id="bp" x1="76" x2="76" y1=".398" y2="165.398" gradientUnits="userSpaceOnUse"><stop stop-color="#3797D5"/><stop offset="1" stop-color="#87C1E6"/></linearGradient><linearGradient id="bq" x1="76" x2="76" y1=".398" y2="165.398" gradientUnits="userSpaceOnUse"><stop stop-color="#3797D5"/><stop offset="1" stop-color="#87C1E6"/></linearGradient><linearGradient id="br" x1="76" x2="76" y1=".398" y2="165.398" gradientUnits="userSpaceOnUse"><stop stop-color="#3797D5"/><stop offset="1" stop-color="#87C1E6"/></linearGradient><linearGradient id="bs" x1="76" x2="76" y1=".398" y2="165.398" gradientUnits="userSpaceOnUse"><stop stop-color="#3797D5"/><stop offset="1" stop-color="#87C1E6"/></linearGradient><linearGradient id="bt" x1="76" x2="76" y1=".398" y2="165.398" gradientUnits="userSpaceOnUse"><stop stop-color="#3797D5"/><stop offset="1" stop-color="#87C1E6"/></linearGradient><linearGradient id="bu" x1="76" x2="76" y1=".398" y2="165.398" gradientUnits="userSpaceOnUse"><stop stop-color="#3797D5"/><stop offset="1" stop-color="#87C1E6"/></linearGradient><linearGradient id="bv" x1="76" x2="76" y1=".398" y2="165.398" gradientUnits="userSpaceOnUse"><stop stop-color="#3797D5"/><stop offset="1" stop-color="#87C1E6"/></linearGradient><linearGradient id="bw" x1="76" x2="76" y1=".398" y2="165.398" gradientUnits="userSpaceOnUse"><stop stop-color="#3797D5"/><stop offset="1" stop-color="#87C1E6"/></linearGradient><linearGradient id="bx" x1="76" x2="76" y1=".398" y2="165.398" gradientUnits="userSpaceOnUse"><stop stop-color="#3797D5"/><stop offset="1" stop-color="#87C1E6"/></linearGradient><linearGradient id="by" x1="76" x2="76" y1=".398" y2="165.398" gradientUnits="userSpaceOnUse"><stop stop-color="#3797D5"/><stop offset="1" stop-color="#87C1E6"/></linearGradient><linearGradient id="bz" x1="76" x2="76" y1=".398" y2="165.398" gradientUnits="userSpaceOnUse"><stop stop-color="#3797D5"/><stop offset="1" stop-color="#87C1E6"/></linearGradient><linearGradient id="bA" x1="76" x2="76" y1=".398" y2="165.398" gradientUnits="userSpaceOnUse"><stop stop-color="#3797D5"/><stop offset="1" stop-color="#87C1E6"/></linearGradient><linearGradient id="bB" x1="76" x2="76" y1=".398" y2="165.398" gradientUnits="userSpaceOnUse"><stop stop-color="#3797D5"/><stop offset="1" stop-color="#87C1E6"/></linearGradient></defs></svg>