<svg xmlns="http://www.w3.org/2000/svg" width="65" height="73" fill="none"><path fill="#87C1E6" d="M45.897.307c12.91 5.464 21.5 19.15 17.724 33.228-2.733 10.193-12.52 17.703-22.73 17.458-7.677 9.798-21.004 13.874-33.463 15.163l4.226 2.511c2.456 1.451.237 5.307-2.212 3.838-2.658-1.581-5.31-3.136-7.945-4.779a2.19 2.19 0 0 1-.95-2.557 2.2 2.2 0 0 1 .498-.836c2.417-2.887 4.814-5.93 7.601-8.475a1.29 1.29 0 0 1 1.68-.102 1.29 1.29 0 0 1 .348 1.645 55 55 0 0 1-3.55 5.741c11.022-1.041 22.72-4.043 30.24-12.551a20.3 20.3 0 0 1-4.622-1.55c-10.179-4.858-17.02-22.178-5.8-29.884 5.467-3.76 12.715-1.252 16.387 3.76 3.983 5.439 4.377 12.855 2.33 19.118a29.3 29.3 0 0 1-2.932 6.323c8.151-.52 15.825-6.594 18.392-14.613 4.246-13.344-3.926-26.517-16.081-31.994-1.002-.423-.13-1.842.859-1.444M43.945 33.64c-.266-6.037-3.945-13.2-10.765-13.385-6.523-.177-9.535 6.844-8.991 12.482a17.88 17.88 0 0 0 8.848 13.404 17 17 0 0 0 6.208 2.11c3.007-4.23 4.922-9.362 4.695-14.61z"/></svg>