<svg xmlns="http://www.w3.org/2000/svg" width="287" height="92" fill="none"><path fill="#87C1E6" d="M2.212 35.796.677 54.226l16.729-7.885zM286.19 3.005a1.602 1.602 0 0 0-2.852-1.46zM8.359 48.834l-1.374.824C22.292 75.152 51.87 89.975 79.28 91.14c13.725.584 27.014-2.25 37.752-8.992 10.768-6.76 18.886-17.398 22.282-32.217l-1.561-.358-1.561-.357c-3.207 13.994-10.817 23.912-20.863 30.219-10.076 6.325-22.689 9.067-35.913 8.505-26.49-1.127-55.007-15.487-69.683-39.93zm129.393.738 1.561.358c2.251-9.822 3.175-17.76 3.142-24.068-.034-6.293-1.023-11.044-2.674-14.429-1.661-3.404-4.038-5.497-6.797-6.214-2.741-.713-5.556.012-7.947 1.628-4.757 3.215-8.174 10.124-7.192 18.257.99 8.195 6.402 17.5 19.026 25.806zl.88-1.338c-12.059-7.935-16.758-16.49-17.606-23.514-.856-7.087 2.16-12.756 5.805-15.219 1.811-1.224 3.69-1.613 5.347-1.182 1.639.426 3.365 1.733 4.724 4.519 1.369 2.805 2.317 7.033 2.349 13.042.032 5.994-.848 13.68-3.06 23.335zm0 0-.881 1.338c17.943 11.807 47.066 15.83 75.703 8.985 28.701-6.86 57.143-24.69 73.615-56.89l-1.426-.73-1.426-.73c-15.974 31.23-43.555 48.553-71.508 55.235-28.017 6.697-56.176 2.654-73.197-8.546z"/></svg>