<svg width="1320" height="99" viewBox="0 0 1320 99" fill="none" xmlns="http://www.w3.org/2000/svg">
<path d="M1149.33 11C1149.33 16.891 1154.11 21.6667 1160 21.6667C1165.89 21.6667 1170.67 16.891 1170.67 11C1170.67 5.10896 1165.89 0.333333 1160 0.333333C1154.11 0.333333 1149.33 5.10896 1149.33 11ZM1160 48.6444V50.6444H1162V48.6444H1160ZM160 48.6444V46.6444H158V48.6444H160ZM149.333 88C149.333 93.891 154.109 98.6667 160 98.6667C165.891 98.6667 170.667 93.891 170.667 88C170.667 82.109 165.891 77.3333 160 77.3333C154.109 77.3333 149.333 82.109 149.333 88ZM162 83.0806C162 81.976 161.105 81.0806 160 81.0806C158.895 81.0806 158 81.976 158 83.0806H162ZM158 73.2417C158 74.3462 158.895 75.2417 160 75.2417C161.105 75.2417 162 74.3462 162 73.2417H158ZM162 63.4028C162 62.2982 161.105 61.4028 160 61.4028C158.895 61.4028 158 62.2982 158 63.4028H162ZM158 53.5639C158 54.6685 158.895 55.5639 160 55.5639C161.105 55.5639 162 54.6685 162 53.5639H158ZM164.464 50.6444C165.569 50.6444 166.464 49.749 166.464 48.6444C166.464 47.5399 165.569 46.6444 164.464 46.6444V50.6444ZM173.393 46.6444C172.288 46.6444 171.393 47.5399 171.393 48.6444C171.393 49.749 172.288 50.6444 173.393 50.6444V46.6444ZM182.321 50.6444C183.426 50.6444 184.321 49.749 184.321 48.6444C184.321 47.5399 183.426 46.6444 182.321 46.6444V50.6444ZM191.25 46.6444C190.145 46.6444 189.25 47.5399 189.25 48.6444C189.25 49.749 190.145 50.6444 191.25 50.6444V46.6444ZM200.179 50.6444C201.283 50.6444 202.179 49.749 202.179 48.6444C202.179 47.5399 201.283 46.6444 200.179 46.6444V50.6444ZM209.107 46.6444C208.003 46.6444 207.107 47.5399 207.107 48.6444C207.107 49.749 208.003 50.6444 209.107 50.6444V46.6444ZM218.036 50.6444C219.14 50.6444 220.036 49.749 220.036 48.6444C220.036 47.5399 219.14 46.6444 218.036 46.6444V50.6444ZM226.964 46.6444C225.86 46.6444 224.964 47.5399 224.964 48.6444C224.964 49.749 225.86 50.6444 226.964 50.6444V46.6444ZM235.893 50.6444C236.997 50.6444 237.893 49.749 237.893 48.6444C237.893 47.5399 236.997 46.6444 235.893 46.6444V50.6444ZM244.821 46.6444C243.717 46.6444 242.821 47.5399 242.821 48.6444C242.821 49.749 243.717 50.6444 244.821 50.6444V46.6444ZM253.75 50.6444C254.855 50.6444 255.75 49.749 255.75 48.6444C255.75 47.5399 254.855 46.6444 253.75 46.6444V50.6444ZM262.679 46.6444C261.574 46.6444 260.679 47.5399 260.679 48.6444C260.679 49.749 261.574 50.6444 262.679 50.6444V46.6444ZM271.607 50.6444C272.712 50.6444 273.607 49.749 273.607 48.6444C273.607 47.5399 272.712 46.6444 271.607 46.6444V50.6444ZM280.536 46.6444C279.431 46.6444 278.536 47.5399 278.536 48.6444C278.536 49.749 279.431 50.6444 280.536 50.6444V46.6444ZM289.464 50.6444C290.569 50.6444 291.464 49.749 291.464 48.6444C291.464 47.5399 290.569 46.6444 289.464 46.6444V50.6444ZM298.393 46.6444C297.288 46.6444 296.393 47.5399 296.393 48.6444C296.393 49.749 297.288 50.6444 298.393 50.6444V46.6444ZM307.321 50.6444C308.426 50.6444 309.321 49.749 309.321 48.6444C309.321 47.5399 308.426 46.6444 307.321 46.6444V50.6444ZM316.25 46.6444C315.145 46.6444 314.25 47.5399 314.25 48.6444C314.25 49.749 315.145 50.6444 316.25 50.6444V46.6444ZM325.179 50.6444C326.283 50.6444 327.179 49.749 327.179 48.6444C327.179 47.5399 326.283 46.6444 325.179 46.6444V50.6444ZM334.107 46.6444C333.003 46.6444 332.107 47.5399 332.107 48.6444C332.107 49.749 333.003 50.6444 334.107 50.6444V46.6444ZM343.036 50.6444C344.14 50.6444 345.036 49.749 345.036 48.6444C345.036 47.5399 344.14 46.6444 343.036 46.6444V50.6444ZM351.964 46.6444C350.86 46.6444 349.964 47.5399 349.964 48.6444C349.964 49.749 350.86 50.6444 351.964 50.6444V46.6444ZM360.893 50.6444C361.997 50.6444 362.893 49.749 362.893 48.6444C362.893 47.5399 361.997 46.6444 360.893 46.6444V50.6444ZM369.821 46.6444C368.717 46.6444 367.821 47.5399 367.821 48.6444C367.821 49.749 368.717 50.6444 369.821 50.6444V46.6444ZM378.75 50.6444C379.855 50.6444 380.75 49.749 380.75 48.6444C380.75 47.5399 379.855 46.6444 378.75 46.6444V50.6444ZM387.679 46.6444C386.574 46.6444 385.679 47.5399 385.679 48.6444C385.679 49.749 386.574 50.6444 387.679 50.6444V46.6444ZM396.607 50.6444C397.712 50.6444 398.607 49.749 398.607 48.6444C398.607 47.5399 397.712 46.6444 396.607 46.6444V50.6444ZM405.536 46.6444C404.431 46.6444 403.536 47.5399 403.536 48.6444C403.536 49.749 404.431 50.6444 405.536 50.6444V46.6444ZM414.464 50.6444C415.569 50.6444 416.464 49.749 416.464 48.6444C416.464 47.5399 415.569 46.6444 414.464 46.6444V50.6444ZM423.393 46.6444C422.288 46.6444 421.393 47.5399 421.393 48.6444C421.393 49.749 422.288 50.6444 423.393 50.6444V46.6444ZM432.321 50.6444C433.426 50.6444 434.321 49.749 434.321 48.6444C434.321 47.5399 433.426 46.6444 432.321 46.6444V50.6444ZM441.25 46.6444C440.145 46.6444 439.25 47.5399 439.25 48.6444C439.25 49.749 440.145 50.6444 441.25 50.6444V46.6444ZM450.179 50.6444C451.283 50.6444 452.179 49.749 452.179 48.6444C452.179 47.5399 451.283 46.6444 450.179 46.6444V50.6444ZM459.107 46.6444C458.003 46.6444 457.107 47.5399 457.107 48.6444C457.107 49.749 458.003 50.6444 459.107 50.6444V46.6444ZM468.036 50.6444C469.14 50.6444 470.036 49.749 470.036 48.6444C470.036 47.5399 469.14 46.6444 468.036 46.6444V50.6444ZM476.964 46.6444C475.86 46.6444 474.964 47.5399 474.964 48.6444C474.964 49.749 475.86 50.6444 476.964 50.6444V46.6444ZM485.893 50.6444C486.997 50.6444 487.893 49.749 487.893 48.6444C487.893 47.5399 486.997 46.6444 485.893 46.6444V50.6444ZM494.821 46.6444C493.717 46.6444 492.821 47.5399 492.821 48.6444C492.821 49.749 493.717 50.6444 494.821 50.6444V46.6444ZM503.75 50.6444C504.854 50.6444 505.75 49.749 505.75 48.6444C505.75 47.5399 504.854 46.6444 503.75 46.6444V50.6444ZM512.678 46.6444C511.574 46.6444 510.678 47.5399 510.678 48.6444C510.678 49.749 511.574 50.6444 512.678 50.6444V46.6444ZM521.607 50.6444C522.712 50.6444 523.607 49.749 523.607 48.6444C523.607 47.5399 522.712 46.6444 521.607 46.6444V50.6444ZM530.536 46.6444C529.431 46.6444 528.536 47.5399 528.536 48.6444C528.536 49.749 529.431 50.6444 530.536 50.6444V46.6444ZM539.464 50.6444C540.569 50.6444 541.464 49.749 541.464 48.6444C541.464 47.5399 540.569 46.6444 539.464 46.6444V50.6444ZM548.393 46.6444C547.288 46.6444 546.393 47.5399 546.393 48.6444C546.393 49.749 547.288 50.6444 548.393 50.6444V46.6444ZM557.321 50.6444C558.426 50.6444 559.321 49.749 559.321 48.6444C559.321 47.5399 558.426 46.6444 557.321 46.6444V50.6444ZM566.25 46.6444C565.145 46.6444 564.25 47.5399 564.25 48.6444C564.25 49.749 565.145 50.6444 566.25 50.6444V46.6444ZM575.178 50.6444C576.283 50.6444 577.178 49.749 577.178 48.6444C577.178 47.5399 576.283 46.6444 575.178 46.6444V50.6444ZM584.107 46.6444C583.002 46.6444 582.107 47.5399 582.107 48.6444C582.107 49.749 583.002 50.6444 584.107 50.6444V46.6444ZM593.036 50.6444C594.14 50.6444 595.036 49.749 595.036 48.6444C595.036 47.5399 594.14 46.6444 593.036 46.6444V50.6444ZM601.964 46.6444C600.86 46.6444 599.964 47.5399 599.964 48.6444C599.964 49.749 600.86 50.6444 601.964 50.6444V46.6444ZM610.893 50.6444C611.997 50.6444 612.893 49.749 612.893 48.6444C612.893 47.5399 611.997 46.6444 610.893 46.6444V50.6444ZM619.821 46.6444C618.717 46.6444 617.821 47.5399 617.821 48.6444C617.821 49.749 618.717 50.6444 619.821 50.6444V46.6444ZM628.75 50.6444C629.854 50.6444 630.75 49.749 630.75 48.6444C630.75 47.5399 629.854 46.6444 628.75 46.6444V50.6444ZM637.678 46.6444C636.574 46.6444 635.678 47.5399 635.678 48.6444C635.678 49.749 636.574 50.6444 637.678 50.6444V46.6444ZM646.607 50.6444C647.711 50.6444 648.607 49.749 648.607 48.6444C648.607 47.5399 647.711 46.6444 646.607 46.6444V50.6444ZM655.535 46.6444C654.431 46.6444 653.535 47.5399 653.535 48.6444C653.535 49.749 654.431 50.6444 655.535 50.6444V46.6444ZM664.464 50.6444C665.569 50.6444 666.464 49.749 666.464 48.6444C666.464 47.5399 665.569 46.6444 664.464 46.6444V50.6444ZM673.393 46.6444C672.288 46.6444 671.393 47.5399 671.393 48.6444C671.393 49.749 672.288 50.6444 673.393 50.6444V46.6444ZM682.321 50.6444C683.426 50.6444 684.321 49.749 684.321 48.6444C684.321 47.5399 683.426 46.6444 682.321 46.6444V50.6444ZM691.25 46.6444C690.145 46.6444 689.25 47.5399 689.25 48.6444C689.25 49.749 690.145 50.6444 691.25 50.6444V46.6444ZM700.178 50.6444C701.283 50.6444 702.178 49.749 702.178 48.6444C702.178 47.5399 701.283 46.6444 700.178 46.6444V50.6444ZM709.107 46.6444C708.002 46.6444 707.107 47.5399 707.107 48.6444C707.107 49.749 708.002 50.6444 709.107 50.6444V46.6444ZM718.036 50.6444C719.14 50.6444 720.036 49.749 720.036 48.6444C720.036 47.5399 719.14 46.6444 718.036 46.6444V50.6444ZM726.964 46.6444C725.86 46.6444 724.964 47.5399 724.964 48.6444C724.964 49.749 725.86 50.6444 726.964 50.6444V46.6444ZM735.893 50.6444C736.997 50.6444 737.893 49.749 737.893 48.6444C737.893 47.5399 736.997 46.6444 735.893 46.6444V50.6444ZM744.821 46.6444C743.717 46.6444 742.821 47.5399 742.821 48.6444C742.821 49.749 743.717 50.6444 744.821 50.6444V46.6444ZM753.75 50.6444C754.854 50.6444 755.75 49.749 755.75 48.6444C755.75 47.5399 754.854 46.6444 753.75 46.6444V50.6444ZM762.678 46.6444C761.574 46.6444 760.678 47.5399 760.678 48.6444C760.678 49.749 761.574 50.6444 762.678 50.6444V46.6444ZM771.607 50.6444C772.712 50.6444 773.607 49.749 773.607 48.6444C773.607 47.5399 772.712 46.6444 771.607 46.6444V50.6444ZM780.536 46.6444C779.431 46.6444 778.536 47.5399 778.536 48.6444C778.536 49.749 779.431 50.6444 780.536 50.6444V46.6444ZM789.464 50.6444C790.569 50.6444 791.464 49.749 791.464 48.6444C791.464 47.5399 790.569 46.6444 789.464 46.6444V50.6444ZM798.393 46.6444C797.288 46.6444 796.393 47.5399 796.393 48.6444C796.393 49.749 797.288 50.6444 798.393 50.6444V46.6444ZM807.321 50.6444C808.426 50.6444 809.321 49.749 809.321 48.6444C809.321 47.5399 808.426 46.6444 807.321 46.6444V50.6444ZM816.25 46.6444C815.145 46.6444 814.25 47.5399 814.25 48.6444C814.25 49.749 815.145 50.6444 816.25 50.6444V46.6444ZM825.179 50.6444C826.283 50.6444 827.179 49.749 827.179 48.6444C827.179 47.5399 826.283 46.6444 825.179 46.6444V50.6444ZM834.107 46.6444C833.003 46.6444 832.107 47.5399 832.107 48.6444C832.107 49.749 833.003 50.6444 834.107 50.6444V46.6444ZM843.036 50.6444C844.14 50.6444 845.036 49.749 845.036 48.6444C845.036 47.5399 844.14 46.6444 843.036 46.6444V50.6444ZM851.964 46.6444C850.86 46.6444 849.964 47.5399 849.964 48.6444C849.964 49.749 850.86 50.6444 851.964 50.6444V46.6444ZM860.893 50.6444C861.998 50.6444 862.893 49.749 862.893 48.6444C862.893 47.5399 861.998 46.6444 860.893 46.6444V50.6444ZM869.822 46.6444C868.717 46.6444 867.822 47.5399 867.822 48.6444C867.822 49.749 868.717 50.6444 869.822 50.6444V46.6444ZM878.75 50.6444C879.855 50.6444 880.75 49.749 880.75 48.6444C880.75 47.5399 879.855 46.6444 878.75 46.6444V50.6444ZM887.679 46.6444C886.574 46.6444 885.679 47.5399 885.679 48.6444C885.679 49.749 886.574 50.6444 887.679 50.6444V46.6444ZM896.607 50.6444C897.712 50.6444 898.607 49.749 898.607 48.6444C898.607 47.5399 897.712 46.6444 896.607 46.6444V50.6444ZM905.536 46.6444C904.431 46.6444 903.536 47.5399 903.536 48.6444C903.536 49.749 904.431 50.6444 905.536 50.6444V46.6444ZM914.464 50.6444C915.569 50.6444 916.464 49.749 916.464 48.6444C916.464 47.5399 915.569 46.6444 914.464 46.6444V50.6444ZM923.393 46.6444C922.289 46.6444 921.393 47.5399 921.393 48.6444C921.393 49.749 922.289 50.6444 923.393 50.6444V46.6444ZM932.322 50.6444C933.426 50.6444 934.322 49.749 934.322 48.6444C934.322 47.5399 933.426 46.6444 932.322 46.6444V50.6444ZM941.25 46.6444C940.146 46.6444 939.25 47.5399 939.25 48.6444C939.25 49.749 940.146 50.6444 941.25 50.6444V46.6444ZM950.179 50.6444C951.283 50.6444 952.179 49.749 952.179 48.6444C952.179 47.5399 951.283 46.6444 950.179 46.6444V50.6444ZM959.107 46.6444C958.003 46.6444 957.107 47.5399 957.107 48.6444C957.107 49.749 958.003 50.6444 959.107 50.6444V46.6444ZM968.036 50.6444C969.141 50.6444 970.036 49.749 970.036 48.6444C970.036 47.5399 969.141 46.6444 968.036 46.6444V50.6444ZM976.965 46.6444C975.86 46.6444 974.965 47.5399 974.965 48.6444C974.965 49.749 975.86 50.6444 976.965 50.6444V46.6444ZM985.893 50.6444C986.998 50.6444 987.893 49.749 987.893 48.6444C987.893 47.5399 986.998 46.6444 985.893 46.6444V50.6444ZM994.822 46.6444C993.717 46.6444 992.822 47.5399 992.822 48.6444C992.822 49.749 993.717 50.6444 994.822 50.6444V46.6444ZM1003.75 50.6444C1004.85 50.6444 1005.75 49.749 1005.75 48.6444C1005.75 47.5399 1004.85 46.6444 1003.75 46.6444V50.6444ZM1012.68 46.6444C1011.57 46.6444 1010.68 47.5399 1010.68 48.6444C1010.68 49.749 1011.57 50.6444 1012.68 50.6444V46.6444ZM1021.61 50.6444C1022.71 50.6444 1023.61 49.749 1023.61 48.6444C1023.61 47.5399 1022.71 46.6444 1021.61 46.6444V50.6444ZM1030.54 46.6444C1029.43 46.6444 1028.54 47.5399 1028.54 48.6444C1028.54 49.749 1029.43 50.6444 1030.54 50.6444V46.6444ZM1039.46 50.6444C1040.57 50.6444 1041.46 49.749 1041.46 48.6444C1041.46 47.5399 1040.57 46.6444 1039.46 46.6444V50.6444ZM1048.39 46.6444C1047.29 46.6444 1046.39 47.5399 1046.39 48.6444C1046.39 49.749 1047.29 50.6444 1048.39 50.6444V46.6444ZM1057.32 50.6444C1058.43 50.6444 1059.32 49.749 1059.32 48.6444C1059.32 47.5399 1058.43 46.6444 1057.32 46.6444V50.6444ZM1066.25 46.6444C1065.15 46.6444 1064.25 47.5399 1064.25 48.6444C1064.25 49.749 1065.15 50.6444 1066.25 50.6444V46.6444ZM1075.18 50.6444C1076.28 50.6444 1077.18 49.749 1077.18 48.6444C1077.18 47.5399 1076.28 46.6444 1075.18 46.6444V50.6444ZM1084.11 46.6444C1083 46.6444 1082.11 47.5399 1082.11 48.6444C1082.11 49.749 1083 50.6444 1084.11 50.6444V46.6444ZM1093.04 50.6444C1094.14 50.6444 1095.04 49.749 1095.04 48.6444C1095.04 47.5399 1094.14 46.6444 1093.04 46.6444V50.6444ZM1101.96 46.6444C1100.86 46.6444 1099.96 47.5399 1099.96 48.6444C1099.96 49.749 1100.86 50.6444 1101.96 50.6444V46.6444ZM1110.89 50.6444C1112 50.6444 1112.89 49.749 1112.89 48.6444C1112.89 47.5399 1112 46.6444 1110.89 46.6444V50.6444ZM1119.82 46.6444C1118.72 46.6444 1117.82 47.5399 1117.82 48.6444C1117.82 49.749 1118.72 50.6444 1119.82 50.6444V46.6444ZM1128.75 50.6444C1129.86 50.6444 1130.75 49.749 1130.75 48.6444C1130.75 47.5399 1129.86 46.6444 1128.75 46.6444V50.6444ZM1137.68 46.6444C1136.57 46.6444 1135.68 47.5399 1135.68 48.6444C1135.68 49.749 1136.57 50.6444 1137.68 50.6444V46.6444ZM1146.61 50.6444C1147.71 50.6444 1148.61 49.749 1148.61 48.6444C1148.61 47.5399 1147.71 46.6444 1146.61 46.6444V50.6444ZM1155.54 46.6444C1154.43 46.6444 1153.54 47.5399 1153.54 48.6444C1153.54 49.749 1154.43 50.6444 1155.54 50.6444V46.6444ZM1162 43.9389C1162 42.8343 1161.1 41.9389 1160 41.9389C1158.9 41.9389 1158 42.8343 1158 43.9389H1162ZM1158 34.5278C1158 35.6323 1158.9 36.5278 1160 36.5278C1161.1 36.5278 1162 35.6323 1162 34.5278H1158ZM1162 25.1167C1162 24.0121 1161.1 23.1167 1160 23.1167C1158.9 23.1167 1158 24.0121 1158 25.1167H1162ZM1158 15.7056C1158 16.8101 1158.9 17.7056 1160 17.7056C1161.1 17.7056 1162 16.8101 1162 15.7056H1158ZM160 88H162V83.0806H160H158V88H160ZM160 73.2417H162V63.4028H160H158V73.2417H160ZM160 53.5639H162V48.6444H160H158V53.5639H160ZM160 48.6444V50.6444H164.464V48.6444V46.6444H160V48.6444ZM173.393 48.6444V50.6444H182.321V48.6444V46.6444H173.393V48.6444ZM191.25 48.6444V50.6444H200.179V48.6444V46.6444H191.25V48.6444ZM209.107 48.6444V50.6444H218.036V48.6444V46.6444H209.107V48.6444ZM226.964 48.6444V50.6444H235.893V48.6444V46.6444H226.964V48.6444ZM244.821 48.6444V50.6444H253.75V48.6444V46.6444H244.821V48.6444ZM262.679 48.6444V50.6444H271.607V48.6444V46.6444H262.679V48.6444ZM280.536 48.6444V50.6444H289.464V48.6444V46.6444H280.536V48.6444ZM298.393 48.6444V50.6444H307.321V48.6444V46.6444H298.393V48.6444ZM316.25 48.6444V50.6444H325.179V48.6444V46.6444H316.25V48.6444ZM334.107 48.6444V50.6444H343.036V48.6444V46.6444H334.107V48.6444ZM351.964 48.6444V50.6444H360.893V48.6444V46.6444H351.964V48.6444ZM369.821 48.6444V50.6444H378.75V48.6444V46.6444H369.821V48.6444ZM387.679 48.6444V50.6444H396.607V48.6444V46.6444H387.679V48.6444ZM405.536 48.6444V50.6444H414.464V48.6444V46.6444H405.536V48.6444ZM423.393 48.6444V50.6444H432.321V48.6444V46.6444H423.393V48.6444ZM441.25 48.6444V50.6444H450.179V48.6444V46.6444H441.25V48.6444ZM459.107 48.6444V50.6444H468.036V48.6444V46.6444H459.107V48.6444ZM476.964 48.6444V50.6444H485.893V48.6444V46.6444H476.964V48.6444ZM494.821 48.6444V50.6444H503.75V48.6444V46.6444H494.821V48.6444ZM512.678 48.6444V50.6444H521.607V48.6444V46.6444H512.678V48.6444ZM530.536 48.6444V50.6444H539.464V48.6444V46.6444H530.536V48.6444ZM548.393 48.6444V50.6444H557.321V48.6444V46.6444H548.393V48.6444ZM566.25 48.6444V50.6444H575.178V48.6444V46.6444H566.25V48.6444ZM584.107 48.6444V50.6444H593.036V48.6444V46.6444H584.107V48.6444ZM601.964 48.6444V50.6444H610.893V48.6444V46.6444H601.964V48.6444ZM619.821 48.6444V50.6444H628.75V48.6444V46.6444H619.821V48.6444ZM637.678 48.6444V50.6444H646.607V48.6444V46.6444H637.678V48.6444ZM655.535 48.6444V50.6444H664.464V48.6444V46.6444H655.535V48.6444ZM673.393 48.6444V50.6444H682.321V48.6444V46.6444H673.393V48.6444ZM691.25 48.6444V50.6444H700.178V48.6444V46.6444H691.25V48.6444ZM709.107 48.6444V50.6444H718.036V48.6444V46.6444H709.107V48.6444ZM726.964 48.6444V50.6444H735.893V48.6444V46.6444H726.964V48.6444ZM744.821 48.6444V50.6444H753.75V48.6444V46.6444H744.821V48.6444ZM762.678 48.6444V50.6444H771.607V48.6444V46.6444H762.678V48.6444ZM780.536 48.6444V50.6444H789.464V48.6444V46.6444H780.536V48.6444ZM798.393 48.6444V50.6444H807.321V48.6444V46.6444H798.393V48.6444ZM816.25 48.6444V50.6444H825.179V48.6444V46.6444H816.25V48.6444ZM834.107 48.6444V50.6444H843.036V48.6444V46.6444H834.107V48.6444ZM851.964 48.6444V50.6444H860.893V48.6444V46.6444H851.964V48.6444ZM869.822 48.6444V50.6444H878.75V48.6444V46.6444H869.822V48.6444ZM887.679 48.6444V50.6444H896.607V48.6444V46.6444H887.679V48.6444ZM905.536 48.6444V50.6444H914.464V48.6444V46.6444H905.536V48.6444ZM923.393 48.6444V50.6444H932.322V48.6444V46.6444H923.393V48.6444ZM941.25 48.6444V50.6444H950.179V48.6444V46.6444H941.25V48.6444ZM959.107 48.6444V50.6444H968.036V48.6444V46.6444H959.107V48.6444ZM976.965 48.6444V50.6444H985.893V48.6444V46.6444H976.965V48.6444ZM994.822 48.6444V50.6444H1003.75V48.6444V46.6444H994.822V48.6444ZM1012.68 48.6444V50.6444H1021.61V48.6444V46.6444H1012.68V48.6444ZM1030.54 48.6444V50.6444H1039.46V48.6444V46.6444H1030.54V48.6444ZM1048.39 48.6444V50.6444H1057.32V48.6444V46.6444H1048.39V48.6444ZM1066.25 48.6444V50.6444H1075.18V48.6444V46.6444H1066.25V48.6444ZM1084.11 48.6444V50.6444H1093.04V48.6444V46.6444H1084.11V48.6444ZM1101.96 48.6444V50.6444H1110.89V48.6444V46.6444H1101.96V48.6444ZM1119.82 48.6444V50.6444H1128.75V48.6444V46.6444H1119.82V48.6444ZM1137.68 48.6444V50.6444H1146.61V48.6444V46.6444H1137.68V48.6444ZM1155.54 48.6444V50.6444H1160V48.6444V46.6444H1155.54V48.6444ZM1160 48.6444H1162V43.9389H1160H1158V48.6444H1160ZM1160 34.5278H1162V25.1167H1160H1158V34.5278H1160ZM1160 15.7056H1162V11H1160H1158V15.7056H1160Z" fill="#D5D7DA"/>
</svg>
