<svg xmlns="http://www.w3.org/2000/svg" width="1320" height="99" fill="none"><path fill="#D5D7DA" d="M1149.33 11c0 5.891 4.78 10.667 10.67 10.667s10.67-4.776 10.67-10.667S1165.89.333 1160 .333 1149.33 5.11 1149.33 11M1160 48.644v2h2v-2zm-1000 0v-2h-2v2zM149.333 88c0 5.891 4.776 10.667 10.667 10.667S170.667 93.89 170.667 88 165.891 77.333 160 77.333 149.333 82.11 149.333 88M162 83.08a2 2 0 1 0-4 0zm-4-9.838a2 2 0 1 0 4 0zm4-9.84a2 2 0 1 0-4 0zm-4-9.838a2 2 0 1 0 4 0zm6.464-2.92a2 2 0 1 0 0-4zm8.929-4a2 2 0 1 0 0 4zm8.928 4a2 2 0 1 0 0-4zm8.929-4a2 2 0 1 0 0 4zm8.929 4a2 2 0 0 0 0-4zm8.928-4a2 2 0 0 0 0 4zm8.929 4a2 2 0 0 0 0-4zm8.928-4a2 2 0 0 0 0 4zm8.929 4a2 2 0 0 0 0-4zm8.928-4a2 2 0 0 0 0 4zm8.929 4a2 2 0 1 0 0-4zm8.929-4a2 2 0 1 0 0 4zm8.928 4a2 2 0 1 0 0-4zm8.929-4a2 2 0 1 0 0 4zm8.928 4a2 2 0 1 0 0-4zm8.929-4a2 2 0 1 0 0 4zm8.928 4a2 2 0 1 0 0-4zm8.929-4a2 2 0 1 0 0 4zm8.929 4a2 2 0 0 0 0-4zm8.928-4a2 2 0 0 0 0 4zm8.929 4a2 2 0 0 0 0-4zm8.928-4a2 2 0 0 0 0 4zm8.929 4a2 2 0 0 0 0-4zm8.928-4a2 2 0 0 0 0 4zm8.929 4a2 2 0 1 0 0-4zm8.929-4a2 2 0 1 0 0 4zm8.928 4a2 2 0 1 0 0-4zm8.929-4a2 2 0 1 0 0 4zm8.928 4a2 2 0 1 0 0-4zm8.929-4a2 2 0 1 0 0 4zm8.928 4a2 2 0 1 0 0-4zm8.929-4a2 2 0 1 0 0 4zm8.929 4a2 2 0 0 0 0-4zm8.928-4a2 2 0 0 0 0 4zm8.929 4a2 2 0 0 0 0-4zm8.928-4a2 2 0 0 0 0 4zm8.929 4a2 2 0 0 0 0-4zm8.928-4a2 2 0 0 0 0 4zm8.929 4a2 2 0 0 0 0-4zm8.928-4a2 2 0 0 0 0 4zm8.929 4a2 2 0 1 0 0-4zm8.929-4a2 2 0 1 0 0 4zm8.928 4a2 2 0 1 0 0-4zm8.929-4a2 2 0 1 0 0 4zm8.928 4a2 2 0 1 0 0-4zm8.929-4a2 2 0 1 0 0 4zm8.928 4a2 2 0 1 0 0-4zm8.929-4a2 2 0 1 0 0 4zm8.929 4a2 2 0 0 0 0-4zm8.928-4a2 2 0 0 0 0 4zm8.929 4a2 2 0 0 0 0-4zm8.928-4a2 2 0 0 0 0 4zm8.929 4a2 2 0 0 0 0-4zm8.928-4a2 2 0 0 0 0 4zm8.929 4a2 2 0 0 0 0-4zm8.928-4a2 2 0 0 0 0 4zm8.929 4a2 2 0 1 0 0-4zm8.929-4a2 2 0 1 0 0 4zm8.928 4a2 2 0 1 0 0-4zm8.929-4a2 2 0 1 0 0 4zm8.928 4a2 2 0 1 0 0-4zm8.929-4a2 2 0 1 0 0 4zm8.929 4a2 2 0 0 0 0-4zm8.928-4a2 2 0 0 0 0 4zm8.929 4a2 2 0 0 0 0-4zm8.928-4a2 2 0 0 0 0 4zm8.929 4a2 2 0 0 0 0-4zm8.928-4a2 2 0 0 0 0 4zm8.929 4a2 2 0 1 0 0-4zm8.929-4a2 2 0 1 0 0 4zm8.928 4a2 2 0 1 0 0-4zm8.929-4a2 2 0 1 0 0 4zm8.928 4a2 2 0 1 0 0-4zm8.929-4a2 2 0 1 0 0 4zm8.929 4a2 2 0 0 0 0-4zm8.928-4a2 2 0 0 0 0 4zm8.929 4a2 2 0 0 0 0-4zm8.928-4a2 2 0 0 0 0 4zm8.929 4a2 2 0 1 0 0-4zm8.929-4a2 2 0 1 0 0 4zm8.928 4a2 2 0 1 0 0-4zm8.929-4a2 2 0 1 0 0 4zm8.928 4a2 2 0 1 0 0-4zm8.929-4a2 2 0 1 0 0 4zm8.928 4a2 2 0 1 0 0-4zm8.929-4a2 2 0 0 0 0 4zm8.929 4a2 2 0 0 0 0-4zm8.928-4a2 2 0 0 0 0 4zm8.929 4a2 2 0 0 0 0-4zm8.928-4a2 2 0 0 0 0 4zm8.929 4a2 2 0 1 0 0-4zm8.929-4a2 2 0 1 0 0 4zm8.928 4a2 2 0 1 0 0-4zm8.929-4a2 2 0 1 0 0 4zm8.928 4c1.1 0 2-.895 2-2s-.9-2-2-2zm8.93-4c-1.11 0-2 .896-2 2s.89 2 2 2zm8.93 4c1.1 0 2-.895 2-2s-.9-2-2-2zm8.93-4c-1.11 0-2 .896-2 2s.89 2 2 2zm8.92 4c1.11 0 2-.895 2-2s-.89-2-2-2zm8.93-4c-1.1 0-2 .896-2 2s.9 2 2 2zm8.93 4c1.11 0 2-.895 2-2s-.89-2-2-2zm8.93-4c-1.1 0-2 .896-2 2s.9 2 2 2zm8.93 4c1.1 0 2-.895 2-2s-.9-2-2-2zm8.93-4c-1.11 0-2 .896-2 2s.89 2 2 2zm8.93 4c1.1 0 2-.895 2-2s-.9-2-2-2zm8.92-4c-1.1 0-2 .896-2 2s.9 2 2 2zm8.93 4c1.11 0 2-.895 2-2s-.89-2-2-2zm8.93-4c-1.1 0-2 .896-2 2s.9 2 2 2zm8.93 4c1.11 0 2-.895 2-2s-.89-2-2-2zm8.93-4c-1.11 0-2 .896-2 2s.89 2 2 2zm8.93 4c1.1 0 2-.895 2-2s-.9-2-2-2zm8.93-4c-1.11 0-2 .896-2 2s.89 2 2 2zm6.46-2.705c0-1.105-.9-2-2-2s-2 .895-2 2zm-4-9.411c0 1.104.9 2 2 2s2-.896 2-2zm4-9.411c0-1.105-.9-2-2-2s-2 .895-2 2zm-4-9.411c0 1.104.9 2 2 2s2-.896 2-2zM160 88h2v-4.92h-4V88zm0-14.758h2v-9.84h-4v9.84zm0-19.678h2v-4.92h-4v4.92zm0-4.92v2h4.464v-4H160zm13.393 0v2h8.928v-4h-8.928zm17.857 0v2h8.929v-4h-8.929zm17.857 0v2h8.929v-4h-8.929zm17.857 0v2h8.929v-4h-8.929zm17.857 0v2h8.929v-4h-8.929zm17.858 0v2h8.928v-4h-8.928zm17.857 0v2h8.928v-4h-8.928zm17.857 0v2h8.928v-4h-8.928zm17.857 0v2h8.929v-4h-8.929zm17.857 0v2h8.929v-4h-8.929zm17.857 0v2h8.929v-4h-8.929zm17.857 0v2h8.929v-4h-8.929zm17.858 0v2h8.928v-4h-8.928zm17.857 0v2h8.928v-4h-8.928zm17.857 0v2h8.928v-4h-8.928zm17.857 0v2h8.929v-4h-8.929zm17.857 0v2h8.929v-4h-8.929zm17.857 0v2h8.929v-4h-8.929zm17.857 0v2h8.929v-4h-8.929zm17.857 0v2h8.929v-4h-8.929zm17.858 0v2h8.928v-4h-8.928zm17.857 0v2h8.928v-4h-8.928zm17.857 0v2h8.928v-4h-8.928zm17.857 0v2h8.929v-4h-8.929zm17.857 0v2h8.929v-4h-8.929zm17.857 0v2h8.929v-4h-8.929zm17.857 0v2h8.929v-4h-8.929zm17.857 0v2h8.929v-4h-8.929zm17.858 0v2h8.928v-4h-8.928zm17.857 0v2h8.928v-4h-8.928zm17.857 0v2h8.929v-4h-8.929zm17.857 0v2h8.929v-4h-8.929zm17.857 0v2h8.929v-4h-8.929zm17.857 0v2h8.929v-4h-8.929zm17.858 0v2h8.928v-4h-8.928zm17.857 0v2h8.928v-4h-8.928zm17.857 0v2h8.929v-4h-8.929zm17.857 0v2h8.929v-4h-8.929zm17.857 0v2h8.929v-4h-8.929zm17.858 0v2h8.928v-4h-8.928zm17.857 0v2h8.928v-4h-8.928zm17.857 0v2h8.928v-4h-8.928zm17.857 0v2h8.929v-4h-8.929zm17.857 0v2h8.929v-4h-8.929zm17.857 0v2h8.929v-4h-8.929zm17.858 0v2h8.928v-4h-8.928zm17.857 0v2h8.928v-4h-8.928zm17.858 0v2h8.93v-4h-8.93zm17.86 0v2h8.92v-4h-8.92zm17.85 0v2h8.93v-4h-8.93zm17.86 0v2h8.93v-4h-8.93zm17.86 0v2h8.93v-4h-8.93zm17.85 0v2h8.93v-4h-8.93zm17.86 0v2h8.93v-4h-8.93zm17.86 0v2h8.93v-4h-8.93zm17.86 0v2h4.46v-4h-4.46zm4.46 0h2V43.94h-4v4.705zm0-14.116h2v-9.411h-4v9.41zm0-18.822h2V11h-4v4.706z"/></svg>