<svg xmlns="http://www.w3.org/2000/svg" width="143" height="24" fill="none"><path fill="#D5D7DA" d="M2 10a2 2 0 1 0 0 4zm141 2L123 .453v23.094zM5.917 14a2 2 0 1 0 0-4zm7.833-4a2 2 0 1 0 0 4zm7.833 4a2 2 0 1 0 0-4zm7.834-4a2 2 0 1 0 0 4zm7.833 4a2 2 0 1 0 0-4zm7.833-4a2 2 0 0 0 0 4zm7.834 4a2 2 0 0 0 0-4zm7.833-4a2 2 0 1 0 0 4zm7.833 4a2 2 0 1 0 0-4zm7.834-4a2 2 0 1 0 0 4zm7.833 4a2 2 0 1 0 0-4zm7.833-4a2 2 0 0 0 0 4zm7.834 4a2 2 0 0 0 0-4zm7.833-4a2 2 0 1 0 0 4zm7.833 4a2 2 0 1 0 0-4zm7.834-4a2 2 0 1 0 0 4zm7.833 4a2 2 0 1 0 0-4zm7.833-4a2 2 0 0 0 0 4zM2 12v2h3.917v-4H2zm11.75 0v2h7.833v-4H13.75zm15.667 0v2h7.833v-4h-7.833zm15.666 0v2h7.834v-4h-7.834zm15.667 0v2h7.833v-4H60.75zm15.667 0v2h7.833v-4h-7.833zm15.666 0v2h7.834v-4h-7.834zm15.667 0v2h7.833v-4h-7.833zm15.667 0v2h7.833v-4h-7.833z"/></svg>