<svg width="80" height="80" viewBox="0 0 80 80" fill="none" xmlns="http://www.w3.org/2000/svg">
<rect width="80" height="80" rx="24" fill="#CFE6F5"/>
<path fill-rule="evenodd" clip-rule="evenodd" d="M53.9201 49.39L56.1401 45.64H66.7301L70.0001 40L63.4601 28.75H54.2501L51.0701 23.17H47.5001V19.39H53.3201L56.5001 25H61.2701L54.7001 13.75H41.8901V28.75H47.0801L49.2701 32.5H41.8901V40H48.6701L51.8201 34.39H60.2501L62.4101 38.14H54.0101L50.8601 43.75H41.8901V56.89H52.0901L49.9301 60.64H41.8901V66.25H54.7001L64.5401 49.39H58.2701L56.0801 53.14H47.5001V49.39H53.9201Z" fill="#3797D5"/>
<path opacity="0.4" fill-rule="evenodd" clip-rule="evenodd" d="M26.08 49.39L23.86 45.64H13.27L10 40L16.54 28.75H25.75L28.93 23.17H32.5V19.39H26.68L23.5 25H18.73L25.3 13.75H38.14V28.75H32.92L30.73 32.5H38.14V40H31.33L28.18 34.39H19.75L17.59 38.14H25.99L29.14 43.75H38.14V56.89H27.91L30.07 60.64H38.14V66.25H25.3L15.46 49.39H21.73L23.92 53.14H32.5V49.39H26.08Z" fill="#3797D5"/>
</svg>
