<svg width="80" height="80" viewBox="0 0 80 80" fill="none" xmlns="http://www.w3.org/2000/svg">
<rect width="80" height="80" rx="24" fill="#CFE6F5"/>
<path opacity="0.4" d="M26.1055 45.2442L23.6042 46.6888C21.3948 44.8339 18.1705 44.4535 15.5316 45.9774C12.1528 47.928 10.9977 52.2409 12.9482 55.6187C14.8903 58.9831 19.1956 60.1621 22.5896 58.2022C25.2359 56.6743 26.5177 53.6977 26.0123 50.8559L28.5181 49.4099C27.501 48.1717 26.6814 46.7681 26.1055 45.2442Z" fill="#3797D5"/>
<path d="M53.8944 34.7564L56.3957 33.3119C58.605 35.1666 61.8292 35.5471 64.4684 34.0232C67.8471 32.0726 69.0023 27.7597 67.0518 24.3819C65.1014 21.0032 60.7883 19.8478 57.4103 21.7984C54.7641 23.3261 53.4823 26.3029 53.9877 29.1447L51.482 30.5906C52.4989 31.829 53.3186 33.2325 53.8944 34.7564Z" fill="#3797D5"/>
<path d="M40.0007 28.3545C29.9579 28.3545 24.6404 40.3244 31.3442 47.7764C35.8621 52.7851 43.5581 52.9284 48.2594 48.2C48.2686 48.1905 48.2775 48.1807 48.2868 48.1713C55.4735 40.8886 50.3764 28.3545 40.0007 28.3545Z" fill="#2C79AA"/>
<path opacity="0.4" d="M37.5937 22.4567V25.3436C39.1854 25.0828 40.8136 25.0826 42.4059 25.3436V22.4567C45.1167 21.4707 47.0579 18.8688 47.0579 15.8214C47.0579 11.9297 43.8917 8.76343 39.9998 8.76343C36.1078 8.76343 32.9417 11.9297 32.9417 15.8214C32.9417 18.8688 34.883 21.4707 37.5937 22.4567Z" fill="#3797D5"/>
<path d="M42.4059 57.5437V54.6567C40.8141 54.9176 39.1858 54.9177 37.5937 54.6567V57.5437C34.8829 58.5297 32.9417 61.1316 32.9417 64.179C32.9417 68.0707 36.1077 71.2369 39.9998 71.2369C43.8917 71.2369 47.0579 68.0707 47.0579 64.179C47.0579 61.1316 45.1165 58.5297 42.4059 57.5437Z" fill="#3797D5"/>
<path d="M15.5315 34.0233C18.1716 35.5477 21.3956 35.1659 23.6042 33.3117L26.1055 34.7563C26.6813 33.2324 27.501 31.8288 28.5181 30.5906L26.0123 29.1446C26.5179 26.3025 25.2356 23.3258 22.5896 21.7983C19.211 19.8477 14.8985 21.0038 12.9483 24.3818C10.9973 27.7604 12.1534 32.0731 15.5315 34.0233Z" fill="#3797D5"/>
<path opacity="0.4" d="M64.4683 45.9773C61.8292 44.4536 58.605 44.8338 56.3956 46.6886L53.8943 45.2441C53.3185 46.7679 52.4988 48.1715 51.4818 49.4097L53.9875 50.8558C53.4821 53.6978 54.7642 56.6744 57.4102 58.2021C60.7987 60.1584 65.1061 58.9888 67.0517 55.6187C69.0026 52.2402 67.8465 47.9275 64.4683 45.9773Z" fill="#3797D5"/>
</svg>
