<svg width="11" height="13" viewBox="0 0 11 13" fill="none" xmlns="http://www.w3.org/2000/svg">
<path d="M0 11.375V5H10.5V11.375C10.5 12.0078 9.98438 12.5 9.375 12.5H1.125C0.492188 12.5 0 12.0078 0 11.375ZM7.5 6.875V7.625C7.5 7.83594 7.66406 8 7.875 8H8.625C8.8125 8 9 7.83594 9 7.625V6.875C9 6.6875 8.8125 6.5 8.625 6.5H7.875C7.66406 6.5 7.5 6.6875 7.5 6.875ZM7.5 9.875V10.625C7.5 10.8359 7.66406 11 7.875 11H8.625C8.8125 11 9 10.8359 9 10.625V9.875C9 9.6875 8.8125 9.5 8.625 9.5H7.875C7.66406 9.5 7.5 9.6875 7.5 9.875ZM4.5 6.875V7.625C4.5 7.83594 4.66406 8 4.875 8H5.625C5.8125 8 6 7.83594 6 7.625V6.875C6 6.6875 5.8125 6.5 5.625 6.5H4.875C4.66406 6.5 4.5 6.6875 4.5 6.875ZM4.5 9.875V10.625C4.5 10.8359 4.66406 11 4.875 11H5.625C5.8125 11 6 10.8359 6 10.625V9.875C6 9.6875 5.8125 9.5 5.625 9.5H4.875C4.66406 9.5 4.5 9.6875 4.5 9.875ZM1.5 6.875V7.625C1.5 7.83594 1.66406 8 1.875 8H2.625C2.8125 8 3 7.83594 3 7.625V6.875C3 6.6875 2.8125 6.5 2.625 6.5H1.875C1.66406 6.5 1.5 6.6875 1.5 6.875ZM1.5 9.875V10.625C1.5 10.8359 1.66406 11 1.875 11H2.625C2.8125 11 3 10.8359 3 10.625V9.875C3 9.6875 2.8125 9.5 2.625 9.5H1.875C1.66406 9.5 1.5 9.6875 1.5 9.875ZM9.375 2C9.98438 2 10.5 2.51562 10.5 3.125V4.25H0V3.125C0 2.51562 0.492188 2 1.125 2H2.25V1.25C2.25 0.851562 2.57812 0.5 3 0.5C3.39844 0.5 3.75 0.851562 3.75 1.25V2H6.75V1.25C6.75 0.851562 7.07812 0.5 7.5 0.5C7.89844 0.5 8.25 0.851562 8.25 1.25V2H9.375Z" fill="#717680"/>
</svg>
