<svg width="28" height="27" viewBox="0 0 28 27" fill="none" xmlns="http://www.w3.org/2000/svg">
<path d="M14 0.375C21.2188 0.375 27.125 6.28125 27.125 13.5C27.125 20.7734 21.2188 26.625 14 26.625C6.72656 26.625 0.875 20.7734 0.875 13.5C0.875 6.28125 6.72656 0.375 14 0.375ZM14 24C19.7422 24 24.5 19.2969 24.5 13.5C24.5 7.75781 19.7422 3 14 3C8.20312 3 3.5 7.75781 3.5 13.5C3.5 19.2969 8.20312 24 14 24ZM18.3203 9.125C18.8125 8.57812 19.6328 8.57812 20.125 9.125C20.6719 9.61719 20.6719 10.4375 20.125 10.9297L13.125 17.9297C12.9062 18.2031 12.5781 18.3125 12.25 18.3125C11.8672 18.3125 11.5391 18.2031 11.3203 17.9297L7.82031 14.4297C7.27344 13.9375 7.27344 13.1172 7.82031 12.625C8.3125 12.0781 9.13281 12.0781 9.625 12.625L12.25 15.1953L18.3203 9.125Z" fill="#262626"/>
</svg>
