<svg width="36" height="36" viewBox="0 0 36 36" fill="none" xmlns="http://www.w3.org/2000/svg">
<path opacity="0.5" d="M0 18C0 9.51471 -2.14577e-07 5.27207 2.63605 2.63605C5.27207 -2.14577e-07 9.51471 0 18 0C26.4852 0 30.728 -2.14577e-07 33.3639 2.63605C36 5.27207 36 9.51471 36 18C36 26.4852 36 30.728 33.3639 33.3639C30.728 36 26.4852 36 18 36C9.51471 36 5.27207 36 2.63605 33.3639C-2.14577e-07 30.728 0 26.4852 0 18Z" fill="#87C1E6"/>
<path d="M20.6786 8.00264C21.3988 8.1956 21.8261 8.93586 21.6331 9.65604L16.9744 27.0427C16.7814 27.7628 16.0411 28.1903 15.3209 27.9974C14.6007 27.8042 14.1734 27.0641 14.3664 26.3439L19.0251 8.95723C19.2181 8.23705 19.9584 7.80966 20.6786 8.00264Z" fill="#3797D5"/>
<path d="M23.3454 11.6454C23.8726 11.1182 24.7273 11.1182 25.2545 11.6454L25.6296 12.0204C26.7732 13.1639 27.7268 14.1175 28.382 14.9764C29.0737 15.8828 29.5588 16.8406 29.5588 18C29.5588 19.1594 29.0737 20.1172 28.382 21.0236C27.7268 21.8824 26.7732 22.8361 25.6296 23.9796L25.2545 24.3545C24.7273 24.8818 23.8726 24.8818 23.3454 24.3545C22.8182 23.8273 22.8182 22.9727 23.3454 22.4455L23.6541 22.1366C24.8812 20.9095 25.7034 20.0833 26.2355 19.3858C26.7438 18.7196 26.8588 18.3317 26.8588 18C26.8588 17.6683 26.7438 17.2804 26.2355 16.6142C25.7034 15.9167 24.8812 15.0905 23.6541 13.8634L23.3454 13.5546C22.8182 13.0274 22.8182 12.1726 23.3454 11.6454Z" fill="#3797D5"/>
<path d="M10.7458 11.6454C11.273 11.1182 12.1277 11.1182 12.6549 11.6454C13.1821 12.1726 13.1821 13.0274 12.6549 13.5546L12.3461 13.8634C11.1191 15.0905 10.2969 15.9167 9.76479 16.6142C9.25642 17.2804 9.14151 17.6683 9.14151 18C9.14151 18.3317 9.25642 18.7196 9.76479 19.3858C10.2969 20.0833 11.1191 20.9095 12.3461 22.1366L12.6549 22.4455C13.1821 22.9727 13.1821 23.8273 12.6549 24.3545C12.1277 24.8818 11.273 24.8818 10.7458 24.3545L10.3707 23.9796C9.22711 22.8361 8.27349 21.8824 7.61824 21.0236C6.92661 20.1172 6.44151 19.1594 6.44151 18C6.44151 16.8406 6.92661 15.8828 7.61824 14.9764C8.27349 14.1175 9.22711 13.164 10.3707 12.0204L10.7458 11.6454Z" fill="#3797D5"/>
</svg>
