<svg width="80" height="80" viewBox="0 0 80 80" fill="none" xmlns="http://www.w3.org/2000/svg">
<rect width="80" height="80" rx="24" fill="#CFE6F5"/>
<path opacity="0.4" d="M67.2569 38.7678V56.1447C67.2569 64.1514 60.7586 70.6496 52.7518 70.6496H27.3967C19.3899 70.6496 12.8916 64.1514 12.8916 56.1447V38.9709C15.0964 41.3497 18.2295 42.7132 21.6237 42.7132C25.279 42.7132 28.7892 40.8856 30.994 37.9556C32.9667 40.8856 36.332 42.7132 40.0743 42.7132C43.7876 42.7132 47.0948 40.9726 49.0965 38.0716C51.3303 40.9436 54.7825 42.7132 58.3798 42.7132C61.89 42.7132 65.0812 41.2917 67.2569 38.7678Z" fill="#3797D5"/>
<path opacity="0.6" d="M70.1259 29.7155L69.2846 21.6797C68.0661 12.9188 64.0917 9.35059 55.5917 9.35059H44.4518L46.5985 31.1079C46.6275 31.398 46.6566 31.7171 46.6566 32.2683C46.8306 33.7768 47.2948 35.1693 47.991 36.4167C50.0798 40.246 54.1412 42.7118 58.3767 42.7118C62.2351 42.7118 65.7163 41.0003 67.8921 37.9832C69.6327 35.6625 70.416 32.7325 70.1259 29.7155Z" fill="#3797D5"/>
<path opacity="0.6" d="M24.3762 9.35059C15.8472 9.35059 11.9018 12.9188 10.6543 21.7668L9.87104 29.7445C9.58094 32.8485 10.4222 35.8655 12.2499 38.2153C14.4547 41.0873 17.8489 42.7118 21.6202 42.7118C25.8557 42.7118 29.9171 40.246 31.9768 36.4747C32.7311 35.1693 33.2243 33.6608 33.3693 32.0943L35.6323 9.3796H24.3762V9.35059Z" fill="#3797D5"/>
<path d="M48.7437 9.35059H31.3374L29.1906 30.7018C29.0166 32.6745 29.3067 34.5311 30.0319 36.2136C31.7145 40.159 35.66 42.7118 40.0696 42.7118C44.5372 42.7118 48.3955 40.217 50.1361 36.2427C50.6583 34.9952 50.9774 33.5448 51.0064 32.0653V31.5141L48.7437 9.35059Z" fill="#2C79AA"/>
<path d="M38.1832 54.0544C34.4989 54.4315 31.714 57.5646 31.714 61.2778V70.648H48.3948V62.2932C48.4238 56.2301 44.8555 53.3582 38.1832 54.0544Z" fill="#2C79AA"/>
</svg>
