<svg width="16" height="12" viewBox="0 0 16 12" fill="none" xmlns="http://www.w3.org/2000/svg">
<path d="M14 0C15.0938 0 16 0.90625 16 2V10C16 11.125 15.0938 12 14 12H2C0.875 12 0 11.125 0 10V2C0 0.90625 0.875 0 2 0H14ZM2 1.5C1.71875 1.5 1.5 1.75 1.5 2V2.71875L6.6875 7.0625C7.40625 7.65625 8.5625 7.65625 9.28125 7.0625L14.5 2.71875V2C14.5 1.75 14.25 1.5 14 1.5H2ZM14 10.5C14.25 10.5 14.5 10.2812 14.5 10V4.65625L10.2188 8.21875C9.59375 8.71875 8.8125 9.03125 8 9.03125C7.15625 9.03125 6.375 8.71875 5.75 8.21875L1.5 4.65625V10C1.5 10.2812 1.71875 10.5 2 10.5H14Z" fill="#A4A7AE"/>
</svg>
