<svg width="16" height="13" viewBox="0 0 16 13" fill="none" xmlns="http://www.w3.org/2000/svg">
<path d="M14.5 0.871094C15.3125 0.871094 16 1.55859 16 2.37109V11.3711C16 12.2148 15.3125 12.8711 14.5 12.8711H1.5C0.65625 12.8711 0 12.2148 0 11.3711V2.37109C0 1.55859 0.65625 0.871094 1.5 0.871094H14.5ZM14.5 2.37109H1.5V3.65234C2.1875 4.24609 3.3125 5.12109 5.6875 6.99609C6.21875 7.40234 7.25 8.40234 8 8.37109C8.71875 8.40234 9.75 7.40234 10.2812 6.99609C12.6562 5.12109 13.7812 4.24609 14.5 3.65234V2.37109ZM1.5 11.3711H14.5V5.58984C13.7812 6.15234 12.75 6.96484 11.2188 8.18359C10.5 8.71484 9.3125 9.90234 8 9.87109C6.65625 9.90234 5.4375 8.71484 4.75 8.18359C3.21875 6.96484 2.1875 6.15234 1.5 5.58984V11.3711Z" fill="#215B80"/>
</svg>
