<svg width="20" height="15" viewBox="0 0 20 15" fill="none" xmlns="http://www.w3.org/2000/svg">
<path d="M17.5 0C18.8672 0 20 1.13281 20 2.5V12.5C20 13.9062 18.8672 15 17.5 15H2.5C1.09375 15 0 13.9062 0 12.5V2.5C0 1.13281 1.09375 0 2.5 0H17.5ZM2.5 1.875C2.14844 1.875 1.875 2.1875 1.875 2.5V3.39844L8.35938 8.82812C9.25781 9.57031 10.7031 9.57031 11.6016 8.82812L18.125 3.39844V2.5C18.125 2.1875 17.8125 1.875 17.5 1.875H2.5ZM17.5 13.125C17.8125 13.125 18.125 12.8516 18.125 12.5V5.82031L12.7734 10.2734C11.9922 10.8984 11.0156 11.2891 10 11.2891C8.94531 11.2891 7.96875 10.8984 7.1875 10.2734L1.875 5.82031V12.5C1.875 12.8516 2.14844 13.125 2.5 13.125H17.5Z" fill="#3797D5"/>
</svg>
