<svg width="14" height="11" viewBox="0 0 14 11" fill="none" xmlns="http://www.w3.org/2000/svg">
<path d="M13.4062 4.96948C13.4531 5.08667 13.5 5.27417 13.5 5.36792C13.5 5.48511 13.4531 5.67261 13.4062 5.78979C12.1406 8.67261 9.60938 10.6179 6.75 10.6179C3.86719 10.6179 1.33594 8.67261 0.0703125 5.78979C0.0234375 5.67261 0 5.48511 0 5.36792C0 5.27417 0.0234375 5.08667 0.0703125 4.96948C1.33594 2.08667 3.86719 0.11792 6.75 0.11792C9.60938 0.11792 12.1406 2.08667 13.4062 4.96948ZM10.125 5.39136V5.36792C10.125 3.51636 8.60156 1.99292 6.75 1.99292C4.875 1.99292 3.375 3.51636 3.375 5.36792C3.375 7.24292 4.875 8.74292 6.75 8.74292C8.60156 8.74292 10.125 7.24292 10.125 5.39136ZM6.75 3.11792C7.96875 3.11792 9 4.14917 9 5.36792C9 6.61011 7.96875 7.61792 6.75 7.61792C5.50781 7.61792 4.5 6.61011 4.5 5.36792C4.5 5.32104 4.5 5.25073 4.5 5.18042C4.71094 5.29761 4.96875 5.36792 5.25 5.36792C6.07031 5.36792 6.75 4.71167 6.75 3.86792C6.75 3.61011 6.65625 3.37573 6.53906 3.14136C6.60938 3.14136 6.67969 3.14136 6.72656 3.11792H6.75Z" fill="#717680"/>
</svg>
