<svg width="18" height="14" viewBox="0 0 18 14" fill="none" xmlns="http://www.w3.org/2000/svg">
<path d="M15.4375 0.96875C17.4062 2.65625 17.5 5.65625 15.75 7.46875L9.6875 13.7188C9.5 13.9062 9.25 14 8.96875 14C8.71875 14 8.46875 13.9062 8.25 13.7188L2.21875 7.46875C0.46875 5.65625 0.5625 2.65625 2.53125 0.96875C3.28125 0.3125 4.21875 0 5.15625 0C6.3125 0 7.5 0.5 8.375 1.375L9 2.03125L9.59375 1.375C10.4688 0.5 11.6562 0 12.8125 0C13.75 0 14.6875 0.3125 15.4375 0.96875ZM14.6562 6.4375C15.6875 5.375 15.9062 3.34375 14.4688 2.125C13.2188 1.03125 11.5 1.59375 10.6875 2.4375C9.8125 3.3125 10.1562 2.96875 9 4.1875C7.5625 2.71875 8.21875 3.375 7.28125 2.4375C6.46875 1.5625 4.75 1.03125 3.5 2.125C2.0625 3.34375 2.3125 5.375 3.3125 6.4375L8.96875 12.2812L14.6562 6.4375Z" fill="#1EE2CF"/>
</svg>
