<svg width="16" height="21" viewBox="0 0 16 21" fill="none" xmlns="http://www.w3.org/2000/svg">
<path d="M8 0.5C12.1406 0.5 15.5 3.85938 15.5 8C15.5 11.0469 14.4453 11.9062 8.74219 20.1094C8.54688 20.3828 8.27344 20.5 8 20.5C7.6875 20.5 7.41406 20.3828 7.21875 20.1094C1.51562 11.9062 0.5 11.0469 0.5 8C0.5 3.85938 3.82031 0.5 8 0.5ZM8 17.9219C8.66406 16.9453 9.28906 16.0469 9.83594 15.3047C13.2344 10.4609 13.625 9.83594 13.625 8C13.625 4.91406 11.0859 2.375 8 2.375C4.875 2.375 2.375 4.91406 2.375 8C2.375 9.83594 2.72656 10.4609 6.125 15.3047C6.67188 16.0469 7.29688 16.9453 8 17.9219ZM8 4.875C9.71875 4.875 11.125 6.28125 11.125 8C11.125 9.75781 9.71875 11.125 8 11.125C6.24219 11.125 4.875 9.75781 4.875 8C4.875 6.28125 6.24219 4.875 8 4.875ZM8 9.25C8.66406 9.25 9.25 8.70312 9.25 8C9.25 7.33594 8.66406 6.75 8 6.75C7.29688 6.75 6.75 7.33594 6.75 8C6.75 8.70312 7.29688 9.25 8 9.25Z" fill="#3797D5"/>
</svg>
