<svg width="36" height="40" viewBox="0 0 36 40" fill="none" xmlns="http://www.w3.org/2000/svg">
<path opacity="0.5" d="M0 20.0134C0 11.5281 -2.14577e-07 7.2855 2.63605 4.64947C5.27207 2.01343 9.51471 2.01343 18 2.01343C26.4852 2.01343 30.728 2.01343 33.3639 4.64947C36 7.2855 36 11.5281 36 20.0134C36 28.4986 36 32.7414 33.3639 35.3773C30.728 38.0134 26.4852 38.0134 18 38.0134C9.51471 38.0134 5.27207 38.0134 2.63605 35.3773C-2.14577e-07 32.7414 0 28.4986 0 20.0134Z" fill="#87C1E6"/>
<path d="M26.1 2.19345C26.64 3.65518 26.1747 4.3622 25.6304 5.62646L12.4886 36.1482C11.9442 37.4125 10.5214 38.3778 9.89995 37.8335C8.81997 37.2934 9.69377 35.4413 10.2381 34.177L23.3799 3.65518C23.9243 2.39092 25.02 1.65345 26.1 2.19345Z" fill="#3797D5"/>
<path d="M23.3454 13.6588C23.8726 13.1316 24.7273 13.1316 25.2545 13.6588L25.6296 14.0338C26.7732 15.1774 27.7268 16.131 28.382 16.9898C29.0737 17.8963 29.5588 18.854 29.5588 20.0134C29.5588 21.1728 29.0737 22.1306 28.382 23.0371C27.7268 23.8958 26.7732 24.8495 25.6296 25.993L25.2545 26.368C24.7273 26.8952 23.8726 26.8952 23.3454 26.368C22.8182 25.8407 22.8182 24.9861 23.3454 24.4589L23.6541 24.15C24.8812 22.9229 25.7034 22.0967 26.2355 21.3992C26.7438 20.7331 26.8588 20.3452 26.8588 20.0134C26.8588 19.6817 26.7438 19.2938 26.2355 18.6276C25.7034 17.9301 24.8812 17.1039 23.6541 15.8769L23.3454 15.568C22.8182 15.0408 22.8182 14.186 23.3454 13.6588Z" fill="#3797D5"/>
<path d="M10.7458 13.6588C11.273 13.1316 12.1277 13.1316 12.655 13.6588C13.1822 14.186 13.1822 15.0408 12.655 15.568L12.3461 15.8769C11.1192 17.1039 10.297 17.9301 9.76481 18.6276C9.25644 19.2938 9.14153 19.6817 9.14153 20.0134C9.14153 20.3452 9.25644 20.7331 9.76481 21.3992C10.297 22.0967 11.1192 22.9229 12.3461 24.15L12.655 24.4589C13.1822 24.9861 13.1822 25.8407 12.655 26.368C12.1277 26.8952 11.273 26.8952 10.7458 26.368L10.3707 25.993C9.22714 24.8495 8.27351 23.8958 7.61826 23.0371C6.92663 22.1306 6.44153 21.1728 6.44153 20.0134C6.44153 18.854 6.92663 17.8963 7.61826 16.9898C8.27351 16.131 9.22714 15.1774 10.3707 14.0338L10.7458 13.6588Z" fill="#3797D5"/>
</svg>
