<svg width="80" height="80" viewBox="0 0 80 80" fill="none" xmlns="http://www.w3.org/2000/svg">
<path opacity="0.4" d="M40 80C21.1438 80 11.7157 80 5.85788 74.142C-4.76837e-07 68.2844 0 58.856 0 40C0 21.1438 -4.76837e-07 11.7157 5.85788 5.85788C11.7157 -4.76837e-07 21.1438 0 40 0C58.856 0 68.2844 -4.76837e-07 74.142 5.85788C80 11.7157 80 21.1438 80 40C80 58.856 80 68.2844 74.142 74.142C68.2844 80 58.856 80 40 80Z" fill="#87C1E6"/>
<path opacity="0.4" d="M28.792 21H29.2081C32.8019 20.9999 35.7988 20.9998 38.178 21.3196C40.6892 21.6573 42.9564 22.4 44.778 24.2218C46.6 26.0437 47.3428 28.3109 47.6804 30.8221C48.0004 33.2012 48 36.198 48 39.792V40C48 41.6568 46.6568 43 45 43C43.3432 43 42 41.6568 42 40C42 36.144 41.9936 33.5536 41.734 31.6216C41.4856 29.7757 41.0568 28.9858 40.5356 28.4645C40.0144 27.9432 39.2244 27.5143 37.3784 27.2662C35.4464 27.0064 32.856 27 29 27C25.144 27 22.5537 27.0064 20.6216 27.2662C18.7757 27.5143 17.9858 27.9432 17.4645 28.4645C16.9432 28.9858 16.5143 29.7757 16.2662 31.6216C16.0064 33.5536 16 36.144 16 40C16 43.856 16.0064 46.4464 16.2662 48.3784C16.5143 50.2244 16.9432 51.0144 17.4645 51.5356C17.9858 52.0568 18.7757 52.4856 20.6216 52.734C22.5537 52.9936 25.144 53 29 53C30.6569 53 32 54.3432 32 56C32 57.6568 30.6569 59 29 59H28.7919C25.198 59 22.2012 59.0004 19.8221 58.6804C17.3109 58.3428 15.0437 57.6 13.2218 55.778C11.4 53.9564 10.6573 51.6892 10.3196 49.178C9.9998 46.7988 9.99988 43.802 10 40.208V39.792C9.99988 36.1984 9.9998 33.2012 10.3196 30.8221C10.6573 28.3109 11.4 26.0437 13.2218 24.2218C15.0437 22.4 17.3109 21.6573 19.8221 21.3196C22.2012 20.9998 25.1982 20.9999 28.792 21Z" fill="#3797D5"/>
<path d="M59.3784 27.2662C57.4464 27.0064 54.856 27 51 27C49.3432 27 48 25.6569 48 24C48 22.3432 49.3432 21 51 21H51.208C54.8016 20.9999 57.7988 20.9998 60.178 21.3196C62.6892 21.6573 64.9564 22.4 66.778 24.2218C68.6 26.0437 69.3428 28.3109 69.6804 30.8221C70.0004 33.2012 70 36.198 70 39.7916V40.208C70 43.8016 70.0004 46.7988 69.6804 49.178C69.3428 51.6892 68.6 53.9564 66.778 55.778C64.9564 57.6 62.6892 58.3428 60.178 58.6804C57.7988 59.0004 54.802 59 51.208 59H50.792C47.198 59 44.2012 59.0004 41.822 58.6804C39.3108 58.3428 37.0436 57.6 35.222 55.778C33.4 53.9564 32.6572 51.6892 32.3196 49.178C31.9998 46.7988 31.9999 43.802 32 40.208V40C32 38.3432 33.3432 37 35 37C36.6568 37 38 38.3432 38 40C38 43.856 38.0064 46.4464 38.266 48.3784C38.5144 50.2244 38.9432 51.0144 39.4644 51.5356C39.9856 52.0568 40.7756 52.4856 42.6216 52.734C44.5536 52.9936 47.144 53 51 53C54.856 53 57.4464 52.9936 59.3784 52.734C61.2244 52.4856 62.0144 52.0568 62.5356 51.5356C63.0568 51.0144 63.4856 50.2244 63.734 48.3784C63.9936 46.4464 64 43.856 64 40C64 36.144 63.9936 33.5536 63.734 31.6216C63.4856 29.7757 63.0568 28.9858 62.5356 28.4645C62.0144 27.9432 61.2244 27.5143 59.3784 27.2662Z" fill="#2C79AA"/>
</svg>
