<svg width="80" height="80" viewBox="0 0 80 80" fill="none" xmlns="http://www.w3.org/2000/svg">
<rect width="80" height="80" rx="24" fill="#CFE6F5"/>
<path d="M50 10H30C26.3181 10 23.3333 12.9848 23.3333 16.6667V60C23.3333 63.6819 26.3181 66.6667 30 66.6667H50C53.6819 66.6667 56.6666 63.6819 56.6666 60V16.6667C56.6666 12.9848 53.6819 10 50 10Z" fill="#2C79AA"/>
<path d="M40 63.3332C41.8409 63.3332 43.3333 61.8408 43.3333 59.9998C43.3333 58.1589 41.8409 56.6665 40 56.6665C38.159 56.6665 36.6666 58.1589 36.6666 59.9998C36.6666 61.8408 38.159 63.3332 40 63.3332Z" fill="#3797D5"/>
<path d="M30 13.7683C30 13.5282 30.1947 13.3335 30.4348 13.3335H49.5653C49.8053 13.3335 50 13.5282 50 13.7683C50 15.3691 48.7023 16.6668 47.1013 16.6668H32.8986C31.2977 16.6668 30 15.3691 30 13.7683Z" fill="#3797D5"/>
</svg>
