<svg width="22" height="21" viewBox="0 0 22 21" fill="none" xmlns="http://www.w3.org/2000/svg">
<path d="M20.5703 0.695312C20.8828 0.890625 21.0391 1.24219 20.9609 1.59375L18.4609 18.4688C18.4219 18.7422 18.2656 19.0156 17.9922 19.1328C17.875 19.2109 17.7188 19.25 17.5625 19.25C17.4062 19.25 17.2891 19.25 17.1719 19.2109L13.3438 17.5703L8.96875 20.3828C8.85156 20.4609 8.65625 20.5 8.46094 20.5C8.34375 20.5 8.1875 20.5 8.03125 20.4219C7.71875 20.2266 7.52344 19.9141 7.52344 19.5625V15.1484L1.54688 12.6484C1.23438 12.4922 1 12.1797 1 11.8281C0.960938 11.4766 1.15625 11.125 1.46875 10.9688L19.5938 0.65625C19.9062 0.460938 20.2578 0.5 20.5703 0.695312ZM15.4141 5.1875L4.04688 11.6328L8.07031 13.3516L15.4141 5.1875ZM9.39844 17.8828L11.2344 16.7109L9.39844 15.9297V17.8828ZM16.7812 16.9844L18.6562 4.36719L9.90625 14.0938L16.7812 16.9844Z" fill="white"/>
</svg>
