<svg width="60" height="61" viewBox="0 0 60 61" fill="none" xmlns="http://www.w3.org/2000/svg">
<path fill-rule="evenodd" clip-rule="evenodd" d="M30.0002 5.22559C19.6676 5.22559 14.5013 5.22559 12.9958 8.47354C12.8664 8.75274 12.7572 9.04274 12.6693 9.34084C11.6466 12.8088 15.2997 16.8284 22.6059 24.8674L27.5002 30.2256H32.5002L37.3944 24.8674C44.7007 16.8284 48.3537 12.8088 47.3309 9.34084C47.2432 9.04274 47.1339 8.75274 47.0044 8.47354C45.4989 5.22559 40.3327 5.22559 30.0002 5.22559ZM25.0002 12.1006C23.9647 12.1006 23.1252 12.9401 23.1252 13.9756C23.1252 15.0111 23.9647 15.8506 25.0002 15.8506H35.0002C36.0357 15.8506 36.8752 15.0111 36.8752 13.9756C36.8752 12.9401 36.0357 12.1006 35.0002 12.1006H25.0002Z" fill="white"/>
<path opacity="0.5" d="M12.9958 51.9776C14.5013 55.2256 19.6676 55.2256 30.0002 55.2256C40.3327 55.2256 45.4989 55.2256 47.0044 51.9776C47.1339 51.6983 47.2432 51.4083 47.3309 51.1103C48.3537 47.6423 44.7007 43.6228 37.3944 35.5838L32.5002 30.2256H27.5002L22.6059 35.5838C15.2997 43.6228 11.6466 47.6423 12.6693 51.1103C12.7572 51.4083 12.8664 51.6983 12.9958 51.9776Z" fill="#87C1E6"/>
<path d="M25.0002 44.6006C23.9647 44.6006 23.1252 45.4401 23.1252 46.4756C23.1252 47.5111 23.9647 48.3506 25.0002 48.3506H35.0002C36.0357 48.3506 36.8752 47.5111 36.8752 46.4756C36.8752 45.4401 36.0357 44.6006 35.0002 44.6006H25.0002Z" fill="white"/>
</svg>
