<svg width="60" height="61" viewBox="0 0 60 61" fill="none" xmlns="http://www.w3.org/2000/svg">
<path opacity="0.4" d="M42.5702 0.225586H17.4302C6.51018 0.225586 0.000183105 6.73559 0.000183105 17.6556V42.7656C0.000183105 53.7156 6.51018 60.2256 17.4302 60.2256H42.5402C53.4602 60.2256 59.9702 53.7156 59.9702 42.7956V17.6556C60.0002 6.73559 53.4902 0.225586 42.5702 0.225586Z" fill="#87C1E6"/>
<path d="M59.4911 4.87625C56.3411 12.7062 49.2011 22.9362 42.3611 29.6262C41.3711 23.4462 36.4511 18.6162 30.2111 17.7462C36.9311 10.9062 47.2211 3.64625 55.0811 0.466247C56.4611 -0.0737528 57.8711 0.346247 58.7111 1.21625C59.6411 2.11625 60.0611 3.49625 59.4911 4.87625Z" fill="#2C79AA"/>
<path opacity="0.4" d="M42.3593 29.5958C41.1593 30.7659 39.9593 31.8459 38.8193 32.7459L34.1093 36.5259C33.5093 36.9459 32.9093 37.3059 32.2493 37.6059C32.2493 37.1559 32.1893 36.7059 32.1593 36.2259C31.8893 34.2459 30.9893 32.3559 29.3692 30.7359C27.7192 29.1158 25.7392 28.1858 23.7292 27.9158C23.2492 27.8558 22.7392 27.8558 22.2892 27.8558C22.5592 27.1058 22.9492 26.4158 23.4592 25.8458L27.2092 21.1358C28.1092 19.9958 29.1292 18.8558 30.2393 17.7158C36.4493 18.5858 41.3993 23.4458 42.3593 29.5958Z" fill="#3797D5"/>
<path d="M32.252 37.6356C32.252 40.2756 31.232 42.7956 29.3419 44.6856C27.8719 46.1556 25.9219 47.1756 23.5219 47.4756L17.6419 48.1356C14.4319 48.4956 11.6719 45.7356 12.0319 42.4956L12.6919 36.6156C13.2619 31.3656 17.6419 28.0056 22.2919 27.9156C22.7419 27.8856 23.2519 27.9156 23.7319 27.9756C25.7719 28.2456 27.7219 29.1756 29.3719 30.7956C30.962 32.3856 31.892 34.3056 32.162 36.2856C32.192 36.7356 32.252 37.1856 32.252 37.6356Z" fill="#2C79AA"/>
</svg>
