<svg width="60" height="61" viewBox="0 0 60 61" fill="none" xmlns="http://www.w3.org/2000/svg">
<path d="M28.7502 52.7256C41.8669 52.7256 52.5002 42.0923 52.5002 28.9756C52.5002 15.8588 41.8669 5.22559 28.7502 5.22559C15.6334 5.22559 5.00018 15.8588 5.00018 28.9756C5.00018 42.0923 15.6334 52.7256 28.7502 52.7256Z" fill="white"/>
<path d="M53.2514 55.226C52.8014 55.226 52.3514 55.051 52.0264 54.726L47.3764 50.076C46.7014 49.401 46.7014 48.301 47.3764 47.601C48.0514 46.926 49.1514 46.926 49.8514 47.601L54.5014 52.251C55.1764 52.926 55.1764 54.026 54.5014 54.726C54.1514 55.051 53.7014 55.226 53.2514 55.226Z" fill="white"/>
<path d="M36.2502 27.1006H21.2502C20.2252 27.1006 19.3752 26.2506 19.3752 25.2256C19.3752 24.2006 20.2252 23.3506 21.2502 23.3506H36.2502C37.2752 23.3506 38.1252 24.2006 38.1252 25.2256C38.1252 26.2506 37.2752 27.1006 36.2502 27.1006Z" fill="#5FACDD"/>
<path d="M28.7502 34.6006H21.2502C20.2252 34.6006 19.3752 33.7506 19.3752 32.7256C19.3752 31.7006 20.2252 30.8506 21.2502 30.8506H28.7502C29.7752 30.8506 30.6252 31.7006 30.6252 32.7256C30.6252 33.7506 29.7752 34.6006 28.7502 34.6006Z" fill="#5FACDD"/>
</svg>
