<svg width="60" height="61" viewBox="0 0 60 61" fill="none" xmlns="http://www.w3.org/2000/svg">
<path d="M5.00018 30.2256C5.00018 18.4405 5.00018 12.5479 8.66136 8.88676C12.3225 5.22559 18.2151 5.22559 30.0002 5.22559C41.7852 5.22559 47.6779 5.22559 51.3389 8.88676C55.0002 12.5479 55.0002 18.4405 55.0002 30.2256C55.0002 42.0106 55.0002 47.9033 51.3389 51.5643C47.6779 55.2256 41.7852 55.2256 30.0002 55.2256C18.2151 55.2256 12.3225 55.2256 8.66136 51.5643C5.00018 47.9033 5.00018 42.0106 5.00018 30.2256Z" fill="white"/>
<path fill-rule="evenodd" clip-rule="evenodd" d="M41.6407 7.10059C40.6052 7.10059 39.7657 6.26111 39.7657 5.22559C39.7657 4.19006 40.6052 3.35059 41.6407 3.35059H55.0002C56.0357 3.35059 56.8752 4.19006 56.8752 5.22559V18.585C56.8752 19.6205 56.0357 20.46 55.0002 20.46C53.9647 20.46 53.1252 19.6205 53.1252 18.585V9.75224L34.5269 28.3506H40.0002C41.0357 28.3506 41.8752 29.1901 41.8752 30.2256C41.8752 31.2611 41.0357 32.1006 40.0002 32.1006H30.0002C28.9647 32.1006 28.1252 31.2611 28.1252 30.2256V20.2256C28.1252 19.1901 28.9647 18.3506 30.0002 18.3506C31.0357 18.3506 31.8752 19.1901 31.8752 20.2256V25.6988L50.4734 7.10059H41.6407Z" fill="#2C79AA"/>
</svg>
