<svg width="60" height="61" viewBox="0 0 60 61" fill="none" xmlns="http://www.w3.org/2000/svg">
<g opacity="0.5">
<path d="M25.0002 53.2256C15.5721 53.2256 10.8581 53.2256 7.92911 50.2966C5.00018 47.3678 5.00018 42.6536 5.00018 33.2256V32.6006H55.0002V33.2256C55.0002 36.0241 55.0002 38.4073 54.9237 40.4518L54.8877 40.4268C53.6907 37.0463 50.5684 34.4756 46.6669 34.4756C42.8874 34.4756 39.8489 36.8758 38.5707 40.1006H33.7502C32.7147 40.1006 31.8752 40.9401 31.8752 41.9756C31.8752 43.0111 32.7147 43.8506 33.7502 43.8506H35.8929C34.5479 45.2753 33.7502 47.2151 33.7502 49.2551C33.7502 50.6736 34.1359 52.0436 34.8232 53.2256H25.0002Z" fill="#87C1E6"/>
<path d="M25.0002 8.22559H35.0002C44.4282 8.22559 49.1424 8.22559 52.0712 11.1545C55.0002 14.0835 55.0002 18.7975 55.0002 28.2256V28.8506H5.00018V28.2256C5.00018 18.7975 5.00018 14.0835 7.92911 11.1545C10.8581 8.22559 15.5721 8.22559 25.0002 8.22559Z" fill="#87C1E6"/>
</g>
<path fill-rule="evenodd" clip-rule="evenodd" d="M51.6359 42.4271C51.3577 39.7821 49.2392 37.7256 46.6669 37.7256C44.5542 37.7256 42.7474 39.1131 42.0152 41.0743C41.7904 41.6766 41.6669 42.3328 41.6669 43.0196C41.6669 43.6663 41.7764 44.2861 41.9769 44.8588C41.7417 44.8101 41.4987 44.7843 41.2502 44.7843C40.1504 44.7843 39.1612 45.2856 38.4754 46.0841C37.8694 46.7893 37.5002 47.7266 37.5002 48.7551C37.5002 50.9478 39.1792 52.7256 41.2502 52.7256H50.0002C52.7617 52.7256 55.0002 50.3553 55.0002 47.4316C55.0002 45.1141 53.5939 43.1446 51.6359 42.4271Z" fill="#1C274C"/>
<path d="M51.6359 42.4271C51.3577 39.7821 49.2392 37.7256 46.6669 37.7256C44.5542 37.7256 42.7474 39.1131 42.0152 41.0743C41.7904 41.6766 41.6669 42.3328 41.6669 43.0196C41.6669 43.6663 41.7764 44.2861 41.9769 44.8588C41.7417 44.8101 41.4987 44.7843 41.2502 44.7843C40.1504 44.7843 39.1612 45.2856 38.4754 46.0841C37.8694 46.7893 37.5002 47.7266 37.5002 48.7551C37.5002 50.9478 39.1792 52.7256 41.2502 52.7256H50.0002C52.7617 52.7256 55.0002 50.3553 55.0002 47.4316C55.0002 45.1141 53.5939 43.1446 51.6359 42.4271Z" fill="#2C79AA"/>
<path d="M31.8752 18.9756C31.8752 17.9401 32.7147 17.1006 33.7502 17.1006H45.0002C46.0357 17.1006 46.8752 17.9401 46.8752 18.9756C46.8752 20.0111 46.0357 20.8506 45.0002 20.8506H33.7502C32.7147 20.8506 31.8752 20.0111 31.8752 18.9756Z" fill="#3797D5"/>
<path d="M15.0002 45.8506C13.9647 45.8506 13.1252 45.0111 13.1252 43.9756V38.9756C13.1252 37.9401 13.9647 37.1006 15.0002 37.1006C16.0357 37.1006 16.8752 37.9401 16.8752 38.9756V43.9756C16.8752 45.0111 16.0357 45.8506 15.0002 45.8506Z" fill="#3797D5"/>
<path d="M15.0002 23.3506C13.9647 23.3506 13.1252 22.5111 13.1252 21.4756V16.4756C13.1252 15.4401 13.9647 14.6006 15.0002 14.6006C16.0357 14.6006 16.8752 15.4401 16.8752 16.4756V21.4756C16.8752 22.5111 16.0357 23.3506 15.0002 23.3506Z" fill="#3797D5"/>
<path d="M22.5002 45.8506C21.4647 45.8506 20.6252 45.0111 20.6252 43.9756V38.9756C20.6252 37.9401 21.4647 37.1006 22.5002 37.1006C23.5357 37.1006 24.3752 37.9401 24.3752 38.9756V43.9756C24.3752 45.0111 23.5357 45.8506 22.5002 45.8506Z" fill="#3797D5"/>
<path d="M22.5002 23.3506C21.4647 23.3506 20.6252 22.5111 20.6252 21.4756V16.4756C20.6252 15.4401 21.4647 14.6006 22.5002 14.6006C23.5357 14.6006 24.3752 15.4401 24.3752 16.4756V21.4756C24.3752 22.5111 23.5357 23.3506 22.5002 23.3506Z" fill="#3797D5"/>
<path fill-rule="evenodd" clip-rule="evenodd" d="M55.0002 32.1006H5.00018V28.3506H55.0002V32.1006Z" fill="#3797D5"/>
</svg>
