<svg width="60" height="61" viewBox="0 0 60 61" fill="none" xmlns="http://www.w3.org/2000/svg">
<path opacity="0.5" d="M5.00018 30.2256C5.00018 18.4405 5.00018 12.5479 8.66136 8.88676C12.3225 5.22559 18.2151 5.22559 30.0002 5.22559C41.7852 5.22559 47.6779 5.22559 51.3389 8.88676C55.0002 12.5479 55.0002 18.4405 55.0002 30.2256C55.0002 42.0106 55.0002 47.9033 51.3389 51.5643C47.6779 55.2256 41.7852 55.2256 30.0002 55.2256C18.2151 55.2256 12.3225 55.2256 8.66136 51.5643C5.00018 47.9033 5.00018 42.0106 5.00018 30.2256Z" fill="#87C1E6"/>
<path d="M33.7204 16.3402C34.7207 16.6082 35.3142 17.6364 35.0462 18.6366L28.5757 42.7847C28.3077 43.785 27.2794 44.3787 26.2792 44.1107C25.2789 43.8425 24.6854 42.8145 24.9535 41.8142L31.4239 17.6661C31.6919 16.6658 32.7202 16.0722 33.7204 16.3402Z" fill="#3797D5"/>
<path d="M37.4244 21.3998C38.1567 20.6675 39.3437 20.6675 40.0759 21.3998L40.5969 21.9206C42.1852 23.5088 43.5097 24.8333 44.4197 26.0261C45.3804 27.2851 46.0542 28.6153 46.0542 30.2256C46.0542 31.8358 45.3804 33.1661 44.4197 34.4251C43.5097 35.6178 42.1852 36.9423 40.5969 38.5306L40.0759 39.0513C39.3437 39.7836 38.1567 39.7836 37.4244 39.0513C36.6922 38.3191 36.6922 37.1321 37.4244 36.3998L37.8532 35.9708C39.5574 34.2666 40.6994 33.1191 41.4384 32.1503C42.1444 31.2251 42.3042 30.6863 42.3042 30.2256C42.3042 29.7648 42.1444 29.2261 41.4384 28.3008C40.6994 27.3321 39.5574 26.1846 37.8532 24.4804L37.4244 24.0514C36.6922 23.3192 36.6922 22.132 37.4244 21.3998Z" fill="#3797D5"/>
<path d="M19.9248 21.3998C20.6571 20.6675 21.8442 20.6675 22.5765 21.3998C23.3087 22.132 23.3087 23.3192 22.5765 24.0514L22.1475 24.4804C20.4434 26.1846 19.3015 27.3321 18.5624 28.3008C17.8563 29.2261 17.6967 29.7648 17.6967 30.2256C17.6967 30.6863 17.8563 31.2251 18.5624 32.1503C19.3015 33.1191 20.4434 34.2666 22.1475 35.9708L22.5765 36.3998C23.3087 37.1321 23.3087 38.3191 22.5765 39.0513C21.8442 39.7836 20.6571 39.7836 19.9248 39.0513L19.404 38.5306C17.8156 36.9423 16.4911 35.6178 15.5811 34.4251C14.6205 33.1661 13.9467 31.8358 13.9467 30.2256C13.9467 28.6153 14.6205 27.2851 15.5811 26.0261C16.4911 24.8333 17.8156 23.5089 19.404 21.9206L19.9248 21.3998Z" fill="#3797D5"/>
</svg>
