<svg width="60" height="61" viewBox="0 0 60 61" fill="none" xmlns="http://www.w3.org/2000/svg">
<path d="M21.0559 51.7706C25.4449 54.0741 27.6394 55.2256 30.0002 55.2256V30.2256L6.59523 17.9072C6.56076 17.9626 6.52693 18.0185 6.49368 18.075C5.00018 20.6113 5.00018 23.7673 5.00018 30.0794V30.3719C5.00018 36.6839 5.00018 39.8401 6.49368 42.3764C7.98716 44.9126 10.6768 46.3241 16.0559 49.1469L21.0559 51.7706Z" fill="#2C79AA"/>
<path opacity="0.7" d="M43.9437 11.3044L38.9437 8.68051C34.5547 6.37724 32.3602 5.22559 29.9994 5.22559C27.6387 5.22559 25.4442 6.37724 21.0551 8.68051L16.0551 11.3044C10.7957 14.0644 8.10745 15.4751 6.59442 17.9072L29.9994 30.2256L53.4044 17.9072C51.8912 15.4751 49.2029 14.0644 43.9437 11.3044Z" fill="#3797D5"/>
<path opacity="0.5" d="M53.5067 18.075C53.4734 18.0185 53.4397 17.9626 53.4052 17.9072L30.0002 30.2256V55.2256C32.3609 55.2256 34.5554 54.0741 38.9444 51.7706L43.9444 49.1469C49.3237 46.3241 52.0132 44.9126 53.5067 42.3764C55.0002 39.8401 55.0002 36.6839 55.0002 30.3719V30.0794C55.0002 23.7673 55.0002 20.6113 53.5067 18.075Z" fill="#87C1E6"/>
</svg>
