<svg width="21" height="21" viewBox="0 0 21 21" fill="none" xmlns="http://www.w3.org/2000/svg">
<path d="M18.75 13.0391C19.6484 13.4297 20.1562 14.4062 19.9219 15.3828L19.1016 18.9375C18.9062 19.875 18.0859 20.5 17.1094 20.5C7.65625 20.5 0 12.8438 0 3.39062C0 2.41406 0.625 1.59375 1.5625 1.39844L5.11719 0.578125C6.09375 0.34375 7.07031 0.851562 7.46094 1.75L9.10156 5.61719C9.49219 6.4375 9.21875 7.41406 8.51562 8L7.22656 9.05469C8.24219 10.8125 9.6875 12.2578 11.4453 13.2734L12.5 11.9844C13.0859 11.2812 14.0625 11.0078 14.9219 11.3984L18.75 13.0391ZM18.0859 14.9531C18.125 14.875 18.0859 14.7969 18.0078 14.7578L14.1797 13.1172C14.1016 13.0781 14.0234 13.0781 13.9844 13.1562L12.4219 15.0703C12.1484 15.3828 11.6406 15.5 11.25 15.3047C8.63281 14.0156 6.48438 11.8672 5.19531 9.25C5 8.85938 5.11719 8.39062 5.42969 8.07812L7.34375 6.55469C7.42188 6.47656 7.42188 6.39844 7.38281 6.32031L5.74219 2.49219C5.70312 2.45312 5.66406 2.41406 5.58594 2.41406H5.54688L1.99219 3.23438C1.91406 3.23438 1.83594 3.3125 1.83594 3.39062C1.83594 11.7891 8.71094 18.625 17.1094 18.625C17.1875 18.625 17.2656 18.5859 17.2656 18.5078L18.0859 14.9531Z" fill="#3797D5"/>
</svg>
