<svg width="32" height="34" viewBox="0 0 32 34" fill="none" xmlns="http://www.w3.org/2000/svg">
<path opacity="0.4" d="M24.8908 9.84394C24.7787 9.82792 24.6665 9.82792 24.5543 9.84394C22.0708 9.76383 20.1 7.72895 20.1 5.22942C20.1 2.68182 22.167 0.598877 24.7306 0.598877C27.2782 0.598877 29.3611 2.6658 29.3611 5.22942C29.3451 7.72895 27.3743 9.76383 24.8908 9.84394Z" fill="#3797D5"/>
<path opacity="0.4" d="M30.1152 20.9475C28.3207 22.1492 25.8051 22.5978 23.4818 22.2934C24.0907 20.9795 24.4112 19.5215 24.4272 17.9833C24.4272 16.381 24.0747 14.8589 23.4017 13.529C25.7731 13.2086 28.2886 13.6572 30.0992 14.8589C32.6308 16.5252 32.6308 19.2651 30.1152 20.9475Z" fill="#3797D5"/>
<path opacity="0.4" d="M7.12431 9.84394C7.23647 9.82792 7.34863 9.82792 7.46079 9.84394C9.9443 9.76383 11.9151 7.72895 11.9151 5.22942C11.9151 2.68182 9.84817 0.598877 7.28454 0.598877C4.73694 0.598877 2.65399 2.6658 2.65399 5.22942C2.67001 7.72895 4.6408 9.76383 7.12431 9.84394Z" fill="#3797D5"/>
<path opacity="0.4" d="M7.29832 17.9836C7.29832 19.5378 7.6348 21.0119 8.24366 22.3418C5.98446 22.5821 3.62913 22.1014 1.89868 20.9638C-0.632895 19.2814 -0.632895 16.5416 1.89868 14.8592C3.61311 13.7055 6.03253 13.2409 8.30775 13.4973C7.65082 14.8432 7.29832 16.3653 7.29832 17.9836Z" fill="#3797D5"/>
<path d="M16.2259 22.8223C16.0977 22.8063 15.9535 22.8063 15.8093 22.8223C12.8612 22.7262 10.5058 20.3068 10.5058 17.3265C10.5058 14.2822 12.9573 11.8148 16.0176 11.8148C19.0619 11.8148 21.5294 14.2822 21.5294 17.3265C21.5294 20.3068 19.1901 22.7262 16.2259 22.8223Z" fill="#2C79AA"/>
<path d="M11.0183 26.1388C8.59888 27.7571 8.59888 30.4168 11.0183 32.0191C13.7742 33.8617 18.2926 33.8617 21.0485 32.0191C23.4679 30.4008 23.4679 27.7411 21.0485 26.1388C18.3086 24.2962 13.7903 24.2962 11.0183 26.1388Z" fill="#2C79AA"/>
</svg>
