<svg width="40" height="41" viewBox="0 0 40 41" fill="none" xmlns="http://www.w3.org/2000/svg">
<path fill-rule="evenodd" clip-rule="evenodd" d="M3.33334 11.3211C3.33334 7.0555 6.79131 3.59753 11.0569 3.59753C15.3225 3.59753 18.7805 7.0555 18.7805 11.3211C18.7805 15.5867 15.3225 19.0447 11.0569 19.0447C6.79131 19.0447 3.33334 15.5867 3.33334 11.3211Z" fill="#1EE2CF"/>
<path opacity="0.5" fill-rule="evenodd" clip-rule="evenodd" d="M21.2207 29.2071C21.2207 24.9416 24.6787 21.4836 28.9443 21.4836C33.2098 21.4836 36.6678 24.9416 36.6678 29.2071C36.6678 33.4728 33.2098 36.9308 28.9443 36.9308C24.6787 36.9308 21.2207 33.4728 21.2207 29.2071Z" fill="#1EE2CF" fill-opacity="0.5"/>
<path d="M3.33334 29.4309C3.33334 25.8954 3.33334 24.1276 4.43169 23.0292C5.53004 21.9309 7.29781 21.9309 10.8333 21.9309C14.3689 21.9309 16.1366 21.9309 17.235 23.0292C18.3333 24.1276 18.3333 25.8954 18.3333 29.4309C18.3333 32.9664 18.3333 34.7342 17.235 35.8326C16.1366 36.9309 14.3689 36.9309 10.8333 36.9309C7.29781 36.9309 5.53004 36.9309 4.43169 35.8326C3.33334 34.7342 3.33334 32.9664 3.33334 29.4309Z" fill="#1EE2CF"/>
<path opacity="0.5" d="M21.6667 11.0975C21.6667 7.562 21.6667 5.79423 22.765 4.69588C23.8634 3.59753 25.6312 3.59753 29.1667 3.59753C32.7022 3.59753 34.47 3.59753 35.5684 4.69588C36.6667 5.79423 36.6667 7.562 36.6667 11.0975C36.6667 14.6331 36.6667 16.4008 35.5684 17.4992C34.47 18.5975 32.7022 18.5975 29.1667 18.5975C25.6312 18.5975 23.8634 18.5975 22.765 17.4992C21.6667 16.4008 21.6667 14.6331 21.6667 11.0975Z" fill="#1EE2CF" fill-opacity="0.5"/>
</svg>
