<svg width="40" height="41" viewBox="0 0 40 41" fill="none" xmlns="http://www.w3.org/2000/svg">
<path opacity="0.5" d="M3.33331 20.2642C3.33331 12.4075 3.33331 8.47908 5.7741 6.03832C8.21486 3.59753 12.1432 3.59753 20 3.59753C27.8566 3.59753 31.7851 3.59753 34.2258 6.03832C36.6666 8.47908 36.6666 12.4075 36.6666 20.2642C36.6666 28.1209 36.6666 32.0494 34.2258 34.49C31.7851 36.9309 27.8566 36.9309 20 36.9309C12.1432 36.9309 8.21486 36.9309 5.7741 34.49C3.33331 32.0494 3.33331 28.1209 3.33331 20.2642Z" fill="#8B40E5" fill-opacity="0.5"/>
<path d="M22.4802 11.0074C23.147 11.186 23.5427 11.8715 23.364 12.5383L19.0503 28.637C18.8716 29.3039 18.1861 29.6997 17.5193 29.521C16.8525 29.3422 16.4568 28.6569 16.6355 27.99L20.9492 11.8913C21.1278 11.2244 21.8133 10.8287 22.4802 11.0074Z" fill="#8B40E5"/>
<path d="M24.9495 14.3803C25.4377 13.8921 26.229 13.8921 26.7172 14.3803L27.0645 14.7275C28.1233 15.7863 29.0063 16.6693 29.613 17.4645C30.2535 18.3038 30.7027 19.1907 30.7027 20.2642C30.7027 21.3377 30.2535 22.2245 29.613 23.0638C29.0063 23.859 28.1233 24.742 27.0645 25.8008L26.7172 26.148C26.229 26.6362 25.4377 26.6362 24.9495 26.148C24.4613 25.6598 24.4613 24.8685 24.9495 24.3803L25.2353 24.0943C26.3715 22.9582 27.1328 22.1932 27.6255 21.5473C28.0962 20.9305 28.2027 20.5713 28.2027 20.2642C28.2027 19.957 28.0962 19.5978 27.6255 18.981C27.1328 18.3352 26.3715 17.5702 25.2353 16.434L24.9495 16.148C24.4613 15.6599 24.4613 14.8684 24.9495 14.3803Z" fill="#8B40E5"/>
<path d="M13.2831 14.3803C13.7712 13.8921 14.5627 13.8921 15.0509 14.3803C15.539 14.8684 15.539 15.6599 15.0509 16.148L14.7649 16.434C13.6288 17.5702 12.8675 18.3352 12.3748 18.981C11.9041 19.5978 11.7977 19.957 11.7977 20.2642C11.7977 20.5713 11.9041 20.9305 12.3748 21.5473C12.8675 22.1932 13.6288 22.9582 14.7649 24.0943L15.0509 24.3803C15.539 24.8685 15.539 25.6598 15.0509 26.148C14.5627 26.6362 13.7712 26.6362 13.2831 26.148L12.9358 25.8008C11.8769 24.742 10.994 23.859 10.3872 23.0638C9.74683 22.2245 9.29767 21.3377 9.29767 20.2642C9.29767 19.1907 9.74683 18.3038 10.3872 17.4645C10.994 16.6693 11.8769 15.7863 12.9358 14.7275L13.2831 14.3803Z" fill="#8B40E5"/>
</svg>
