<svg width="40" height="41" viewBox="0 0 40 41" fill="none" xmlns="http://www.w3.org/2000/svg">
<path opacity="0.4" d="M32.5 12.7641C32.5 15.0653 30.6345 16.9307 28.3333 16.9307C26.0321 16.9307 24.1666 15.0653 24.1666 12.7641C24.1666 10.4629 26.0321 8.59741 28.3333 8.59741C30.6345 8.59741 32.5 10.4629 32.5 12.7641Z" fill="#FF885A" fill-opacity="0.5"/>
<path opacity="0.4" d="M7.5 12.7641C7.5 15.0653 9.36548 16.9307 11.6667 16.9307C13.9678 16.9307 15.8333 15.0653 15.8333 12.7641C15.8333 10.4629 13.9678 8.59741 11.6667 8.59741C9.36548 8.59741 7.5 10.4629 7.5 12.7641Z" fill="#FF885A" fill-opacity="0.5"/>
<path opacity="0.4" d="M36.6666 27.7641C36.6666 30.0652 33.6818 31.9307 30 31.9307C26.3181 31.9307 23.3333 30.0652 23.3333 27.7641C23.3333 25.4629 26.3181 23.5974 30 23.5974C33.6818 23.5974 36.6666 25.4629 36.6666 27.7641Z" fill="#FF885A" fill-opacity="0.5"/>
<path opacity="0.4" d="M3.33331 27.7641C3.33331 30.0652 6.31808 31.9307 9.99998 31.9307C13.6819 31.9307 16.6666 30.0652 16.6666 27.7641C16.6666 25.4629 13.6819 23.5974 9.99998 23.5974C6.31808 23.5974 3.33331 25.4629 3.33331 27.7641Z" fill="#FF885A" fill-opacity="0.5"/>
<path d="M25.8333 12.7641C25.8333 15.9858 23.2216 18.5975 20 18.5975C16.7783 18.5975 14.1666 15.9858 14.1666 12.7641C14.1666 9.54245 16.7783 6.93079 20 6.93079C23.2216 6.93079 25.8333 9.54245 25.8333 12.7641Z" fill="#FF885A"/>
<path d="M30 27.7641C30 30.9858 25.5228 33.5975 20 33.5975C14.4771 33.5975 10 30.9858 10 27.7641C10 24.5425 14.4771 21.9308 20 21.9308C25.5228 21.9308 30 24.5425 30 27.7641Z" fill="#FF885A"/>
</svg>
