<svg width="40" height="41" viewBox="0 0 40 41" fill="none" xmlns="http://www.w3.org/2000/svg">
<path opacity="0.5" d="M20 36.9309C29.2048 36.9309 36.6667 29.4689 36.6667 20.2642C36.6667 11.0595 29.2048 3.59753 20 3.59753C10.7953 3.59753 3.33337 11.0595 3.33337 20.2642C3.33337 29.4689 10.7953 36.9309 20 36.9309Z" fill="#0CD68A"/>
<path d="M14.2919 16.0098C13.9798 12.5361 11.301 9.29928 10.0006 8.11508L9.28223 7.50068C12.1799 5.06482 15.9189 3.59753 20.0007 3.59753C23.6895 3.59753 27.0987 4.79603 29.8597 6.8249C30.2497 8.00912 29.5067 10.4835 28.7265 11.6677C28.4438 12.0967 27.803 12.6292 27.1003 13.134C25.5162 14.2722 23.517 14.8351 22.5007 16.9309C22.21 17.53 22.2225 18.1155 22.3622 18.6247C22.4627 18.9905 22.5268 19.3884 22.5278 19.7775C22.5312 21.0357 21.2587 21.9445 20.0007 21.9309C16.7268 21.8952 14.5837 19.2567 14.2919 16.0098Z" fill="#0CD68A"/>
<path d="M22.3941 30.7244C24.041 27.6209 29.5303 27.6209 29.5303 27.6209C35.2503 27.5612 36.023 24.0882 36.5395 22.3329C35.615 29.8019 29.749 35.7391 22.3141 36.7719C21.7765 35.6402 21.1395 33.0886 22.3941 30.7244Z" fill="#0CD68A"/>
</svg>
