<svg width="18" height="17" viewBox="0 0 18 17" fill="none" xmlns="http://www.w3.org/2000/svg">
<path d="M15.75 0.375C16.9805 0.375 18 1.39453 18 2.625V13.875C18 15.1406 16.9805 16.125 15.75 16.125H2.25C0.984375 16.125 0 15.1406 0 13.875V2.625C0 1.39453 0.984375 0.375 2.25 0.375H15.75ZM16.3125 2.625C16.3125 2.34375 16.0312 2.0625 15.75 2.0625H6.46875V5.15625H16.3125V2.625ZM6.46875 6.84375V9.65625H16.3125V6.84375H6.46875ZM4.78125 9.65625V6.84375H1.6875V9.65625H4.78125ZM2.25 2.0625C1.93359 2.0625 1.6875 2.34375 1.6875 2.625V5.15625H4.78125V2.0625H2.25ZM1.6875 13.875C1.6875 14.1914 1.93359 14.4375 2.25 14.4375H4.78125V11.3438H1.6875V13.875ZM15.75 14.4375C16.0312 14.4375 16.3125 14.1914 16.3125 13.875V11.3438H6.46875V14.4375H15.75Z" fill="white"/>
</svg>
