<svg width="80" height="80" viewBox="0 0 80 80" fill="none" xmlns="http://www.w3.org/2000/svg">
<path opacity="0.4" d="M56.76 0H23.24C8.68 0 0 8.68 0 23.24V56.72C0 71.32 8.68 80 23.24 80H56.72C71.28 80 79.96 71.32 79.96 56.76V23.24C80 8.68 71.32 0 56.76 0Z" fill="#87C1E6"/>
<path d="M79.3212 6.20088C75.1212 16.6409 65.6012 30.2809 56.4812 39.2009C55.1612 30.9609 48.6012 24.5209 40.2812 23.3609C49.2412 14.2409 62.9612 4.56088 73.4412 0.320882C75.2812 -0.399118 77.1612 0.160882 78.2812 1.32088C79.5212 2.52088 80.0812 4.36088 79.3212 6.20088Z" fill="#2C79AA"/>
<path opacity="0.4" d="M56.4788 39.1603C54.8788 40.7204 53.2788 42.1604 51.7588 43.3604L45.4788 48.4004C44.6788 48.9604 43.8788 49.4404 42.9988 49.8404C42.9988 49.2404 42.9188 48.6404 42.8788 48.0004C42.5188 45.3604 41.3188 42.8404 39.1588 40.6804C36.9588 38.5203 34.3188 37.2803 31.6388 36.9203C30.9988 36.8403 30.3188 36.8403 29.7188 36.8403C30.0788 35.8403 30.5988 34.9203 31.2788 34.1603L36.2787 27.8803C37.4787 26.3603 38.8388 24.8403 40.3188 23.3203C48.5988 24.4803 55.1988 30.9603 56.4788 39.1603Z" fill="#3797D5"/>
<path d="M43.0024 49.88C43.0024 53.4 41.6424 56.76 39.1222 59.28C37.1622 61.24 34.5622 62.6 31.3622 63L23.5222 63.88C19.2422 64.36 15.5622 60.68 16.0422 56.36L16.9222 48.52C17.6822 41.52 23.5222 37.04 29.7222 36.92C30.3222 36.88 31.0022 36.92 31.6422 37C34.3622 37.36 36.9622 38.6 39.1622 40.76C41.2824 42.88 42.5224 45.44 42.8824 48.08C42.9224 48.68 43.0024 49.28 43.0024 49.88Z" fill="#2C79AA"/>
</svg>
