<svg width="16" height="16" viewBox="0 0 16 16" fill="none" xmlns="http://www.w3.org/2000/svg">
<path d="M13.4844 2.56641C14.9609 4.04297 15.875 5.97656 15.875 8.08594C15.875 12.375 12.2891 15.8906 7.96484 15.8906C6.66406 15.8906 5.39844 15.5391 4.23828 14.9414L0.125 15.9961L1.21484 11.9531C0.546875 10.793 0.160156 9.45703 0.160156 8.05078C0.160156 3.76172 3.67578 0.246094 7.96484 0.246094C10.0742 0.246094 12.043 1.08984 13.4844 2.56641ZM7.96484 14.5547C11.5508 14.5547 14.5391 11.6367 14.5391 8.08594C14.5391 6.32812 13.8008 4.71094 12.5703 3.48047C11.3398 2.25 9.72266 1.58203 8 1.58203C4.41406 1.58203 1.49609 4.5 1.49609 8.05078C1.49609 9.28125 1.84766 10.4766 2.48047 11.5312L2.65625 11.7773L1.98828 14.168L4.44922 13.5L4.66016 13.6406C5.67969 14.2383 6.80469 14.5547 7.96484 14.5547ZM11.5508 9.70312C11.7266 9.80859 11.8672 9.84375 11.9023 9.94922C11.9727 10.0195 11.9727 10.4062 11.7969 10.8633C11.6211 11.3203 10.8477 11.7422 10.4961 11.7773C9.86328 11.8828 9.37109 11.8477 8.14062 11.2852C6.17188 10.4414 4.90625 8.47266 4.80078 8.36719C4.69531 8.22656 4.02734 7.3125 4.02734 6.32812C4.02734 5.37891 4.51953 4.92188 4.69531 4.71094C4.87109 4.5 5.08203 4.46484 5.22266 4.46484C5.32812 4.46484 5.46875 4.46484 5.57422 4.46484C5.71484 4.46484 5.85547 4.42969 6.03125 4.81641C6.17188 5.20312 6.59375 6.15234 6.62891 6.25781C6.66406 6.36328 6.69922 6.46875 6.62891 6.60938C6.27734 7.34766 5.85547 7.3125 6.06641 7.66406C6.83984 8.96484 7.57812 9.42188 8.73828 9.98438C8.91406 10.0898 9.01953 10.0547 9.16016 9.94922C9.26562 9.80859 9.65234 9.35156 9.75781 9.17578C9.89844 8.96484 10.0391 9 10.2148 9.07031C10.3906 9.14062 11.3398 9.59766 11.5508 9.70312Z" fill="#3797D5"/>
</svg>
