<svg width="14" height="15" viewBox="0 0 14 15" fill="none" xmlns="http://www.w3.org/2000/svg">
<path d="M11.875 2.93359C13.1875 4.24609 14 5.96484 14 7.83984C14 11.6523 10.8125 14.7773 6.96875 14.7773C5.8125 14.7773 4.6875 14.4648 3.65625 13.9336L0 14.8711L0.96875 11.2773C0.375 10.2461 0.03125 9.05859 0.03125 7.80859C0.03125 3.99609 3.15625 0.871094 6.96875 0.871094C8.84375 0.871094 10.5938 1.62109 11.875 2.93359ZM6.96875 13.5898C10.1562 13.5898 12.8125 10.9961 12.8125 7.83984C12.8125 6.27734 12.1562 4.83984 11.0625 3.74609C9.96875 2.65234 8.53125 2.05859 7 2.05859C3.8125 2.05859 1.21875 4.65234 1.21875 7.80859C1.21875 8.90234 1.53125 9.96484 2.09375 10.9023L2.25 11.1211L1.65625 13.2461L3.84375 12.6523L4.03125 12.7773C4.9375 13.3086 5.9375 13.5898 6.96875 13.5898ZM10.1562 9.27734C10.3125 9.37109 10.4375 9.40234 10.4688 9.49609C10.5312 9.55859 10.5312 9.90234 10.375 10.3086C10.2188 10.7148 9.53125 11.0898 9.21875 11.1211C8.65625 11.2148 8.21875 11.1836 7.125 10.6836C5.375 9.93359 4.25 8.18359 4.15625 8.08984C4.0625 7.96484 3.46875 7.15234 3.46875 6.27734C3.46875 5.43359 3.90625 5.02734 4.0625 4.83984C4.21875 4.65234 4.40625 4.62109 4.53125 4.62109C4.625 4.62109 4.75 4.62109 4.84375 4.62109C4.96875 4.62109 5.09375 4.58984 5.25 4.93359C5.375 5.27734 5.75 6.12109 5.78125 6.21484C5.8125 6.30859 5.84375 6.40234 5.78125 6.52734C5.46875 7.18359 5.09375 7.15234 5.28125 7.46484C5.96875 8.62109 6.625 9.02734 7.65625 9.52734C7.8125 9.62109 7.90625 9.58984 8.03125 9.49609C8.125 9.37109 8.46875 8.96484 8.5625 8.80859C8.6875 8.62109 8.8125 8.65234 8.96875 8.71484C9.125 8.77734 9.96875 9.18359 10.1562 9.27734Z" fill="#215B80"/>
</svg>
