<svg width="14" height="15" viewBox="0 0 14 15" fill="none" xmlns="http://www.w3.org/2000/svg">
<path d="M13 0.871094C13.5312 0.871094 14 1.33984 14 1.90234V13.8711C14 14.4336 13.5312 14.8711 13 14.8711H0.96875C0.4375 14.8711 0 14.4336 0 13.8711V1.90234C0 1.33984 0.4375 0.871094 0.96875 0.871094H13ZM4.21875 12.8711V6.21484H2.15625V12.8711H4.21875ZM3.1875 5.27734C3.84375 5.27734 4.375 4.74609 4.375 4.08984C4.375 3.43359 3.84375 2.87109 3.1875 2.87109C2.5 2.87109 1.96875 3.43359 1.96875 4.08984C1.96875 4.74609 2.5 5.27734 3.1875 5.27734ZM12 12.8711V9.21484C12 7.43359 11.5938 6.02734 9.5 6.02734C8.5 6.02734 7.8125 6.58984 7.53125 7.12109H7.5V6.21484H5.53125V12.8711H7.59375V9.58984C7.59375 8.71484 7.75 7.87109 8.84375 7.87109C9.90625 7.87109 9.90625 8.87109 9.90625 9.62109V12.8711H12Z" fill="#215B80"/>
</svg>
