<svg width="18" height="13" viewBox="0 0 18 13" fill="none" xmlns="http://www.w3.org/2000/svg">
<path d="M17.1562 2.77734C17.5312 4.08984 17.5312 6.90234 17.5312 6.90234C17.5312 6.90234 17.5312 9.68359 17.1562 11.0273C16.9688 11.7773 16.375 12.3398 15.6562 12.5273C14.3125 12.8711 9 12.8711 9 12.8711C9 12.8711 3.65625 12.8711 2.3125 12.5273C1.59375 12.3398 1 11.7773 0.8125 11.0273C0.4375 9.68359 0.4375 6.90234 0.4375 6.90234C0.4375 6.90234 0.4375 4.08984 0.8125 2.77734C1 2.02734 1.59375 1.43359 2.3125 1.24609C3.65625 0.871094 9 0.871094 9 0.871094C9 0.871094 14.3125 0.871094 15.6562 1.24609C16.375 1.43359 16.9688 2.02734 17.1562 2.77734ZM7.25 9.43359L11.6875 6.90234L7.25 4.37109V9.43359Z" fill="#215B80"/>
</svg>
