<svg xmlns="http://www.w3.org/2000/svg" width="294" height="107" fill="none"><path fill="#EBF5FB" fill-opacity=".95" d="M242 0c7.549 0 14.121 4.183 17.525 10.358 1.893 3.433 5.091 6.396 9.011 6.396H286a8 8 0 0 1 8 8V99a8 8 0 0 1-8 8H8a8 8 0 0 1-8-8V24.754a8 8 0 0 1 8-8h207.464c3.92 0 7.118-2.963 9.011-6.396C227.879 4.183 234.451 0 242 0"/><rect width="34" height="34" x="225" y="3" fill="#3797D5" rx="17"/><path fill="#fff" d="M248.5 20a.74.74 0 0 1-.75.75h-5v5a.74.74 0 0 1-.75.75.72.72 0 0 1-.75-.75v-5h-5a.72.72 0 0 1-.75-.75.74.74 0 0 1 .75-.75h5v-5a.74.74 0 0 1 .75-.75.76.76 0 0 1 .75.75v5h5a.76.76 0 0 1 .75.75"/></svg>